<svg width="97" height="97" viewBox="0 0 97 97" fill="none" xmlns="http://www.w3.org/2000/svg">
<path d="M75.316 43.9825V59.5615M75.316 43.9825L49.351 31L23.386 43.9825L49.351 56.965L75.316 43.9825Z" stroke="black" stroke-width="5" stroke-linecap="round" stroke-linejoin="round"/>
<path d="M33.7722 49.1754V62.1579C41.5617 69.9474 57.1407 69.9474 64.9302 62.1579V49.1754" stroke="black" stroke-width="5" stroke-linecap="round" stroke-linejoin="round"/>
<path d="M80.2916 25.7917C85.3082 25.7917 89.3749 21.7249 89.3749 16.7083C89.3749 11.6917 85.3082 7.625 80.2916 7.625C75.275 7.625 71.2083 11.6917 71.2083 16.7083C71.2083 21.7249 75.275 25.7917 80.2916 25.7917Z" stroke="black" stroke-width="5" stroke-linecap="round" stroke-linejoin="round"/>
<path d="M16.7083 89.375C21.7249 89.375 25.7917 85.3083 25.7917 80.2917C25.7917 75.2751 21.7249 71.2084 16.7083 71.2084C11.6917 71.2084 7.625 75.2751 7.625 80.2917C7.625 85.3083 11.6917 89.375 16.7083 89.375Z" stroke="black" stroke-width="6" stroke-linecap="round" stroke-linejoin="round"/>
<path d="M41.2334 93.4624C49.9659 94.8973 58.9274 93.7497 67.0166 90.1606C75.1057 86.5715 81.9701 80.6973 86.766 73.2599C91.562 65.8226 94.0807 57.1461 94.0125 48.2967C93.9443 39.4473 91.2922 30.8107 86.3821 23.4481" stroke="black" stroke-width="5" stroke-linecap="round" stroke-linejoin="round"/>
<path d="M55.3125 3.53747C46.6157 2.20939 37.7203 3.4358 29.7073 7.0677C21.6943 10.6996 14.9087 16.5806 10.1749 23.9961C5.44108 31.4116 2.96295 40.0424 3.04161 48.8397C3.12027 57.637 5.75232 66.2221 10.618 73.5518" stroke="black" stroke-width="5" stroke-linecap="round" stroke-linejoin="round"/>
</svg>
