<svg width="168" height="168" viewBox="0 0 168 168" fill="none" xmlns="http://www.w3.org/2000/svg">
<path d="M126 126C149.196 102.804 149.196 65.196 126 42C102.804 18.804 65.196 18.804 42 42C18.804 65.196 18.804 102.804 42 126C65.196 149.196 102.804 149.196 126 126Z" fill="white"/>
<path d="M135.49 83.9997C135.49 93.08 133.14 101.609 129.012 109.013C120.224 124.81 103.358 135.491 83.9984 135.491C65.0203 135.491 48.44 125.219 39.5096 109.933C35.0613 102.317 32.5137 93.4615 32.5137 83.9997C32.5137 55.5665 55.5653 32.5149 83.9984 32.5149C112.438 32.5149 135.49 55.5665 135.49 83.9997Z" fill="#014B73"/>
<path opacity="0.3" d="M129.013 109.013C120.226 124.81 103.359 135.491 83.9996 135.491C65.0215 135.491 48.4412 125.219 39.5107 109.933C53.0802 99.1222 96.3184 85.2489 129.013 109.013Z" fill="#0464AC"/>
<path d="M27.1612 83.4424L30.5127 100.599C30.7531 101.831 32.4377 102.018 32.9432 100.869L40.0439 84.7442C40.5494 83.597 39.2762 82.4812 38.2054 83.1331L23.2988 92.1992C22.2246 92.8524 22.636 94.5009 23.8908 94.5731L41.6189 95.5936C42.8505 95.6644 43.4608 94.1242 42.5153 93.332L29.2415 82.2149C28.3158 81.4397 26.9296 82.2578 27.1612 83.4424Z" fill="#FFAA47"/>
<path d="M135.881 74.5977L123.687 87.1229C122.811 88.0221 123.616 89.5132 124.848 89.2748L142.147 85.9294C143.378 85.691 143.57 84.0098 142.424 83.5003L126.484 76.409C125.335 75.8981 124.214 77.1747 124.869 78.2476L134.126 93.4015C134.769 94.4546 136.383 94.0793 136.496 92.8504L138.076 75.6086C138.185 74.4056 136.723 73.7326 135.881 74.5977Z" fill="#FFAA47"/>
<path d="M38.7247 56.3622L32.9597 65.1762C32.4665 65.9303 33.239 66.871 34.0748 66.5338L43.8888 62.5706C44.724 62.2334 44.6279 61.0216 43.7505 60.8199L33.5442 58.4753C32.6641 58.2729 32.0496 59.3274 32.6593 59.9936L39.8739 67.8771C40.4726 68.5311 41.5585 68.044 41.4685 67.1626L40.4113 56.773C40.3234 55.9099 39.1995 55.636 38.7247 56.3622Z" fill="#FFAA47"/>
<path d="M94.7318 27.9038L88.9669 36.7178C88.4737 37.4718 89.2461 38.4126 90.082 38.0754L99.896 34.1122C100.731 33.775 100.635 32.5632 99.757 32.3615L89.5513 30.0175C88.6712 29.8152 88.0561 30.8697 88.6664 31.5359L95.881 39.4194C96.4791 40.0733 97.5656 39.5863 97.4757 38.7048L96.4184 28.3152C96.3299 27.4515 95.2066 27.1776 94.7318 27.9038Z" fill="#FFAA47"/>
<rect x="78" y="53" width="12" height="61" fill="#D9D9D9"/>
<rect x="54" y="90" width="13" height="60" transform="rotate(-90 54 90)" fill="#D9D9D9"/>
</svg>
