<svg width="248" height="248" viewBox="0 0 248 248" fill="none" xmlns="http://www.w3.org/2000/svg">
<path d="M185.786 185.617C219.838 151.565 219.838 96.3561 185.786 62.3043C151.734 28.2525 96.5254 28.2524 62.4735 62.3043C28.4217 96.3561 28.4217 151.565 62.4736 185.617C96.5254 219.669 151.734 219.669 185.786 185.617Z" fill="white"/>
<path d="M199.719 123.96C199.719 137.29 196.269 149.81 190.209 160.68C177.309 183.87 152.549 199.55 124.129 199.55C96.269 199.55 71.929 184.47 58.819 162.03C52.289 150.85 48.549 137.85 48.549 123.96C48.549 82.22 82.389 48.38 124.129 48.38C165.879 48.38 199.719 82.22 199.719 123.96Z" fill="#FFCD47"/>
<path opacity="0.3" d="M190.209 160.68C177.309 183.87 152.549 199.55 124.129 199.55C96.269 199.55 71.929 184.47 58.819 162.03C78.739 146.16 142.213 125.794 190.209 160.68Z" fill="#D71255"/>
<path d="M87.178 78.4271C87.178 78.4271 76.275 73.3691 75.029 73.9921C73.783 74.6151 76.488 88.1651 76.488 88.1651L87.178 78.4271Z" fill="#537AD2"/>
<path d="M156.366 74.0571C156.366 74.0571 166.395 67.435 167.72 67.865C169.045 68.296 168.384 82.098 168.384 82.098L156.366 74.0571Z" fill="#537AD2"/>
<path d="M91.169 164.39C88.449 169.17 86.109 170.6 84.189 170.38C80.309 169.93 78.159 162.74 78.159 162.74C78.159 162.74 74.479 168.91 70.799 167.62C67.199 166.35 71.979 159.04 72.199 158.7C71.889 158.87 65.069 162.6 62.029 158.72C59.759 155.83 75.539 146.63 84.249 141.86C87.489 140.08 89.759 138.92 89.759 138.92L91.169 164.39Z" fill="#5D8BE0"/>
<path d="M89.759 138.92L91.169 164.39C88.449 169.17 86.109 170.6 84.189 170.38C79.099 160.54 81.109 149.88 84.249 141.86C87.489 140.08 89.759 138.92 89.759 138.92Z" fill="#537AD2"/>
<path d="M179.859 158.72C176.819 162.6 169.999 158.87 169.689 158.7C169.909 159.04 174.689 166.35 171.089 167.62C167.409 168.91 163.729 162.74 163.729 162.74C163.729 162.74 161.959 168.65 158.739 170.09C156.649 171.02 153.949 170.07 150.719 164.39L152.129 138.94V138.92C152.129 138.92 152.149 138.93 152.179 138.95C152.609 139.17 156.089 140.97 160.459 143.43C169.349 148.43 181.899 156.12 179.859 158.72Z" fill="#5D8BE0"/>
<path d="M158.739 170.09C156.649 171.02 153.949 170.07 150.719 164.39L152.129 138.94L152.179 138.95C152.609 139.17 156.089 140.97 160.459 143.43C163.069 154.06 162.099 162.98 158.739 170.09Z" fill="#537AD2"/>
<path d="M155.397 167.615C150.307 181.885 120.597 192.965 98.247 177.405C83.067 166.845 84.717 149.885 87.337 140.085C88.577 135.445 90.037 132.415 90.037 132.415L155.397 134.395C155.397 134.395 156.197 137.395 156.847 141.915C157.837 148.735 158.457 159.025 155.397 167.615Z" fill="#5D9CE0"/>
<path d="M156.847 141.915C155.107 142.815 153.327 143.615 151.507 144.325C140.577 148.605 128.567 149.565 116.867 148.655C106.557 147.855 96.047 145.495 87.337 140.085C88.577 135.445 90.037 132.415 90.037 132.415L155.397 134.395C155.397 134.395 156.197 137.395 156.847 141.915Z" fill="#537AD2"/>
<path d="M73.431 90.511C70.016 98.703 70.947 131.499 93.667 140.081C116.387 148.663 148.009 142.294 160.927 131.171C180.99 113.896 181.712 97.785 171.492 81.856C158.026 60.869 86.31 59.618 73.431 90.511Z" fill="#5D9CE0"/>
<path d="M120.163 87.262C120.163 87.262 94.9209 71.144 80.6029 89.883C72.1259 100.978 73.7619 130.688 102.911 137.232C132.06 143.776 161.507 133.79 167.753 116.772C173.999 99.754 169.082 86.24 155.261 79.826C141.439 73.412 127.597 78.315 120.163 87.262Z" fill="#C6E0FF"/>
<path d="M79.736 106.841C80.381 108.514 81.894 109.754 83.576 110.378C85.181 110.974 87.007 111.057 88.599 110.424C91.659 109.208 92.73 105.205 90.997 102.401C90.746 101.995 90.415 101.642 90.049 101.334C88.589 100.103 86.564 99.608 84.679 99.916C81.485 100.439 78.413 103.41 79.736 106.841Z" fill="#E72E78"/>
<path d="M164.831 102.008C164.186 103.681 162.673 104.921 160.991 105.545C159.386 106.141 157.56 106.224 155.968 105.591C152.908 104.375 151.837 100.372 153.57 97.5681C153.821 97.1621 154.152 96.8091 154.518 96.5011C155.978 95.2701 158.003 94.7751 159.888 95.0831C163.082 95.6051 166.154 98.5761 164.831 102.008Z" fill="#E72E78"/>
<path d="M83.898 86.0201C85.325 89.5911 102.118 85.8641 99.938 79.6341C97.757 73.4041 80.786 78.2321 83.898 86.0201Z" fill="#352B49"/>
<path d="M158.448 83.1741C157.021 86.7451 140.228 83.0181 142.408 76.7881C144.589 70.5581 161.56 75.3861 158.448 83.1741Z" fill="#352B49"/>
<path d="M121.522 109.105C116.472 104.305 114.692 96.9251 115.972 94.3551V94.3451C116.062 94.1651 116.162 94.0151 116.282 93.8851C118.402 91.5951 123.682 91.1751 125.672 93.3151C125.842 93.4851 125.982 93.6751 126.092 93.8851C127.612 96.6451 126.662 103.875 121.522 109.105Z" fill="#FC8A43"/>
<path d="M121.522 109.105C116.472 104.305 114.692 96.9251 115.972 94.3551C116.982 97.7651 119.712 106.185 121.792 105.795C123.872 105.395 125.212 96.7551 125.672 93.3151C125.842 93.4851 125.982 93.6751 126.092 93.8851C127.612 96.6451 126.662 103.875 121.522 109.105Z" fill="#D54C37"/>
<path d="M96.696 152.548C96.696 152.548 96.699 161.652 104.196 161.117C111.694 160.581 109.909 152.548 109.909 152.548L103.395 158.687C100.447 158.261 96.696 152.548 96.696 152.548Z" fill="#5D8BE0"/>
<path d="M115.573 158.687C115.573 158.687 119.877 166.116 123.283 165.937C126.69 165.759 129.01 158.687 129.01 158.687C129.01 158.687 125.946 161.903 123.283 162.314C120.62 162.724 115.573 158.687 115.573 158.687Z" fill="#5D8BE0"/>
<path d="M136.329 156.119C136.329 156.119 134.887 162.439 142.213 162.314C149.539 162.189 150.52 154.661 150.52 154.661C150.52 154.661 145.942 159.511 143.367 159.511C140.792 159.511 136.329 156.119 136.329 156.119Z" fill="#5D8BE0"/>
<path d="M105.191 167.883C105.191 167.883 105.905 173.06 110.19 173.238C114.474 173.416 116.795 167.883 116.795 167.883C116.795 167.883 113.582 170.029 110.993 170.563C108.404 171.097 105.191 167.883 105.191 167.883Z" fill="#5D8BE0"/>
<path d="M127.862 168.597C127.862 168.597 128.933 173.604 133.753 173.243C138.573 172.882 139.466 167.883 139.466 167.883C139.466 167.883 136.253 171.1 133.664 170.563C131.076 170.026 127.862 168.597 127.862 168.597Z" fill="#5D8BE0"/>
<path d="M49.758 178.156C46.47 182.815 49.758 209.013 53.234 211.158C56.71 213.303 181.075 216.497 190.345 212.969C199.615 209.441 197.378 183.934 195.447 179.686C193.516 175.437 54.393 171.59 49.758 178.156Z" fill="white"/>
<path d="M78.4524 185.224L72.8057 193.026L77.562 201.321L72.1262 202.281L68.5647 197.22L68.3773 202.515L63.5038 202.703L63.8786 184.755L69.3379 185.06L68.9162 190.355L72.5479 184.755L78.4524 185.224ZM92.0655 190.707C92.0655 191.316 92.0108 191.87 91.9015 192.37C91.8 192.862 91.6359 193.315 91.4094 193.729C91.1829 194.143 90.8901 194.526 90.5308 194.877C90.1715 195.229 89.7381 195.564 89.2304 195.885L92.0186 200.852L86.7468 201.883L84.9426 196.892L83.4899 196.939L83.2791 201.813H78.2415C78.2806 200.032 78.3157 198.259 78.347 196.494C78.386 194.729 78.429 192.956 78.4758 191.175C78.4914 190.277 78.5071 189.387 78.5227 188.504C78.5383 187.622 78.5695 186.731 78.6164 185.833C79.1631 185.63 79.702 185.462 80.2331 185.329C80.7642 185.196 81.2953 185.095 81.8264 185.025C82.3653 184.947 82.9081 184.896 83.4548 184.872C84.0093 184.841 84.5756 184.825 85.1535 184.825C86.0439 184.825 86.903 184.95 87.7309 185.2C88.5665 185.442 89.3046 185.81 89.945 186.302C90.5855 186.794 91.097 187.407 91.4797 188.141C91.8702 188.875 92.0655 189.73 92.0655 190.707ZM86.8171 191.081C86.8171 190.753 86.7702 190.453 86.6765 190.179C86.5906 189.906 86.4578 189.672 86.2782 189.476C86.1063 189.273 85.8877 189.117 85.6221 189.008C85.3644 188.891 85.0598 188.832 84.7083 188.832C84.5521 188.832 84.3998 188.844 84.2514 188.867C84.103 188.883 83.9586 188.91 83.818 188.949L83.6305 193.307H83.9117C84.2475 193.307 84.5873 193.264 84.9309 193.178C85.2824 193.093 85.5948 192.96 85.8681 192.78C86.1493 192.6 86.3758 192.37 86.5476 192.089C86.7273 191.808 86.8171 191.472 86.8171 191.081ZM106.85 185.505C106.499 188.254 106.198 190.992 105.948 193.717C105.698 196.435 105.46 199.173 105.233 201.93L100.43 202.281L100.641 200.477C100.485 200.657 100.301 200.813 100.09 200.946C99.8874 201.078 99.6687 201.188 99.4344 201.274C99.2001 201.352 98.958 201.41 98.708 201.449C98.4581 201.481 98.2199 201.492 97.9934 201.485C97.4623 201.477 96.9625 201.375 96.4939 201.18C96.0252 200.977 95.5957 200.711 95.2052 200.383C94.8147 200.047 94.4632 199.661 94.1508 199.223C93.8384 198.778 93.5729 198.314 93.3542 197.829C93.1433 197.337 92.9793 196.837 92.8621 196.33C92.7528 195.822 92.6981 195.33 92.6981 194.854C92.6981 194.151 92.7098 193.424 92.7333 192.675C92.7645 191.917 92.8153 191.16 92.8856 190.402C92.9559 189.644 93.0457 188.895 93.155 188.153C93.2722 187.411 93.4167 186.7 93.5885 186.02C94.5413 186.067 95.4981 186.11 96.4587 186.149C97.4194 186.188 98.3761 186.2 99.3289 186.184C99.1493 186.864 98.9697 187.547 98.79 188.235C98.6182 188.914 98.462 189.601 98.3214 190.296C98.1808 190.984 98.0676 191.675 97.9817 192.37C97.8958 193.065 97.8528 193.768 97.8528 194.479C97.8528 194.643 97.8606 194.877 97.8763 195.182C97.8919 195.486 97.9309 195.787 97.9934 196.084C98.0637 196.381 98.1652 196.642 98.298 196.869C98.4386 197.087 98.6338 197.197 98.8838 197.197C99.1805 197.197 99.4461 197.072 99.6804 196.822C99.9147 196.564 100.122 196.22 100.301 195.791C100.481 195.361 100.633 194.865 100.758 194.303C100.891 193.741 101 193.155 101.086 192.546C101.18 191.929 101.254 191.308 101.309 190.683C101.363 190.058 101.403 189.473 101.426 188.926C101.457 188.371 101.477 187.875 101.485 187.438C101.5 187.001 101.508 186.661 101.508 186.419C101.508 186.263 101.504 186.11 101.496 185.962C101.488 185.813 101.477 185.661 101.461 185.505C101.969 185.521 102.473 185.532 102.972 185.54C103.472 185.548 103.976 185.552 104.484 185.552C104.874 185.552 105.265 185.552 105.655 185.552C106.053 185.544 106.452 185.528 106.85 185.505ZM125.876 197.829C125.876 198.478 125.755 199.036 125.512 199.505C125.278 199.973 124.962 200.372 124.564 200.7C124.165 201.028 123.704 201.297 123.181 201.508C122.666 201.711 122.127 201.871 121.564 201.988C121.002 202.105 120.436 202.184 119.866 202.223C119.303 202.262 118.776 202.281 118.284 202.281C117.8 202.281 117.296 202.262 116.773 202.223C116.257 202.191 115.742 202.133 115.227 202.047C114.711 201.961 114.203 201.848 113.704 201.707C113.204 201.559 112.731 201.375 112.286 201.157L112.263 186.067C112.7 185.888 113.165 185.728 113.657 185.587C114.149 185.439 114.649 185.318 115.156 185.224C115.672 185.122 116.183 185.048 116.691 185.001C117.199 184.947 117.691 184.919 118.167 184.919C118.722 184.919 119.28 184.954 119.842 185.025C120.412 185.095 120.959 185.212 121.482 185.376C122.006 185.54 122.494 185.755 122.947 186.02C123.4 186.278 123.794 186.598 124.13 186.981C124.474 187.364 124.739 187.809 124.927 188.317C125.122 188.824 125.22 189.41 125.22 190.074C125.22 190.511 125.157 190.921 125.032 191.304C124.907 191.687 124.728 192.03 124.493 192.335C124.259 192.64 123.974 192.901 123.638 193.12C123.302 193.331 122.923 193.487 122.502 193.588C123.009 193.721 123.47 193.916 123.884 194.174C124.306 194.432 124.661 194.744 124.95 195.111C125.247 195.479 125.473 195.892 125.63 196.353C125.794 196.814 125.876 197.306 125.876 197.829ZM119.924 191.152C119.924 190.925 119.877 190.734 119.784 190.578C119.69 190.414 119.573 190.281 119.432 190.179C119.3 190.078 119.151 190.004 118.987 189.957C118.831 189.91 118.69 189.886 118.565 189.886C118.409 189.886 118.257 189.91 118.108 189.957C117.96 190.004 117.816 190.058 117.675 190.121L117.605 192.722C117.784 192.722 118.007 192.706 118.272 192.675C118.538 192.643 118.792 192.577 119.034 192.476C119.284 192.366 119.495 192.21 119.667 192.007C119.838 191.796 119.924 191.511 119.924 191.152ZM118.261 194.971C118.034 194.971 117.816 194.994 117.605 195.041L117.558 197.712C117.675 197.736 117.788 197.759 117.898 197.783C118.015 197.798 118.128 197.806 118.237 197.806C118.401 197.806 118.581 197.79 118.776 197.759C118.971 197.72 119.155 197.65 119.327 197.548C119.499 197.439 119.639 197.294 119.749 197.115C119.866 196.935 119.924 196.697 119.924 196.4C119.924 196.103 119.866 195.861 119.749 195.674C119.639 195.486 119.503 195.342 119.339 195.24C119.175 195.131 118.995 195.061 118.8 195.029C118.604 194.99 118.425 194.971 118.261 194.971ZM140.473 185.505C140.121 188.254 139.821 190.992 139.571 193.717C139.321 196.435 139.083 199.173 138.856 201.93L134.053 202.281L134.264 200.477C134.108 200.657 133.924 200.813 133.713 200.946C133.51 201.078 133.291 201.188 133.057 201.274C132.823 201.352 132.581 201.41 132.331 201.449C132.081 201.481 131.843 201.492 131.616 201.485C131.085 201.477 130.585 201.375 130.117 201.18C129.648 200.977 129.218 200.711 128.828 200.383C128.437 200.047 128.086 199.661 127.774 199.223C127.461 198.778 127.196 198.314 126.977 197.829C126.766 197.337 126.602 196.837 126.485 196.33C126.376 195.822 126.321 195.33 126.321 194.854C126.321 194.151 126.333 193.424 126.356 192.675C126.387 191.917 126.438 191.16 126.508 190.402C126.579 189.644 126.668 188.895 126.778 188.153C126.895 187.411 127.039 186.7 127.211 186.02C128.164 186.067 129.121 186.11 130.081 186.149C131.042 186.188 131.999 186.2 132.952 186.184C132.772 186.864 132.592 187.547 132.413 188.235C132.241 188.914 132.085 189.601 131.944 190.296C131.804 190.984 131.69 191.675 131.604 192.37C131.519 193.065 131.476 193.768 131.476 194.479C131.476 194.643 131.483 194.877 131.499 195.182C131.515 195.486 131.554 195.787 131.616 196.084C131.686 196.381 131.788 196.642 131.921 196.869C132.061 197.087 132.257 197.197 132.506 197.197C132.803 197.197 133.069 197.072 133.303 196.822C133.537 196.564 133.744 196.22 133.924 195.791C134.104 195.361 134.256 194.865 134.381 194.303C134.514 193.741 134.623 193.155 134.709 192.546C134.803 191.929 134.877 191.308 134.932 190.683C134.986 190.058 135.025 189.473 135.049 188.926C135.08 188.371 135.099 187.875 135.107 187.438C135.123 187.001 135.131 186.661 135.131 186.419C135.131 186.263 135.127 186.11 135.119 185.962C135.111 185.813 135.099 185.661 135.084 185.505C135.591 185.521 136.095 185.532 136.595 185.54C137.095 185.548 137.599 185.552 138.106 185.552C138.497 185.552 138.887 185.552 139.278 185.552C139.676 185.544 140.075 185.528 140.473 185.505ZM154.449 192.698C154.449 193.792 154.309 194.772 154.027 195.639C153.746 196.506 153.352 197.275 152.844 197.947C152.344 198.61 151.747 199.177 151.052 199.645C150.357 200.114 149.595 200.5 148.767 200.805C147.939 201.102 147.057 201.321 146.12 201.461C145.19 201.602 144.233 201.672 143.249 201.672C142.882 201.672 142.523 201.664 142.172 201.649C141.82 201.625 141.461 201.594 141.094 201.555L141.422 186.302C142.281 186.028 143.163 185.837 144.069 185.728C144.983 185.61 145.889 185.552 146.787 185.552C147.904 185.552 148.931 185.708 149.868 186.02C150.806 186.333 151.614 186.794 152.294 187.403C152.973 188.004 153.5 188.75 153.875 189.64C154.258 190.523 154.449 191.542 154.449 192.698ZM146.483 197.197C146.951 197.126 147.377 196.986 147.76 196.775C148.15 196.556 148.486 196.291 148.767 195.978C149.048 195.658 149.263 195.299 149.412 194.901C149.568 194.494 149.646 194.065 149.646 193.612C149.646 193.167 149.599 192.753 149.505 192.37C149.412 191.98 149.259 191.644 149.048 191.363C148.838 191.074 148.56 190.847 148.217 190.683C147.873 190.511 147.451 190.418 146.951 190.402L146.483 197.197ZM168.461 192.698C168.461 193.792 168.32 194.772 168.039 195.639C167.758 196.506 167.363 197.275 166.856 197.947C166.356 198.61 165.758 199.177 165.063 199.645C164.368 200.114 163.607 200.5 162.779 200.805C161.951 201.102 161.068 201.321 160.131 201.461C159.202 201.602 158.245 201.672 157.261 201.672C156.894 201.672 156.534 201.664 156.183 201.649C155.832 201.625 155.472 201.594 155.105 201.555L155.433 186.302C156.292 186.028 157.175 185.837 158.081 185.728C158.995 185.61 159.901 185.552 160.799 185.552C161.916 185.552 162.943 185.708 163.88 186.02C164.817 186.333 165.625 186.794 166.305 187.403C166.984 188.004 167.512 188.75 167.886 189.64C168.269 190.523 168.461 191.542 168.461 192.698ZM160.494 197.197C160.963 197.126 161.388 196.986 161.771 196.775C162.162 196.556 162.497 196.291 162.779 195.978C163.06 195.658 163.275 195.299 163.423 194.901C163.579 194.494 163.657 194.065 163.657 193.612C163.657 193.167 163.61 192.753 163.517 192.37C163.423 191.98 163.271 191.644 163.06 191.363C162.849 191.074 162.572 190.847 162.228 190.683C161.884 190.511 161.463 190.418 160.963 190.402L160.494 197.197ZM183.034 186.138L177.528 195.135L177.692 201.766H171.671L171.811 195.182L167.523 186.489L173.498 185.739L175.373 190.8L177.411 185.739L183.034 186.138Z" fill="#451255"/>
<path d="M92.4269 96.5041C90.8199 95.9681 91.8909 92.1541 94.9719 91.7841C98.0529 91.4141 99.6599 94.6881 98.3209 95.2611C96.9809 95.8341 97.8489 93.8651 95.4059 94.0461C92.9629 94.2271 92.4269 96.5041 92.4269 96.5041Z" fill="#352B49"/>
<path d="M148.583 93.5041C150.191 92.9681 149.119 89.1541 146.038 88.7841C142.957 88.4141 141.35 91.6881 142.689 92.2611C144.029 92.8341 143.161 90.8651 145.604 91.0461C148.047 91.2271 148.583 93.5041 148.583 93.5041Z" fill="#352B49"/>
<path d="M40.689 123.142L45.609 148.328C45.962 150.136 48.435 150.411 49.177 148.725L59.601 125.053C60.343 123.369 58.474 121.731 56.902 122.688L35.019 135.997C33.442 136.956 34.046 139.376 35.888 139.482L61.913 140.98C63.721 141.084 64.617 138.823 63.229 137.66L43.743 121.34C42.384 120.202 40.349 121.403 40.689 123.142Z" fill="#FFAA47"/>
<path d="M200.292 110.158L182.391 128.545C181.106 129.865 182.287 132.054 184.096 131.704L209.491 126.793C211.298 126.443 211.58 123.975 209.898 123.227L186.497 112.817C184.811 112.067 183.165 113.941 184.127 115.516L197.716 137.762C198.66 139.308 201.029 138.757 201.195 136.953L203.514 111.642C203.675 109.876 201.529 108.888 200.292 110.158Z" fill="#FFAA47"/>
<path d="M57.665 83.388L49.202 96.327C48.478 97.434 49.612 98.815 50.839 98.32L65.246 92.502C66.472 92.007 66.331 90.228 65.043 89.932L50.06 86.49C48.768 86.193 47.866 87.741 48.761 88.719L59.352 100.292C60.231 101.252 61.825 100.537 61.693 99.243L60.141 83.991C60.012 82.724 58.362 82.322 57.665 83.388Z" fill="#FFAA47"/>
<path d="M139.885 41.611L131.422 54.55C130.698 55.657 131.832 57.038 133.059 56.543L147.466 50.725C148.692 50.23 148.551 48.451 147.262 48.155L132.28 44.714C130.988 44.417 130.085 45.965 130.981 46.943L141.572 58.516C142.45 59.476 144.045 58.761 143.913 57.467L142.361 42.215C142.231 40.947 140.582 40.545 139.885 41.611Z" fill="#FFAA47"/>
</svg>
