<svg width="171" height="171" viewBox="0 0 171 171" fill="none" xmlns="http://www.w3.org/2000/svg">
<path d="M126 126C149.196 102.804 149.196 65.196 126 42C102.804 18.804 65.196 18.804 42 42C18.804 65.196 18.804 102.804 42 126C65.196 149.196 102.804 149.196 126 126Z" fill="white"/>
<path d="M135.49 83.9996C135.49 93.0799 133.14 101.609 129.012 109.013C120.224 124.81 103.358 135.491 83.9984 135.491C65.0203 135.491 48.44 125.219 39.5096 109.933C35.0613 102.317 32.5137 93.4614 32.5137 83.9996C32.5137 55.5665 55.5653 32.5148 83.9984 32.5148C112.438 32.5148 135.49 55.5665 135.49 83.9996Z" fill="#014B73"/>
<path opacity="0.3" d="M129.013 109.013C120.226 124.81 103.359 135.491 83.9996 135.491C65.0215 135.491 48.4412 125.219 39.5107 109.933C53.0802 99.1221 96.3184 85.2489 129.013 109.013Z" fill="#0464AC"/>
<path d="M27.1612 83.4424L30.5127 100.599C30.7531 101.831 32.4377 102.018 32.9432 100.869L40.0439 84.7442C40.5494 83.597 39.2762 82.4812 38.2054 83.1331L23.2988 92.1992C22.2246 92.8524 22.636 94.5009 23.8908 94.5731L41.6189 95.5936C42.8505 95.6644 43.4608 94.1242 42.5153 93.332L29.2415 82.2149C28.3158 81.4397 26.9296 82.2578 27.1612 83.4424Z" fill="#FFAA47"/>
<path d="M135.881 74.5977L123.687 87.1229C122.811 88.0221 123.616 89.5132 124.848 89.2748L142.147 85.9294C143.378 85.691 143.57 84.0098 142.424 83.5003L126.484 76.409C125.335 75.8981 124.214 77.1747 124.869 78.2476L134.126 93.4015C134.769 94.4546 136.383 94.0793 136.496 92.8504L138.076 75.6086C138.185 74.4056 136.723 73.7326 135.881 74.5977Z" fill="#FFAA47"/>
<path d="M38.7247 56.3622L32.9597 65.1762C32.4665 65.9303 33.239 66.871 34.0748 66.5338L43.8888 62.5706C44.724 62.2334 44.6279 61.0216 43.7505 60.8199L33.5442 58.4753C32.6641 58.2729 32.0496 59.3274 32.6593 59.9936L39.8739 67.8771C40.4726 68.5311 41.5585 68.044 41.4685 67.1626L40.4113 56.773C40.3234 55.9099 39.1995 55.636 38.7247 56.3622Z" fill="#FFAA47"/>
<path d="M94.7318 27.9038L88.9669 36.7178C88.4737 37.4719 89.2461 38.4126 90.082 38.0755L99.896 34.1123C100.731 33.7751 100.635 32.5632 99.757 32.3616L89.5513 30.0176C88.6712 29.8153 88.0561 30.8698 88.6664 31.536L95.881 39.4195C96.4791 40.0734 97.5656 39.5864 97.4757 38.7049L96.4184 28.3153C96.3299 27.4515 95.2066 27.1777 94.7318 27.9038Z" fill="#FFAA47"/>
<path d="M129 129C152.196 105.804 152.196 68.196 129 45C105.804 21.804 68.196 21.804 45 45C21.804 68.196 21.804 105.804 45 129C68.196 152.196 105.804 152.196 129 129Z" fill="white"/>
<path d="M138.49 86.9996C138.49 96.0799 136.14 104.609 132.012 112.013C123.224 127.81 106.358 138.491 86.9984 138.491C68.0203 138.491 51.44 128.219 42.5096 112.933C38.0613 105.317 35.5137 96.4614 35.5137 86.9996C35.5137 58.5665 58.5653 35.5148 86.9984 35.5148C115.438 35.5148 138.49 58.5665 138.49 86.9996Z" fill="#014B73"/>
<path opacity="0.3" d="M132.013 112.013C123.226 127.81 106.359 138.491 86.9996 138.491C68.0215 138.491 51.4412 128.219 42.5107 112.933C56.0802 102.122 99.3184 88.2489 132.013 112.013Z" fill="#0464AC"/>
<path d="M30.1612 86.4424L33.5127 103.599C33.7531 104.831 35.4377 105.018 35.9432 103.869L43.0439 87.7442C43.5494 86.597 42.2762 85.4812 41.2054 86.1331L26.2988 95.1992C25.2246 95.8524 25.636 97.5009 26.8908 97.5731L44.6189 98.5936C45.8505 98.6644 46.4608 97.1242 45.5153 96.332L32.2415 85.2149C31.3158 84.4397 29.9296 85.2578 30.1612 86.4424Z" fill="#FFAA47"/>
<path d="M138.881 77.5977L126.687 90.1229C125.811 91.0221 126.616 92.5132 127.848 92.2748L145.147 88.9294C146.378 88.691 146.57 87.0098 145.424 86.5003L129.484 79.409C128.335 78.8981 127.214 80.1747 127.869 81.2476L137.126 96.4015C137.769 97.4546 139.383 97.0793 139.496 95.8504L141.076 78.6086C141.185 77.4056 139.723 76.7326 138.881 77.5977Z" fill="#FFAA47"/>
<path d="M41.7247 59.3622L35.9597 68.1762C35.4665 68.9303 36.239 69.871 37.0748 69.5338L46.8888 65.5706C47.724 65.2334 47.6279 64.0216 46.7505 63.8199L36.5442 61.4753C35.6641 61.2729 35.0496 62.3274 35.6593 62.9936L42.8739 70.8771C43.4726 71.5311 44.5585 71.044 44.4685 70.1626L43.4113 59.773C43.3234 58.9099 42.1995 58.636 41.7247 59.3622Z" fill="#FFAA47"/>
<path d="M97.7318 30.9038L91.9669 39.7178C91.4737 40.4719 92.2461 41.4126 93.082 41.0755L102.896 37.1123C103.731 36.7751 103.635 35.5632 102.757 35.3616L92.5513 33.0176C91.6712 32.8153 91.0561 33.8698 91.6664 34.536L98.881 42.4195C99.4791 43.0734 100.566 42.5864 100.476 41.7049L99.4184 31.3153C99.3299 30.4515 98.2066 30.1777 97.7318 30.9038Z" fill="#FFAA47"/>
<path d="M111.987 88.2438C112.881 85.8849 116.174 85.1259 118.387 86.3404C120.6 87.5548 121.738 90.1589 121.931 92.6755C122.112 95.0052 121.569 97.4341 120.197 99.3259C118.825 101.224 116.588 102.526 114.247 102.537C114.002 98.1348 113.202 93.7615 111.987 88.2438Z" fill="#EB7B67"/>
<path d="M119.683 71.7783C120.407 79.7016 117.937 87.8701 112.945 94.0651C109.372 91.0347 104.134 91.28 99.4864 91.8697C85.8294 93.5863 71.933 100.867 59.2745 100.383C55.1931 94.7599 51.0067 88.9211 49.4886 82.1364C47.9763 75.3517 49.8272 67.2999 57.1141 64.1528C56.0865 59.546 57.9607 54.7757 61.2246 51.2899C62.4216 50.0054 63.8054 48.896 65.306 48.0318C70.8879 44.803 77.6609 44.3592 84.0894 44.8964C90.518 45.4336 96.8589 46.8699 103.305 47.0918C106.651 47.2086 110.131 47.0275 113.19 48.3763C117.301 50.1922 119.858 54.5363 120.646 58.9563C120.874 60.2116 120.973 61.4728 120.985 62.7281C121.008 65.8986 120.43 69.0165 119.683 71.7783Z" fill="#803D26"/>
<path opacity="0.7882" d="M120.985 62.7281C120.623 61.4961 120.179 60.2933 119.624 59.1314C117.668 55.0267 114.083 51.4534 109.617 50.6009C105.208 49.766 100.794 51.6227 96.3568 52.265C91.0493 53.0357 85.6659 52.0548 80.3818 51.1381C75.0976 50.2214 69.6734 49.3689 64.4068 50.3849C63.3324 50.5951 62.2639 50.8929 61.2246 51.2899C62.4216 50.0054 63.8054 48.896 65.3059 48.0318C70.8879 44.803 77.6609 44.3592 84.0894 44.8964C90.518 45.4336 96.8589 46.8699 103.305 47.0918C106.651 47.2086 110.131 47.0275 113.19 48.3763C117.301 50.1922 119.858 54.5363 120.646 58.9563C120.874 60.2116 120.973 61.4728 120.985 62.7281Z" fill="#A6582E"/>
<path d="M114.342 108.464C112.071 114.921 106.617 119.581 100.779 123.452C98.8692 124.719 96.522 125.163 94.2741 124.713C89.7432 123.802 85.5626 122.488 81.1251 120.655C75.5432 118.349 70.405 114.133 66.3353 109.036C63.4743 111.068 59.1477 110.215 56.8297 107.57C54.5117 104.931 54.0913 100.955 55.2416 97.6326C56.0065 95.408 57.5771 93.2943 59.8367 92.6228C61.6701 92.074 63.7371 92.5878 65.226 93.7965C66.709 94.9992 67.6199 96.8326 68.4256 99.0047C69.4825 97.5917 70.3933 96.0736 71.1465 94.4854C73.7214 89.102 74.5389 82.9012 73.3828 77.2259C77.7035 78.9834 82.6256 79.2461 87.1157 77.9616C88.99 77.4244 90.9693 76.4435 92.4349 74.6918C95.5937 75.6436 98.7758 76.6011 102.057 76.9806C105.339 77.366 108.76 77.1441 113.18 75.6786C112.976 78.1192 113.104 80.5482 113.385 82.9771C113.735 86.025 114.33 89.0612 114.809 92.0974C115.673 97.545 116.17 103.261 114.342 108.464Z" fill="#F9AF88"/>
<path d="M113.385 82.9771C112.701 81.4707 112.334 79.8183 112.322 78.1659C105.607 79.649 98.9042 79.4563 92.7384 77.512C88.0615 81.5291 81.4403 82.8837 75.7008 81.0795C76.1153 86.095 74.4045 91.058 71.1465 94.4854C73.7214 89.102 74.5388 82.9012 73.3828 77.2259C77.7035 78.9834 82.6256 79.2461 87.1157 77.9616C88.9899 77.4244 90.9693 76.4435 92.4348 74.6918C95.5936 75.6436 98.7758 76.6011 102.057 76.9806C105.339 77.366 108.76 77.1441 113.18 75.6786C112.976 78.1192 113.104 80.5482 113.385 82.9771Z" fill="#EB7B67"/>
<path d="M87.7439 84.8397C86.1265 83.0822 83.3939 82.4516 81.1693 83.3274C78.9447 84.2033 77.3683 86.5213 77.3799 88.9094C79.4469 85.663 83.8026 84.0807 87.7439 84.8397Z" fill="#803D26"/>
<path d="M101.64 83.164C103.099 81.681 104.787 80.268 106.83 79.9001C108.874 79.5323 111.309 80.6125 111.77 82.6385C108.302 81.5116 104.401 81.7802 101.64 83.164Z" fill="#803D26"/>
<path d="M99.9063 90.3691C98.9955 92.6171 98.8495 95.1745 99.4917 97.5159C99.7253 98.3508 100.052 99.1682 100.152 100.032C100.251 100.897 100.07 101.848 99.4275 102.438C100.934 102.239 101.722 100.424 101.524 98.9172C101.325 97.4108 100.479 96.0795 99.9764 94.6432C99.4742 93.2068 99.4042 91.4085 99.9063 90.3691Z" fill="#EB7B67"/>
<path d="M84.9937 99.4543C86.1288 99.4543 87.049 98.3669 87.049 97.0254C87.049 95.6839 86.1288 94.5964 84.9937 94.5964C83.8587 94.5964 82.9385 95.6839 82.9385 97.0254C82.9385 98.3669 83.8587 99.4543 84.9937 99.4543Z" fill="#2B3052"/>
<path d="M105.739 97.0254C106.874 97.0254 107.794 95.9379 107.794 94.5964C107.794 93.255 106.874 92.1675 105.739 92.1675C104.604 92.1675 103.684 93.255 103.684 94.5964C103.684 95.9379 104.604 97.0254 105.739 97.0254Z" fill="#2B3052"/>
<path d="M101.873 107.331C97.8852 107.938 93.763 107.599 89.8043 106.665C88.765 109.31 89.4948 112.58 91.6377 114.443C93.7805 116.305 97.2079 116.55 99.5259 114.91C101.844 113.269 102.731 109.853 101.873 107.331Z" fill="white"/>
</svg>
