<svg width="119" height="130" viewBox="0 0 119 130" fill="none" xmlns="http://www.w3.org/2000/svg">
<path d="M74.8122 85.423H43.4393C34.5153 85.423 27.2812 78.189 27.2812 69.265L31.4272 28.483H86.8243L90.9703 69.265C90.9703 78.189 83.7352 85.423 74.8122 85.423Z" fill="#202020"/>
<path d="M117.715 129.012C119.203 110.61 100.158 101.585 100.158 101.585L71.5773 85.992V50.593H46.8823V85.992L18.2963 101.585C18.2963 101.585 -0.823703 110.018 0.739297 129.012" fill="#F5F5F3"/>
<path d="M117.715 129.012C119.203 110.61 100.158 101.585 100.158 101.585L71.5773 85.992V50.593H46.8823V85.992L18.2963 101.585C18.2963 101.585 -0.823703 110.018 0.739297 129.012" stroke="#202020" stroke-width="1.185" stroke-miterlimit="10" stroke-linejoin="round"/>
<path d="M46.8828 65.918C46.8828 65.918 48.9258 77.003 58.6408 77.204C71.3948 77.468 71.1848 66.411 71.1848 66.411C71.1848 66.411 69.4458 69.663 59.5838 69.675C48.5868 69.689 46.8828 65.918 46.8828 65.918Z" fill="#202020"/>
<path d="M46.8816 129.012V85.992L33.4316 102.714L38.2796 129.012" stroke="#202020" stroke-width="1.185" stroke-miterlimit="10" stroke-linejoin="round"/>
<path d="M71.5762 129.012V85.992L85.0272 102.714L80.1782 129.012" stroke="#202020" stroke-width="1.185" stroke-miterlimit="10" stroke-linejoin="round"/>
<path d="M46.8828 89.803C46.8828 89.803 56.7638 99.076 71.5768 89.803Z" fill="#F5F5F3"/>
<path d="M46.8828 89.803C46.8828 89.803 56.7638 99.076 71.5768 89.803" stroke="#202020" stroke-width="1.185" stroke-miterlimit="10" stroke-linejoin="round"/>
<path d="M46.8828 95.052C46.8828 95.052 56.7638 104.325 71.5768 95.052Z" fill="#F5F5F3"/>
<path d="M46.8828 95.052C46.8828 95.052 56.7638 104.325 71.5768 95.052" stroke="#202020" stroke-width="1.185" stroke-miterlimit="10" stroke-linejoin="round"/>
<path d="M59.1267 56.895C74.4245 56.895 86.8257 44.1745 86.8257 28.483C86.8257 12.7915 74.4245 0.0710144 59.1267 0.0710144C43.829 0.0710144 31.4277 12.7915 31.4277 28.483C31.4277 44.1745 43.829 56.895 59.1267 56.895Z" fill="#202020"/>
<path d="M83.0685 38.849C83.0685 38.849 85.0625 35.677 89.1765 37.237C93.2895 38.797 91.4295 48.787 85.2585 50.06C85.2585 50.06 83.0465 50.542 81.3125 49.028C81.3125 49.028 82.8295 41.65 83.0685 38.849Z" fill="#F5F5F3" stroke="#202020" stroke-width="1.0572" stroke-miterlimit="10" stroke-linejoin="round"/>
<path d="M88.3597 40.762C88.3597 40.762 84.9137 39.612 82.4688 44.686" stroke="#202020" stroke-width="0.5648" stroke-miterlimit="10" stroke-linecap="round" stroke-linejoin="round"/>
<path d="M84.1406 42.204C84.1406 42.204 87.8896 44.209 85.4136 47.223" stroke="#202020" stroke-width="0.5648" stroke-miterlimit="10" stroke-linecap="round" stroke-linejoin="round"/>
<path d="M35.8308 38.849C35.8308 38.849 33.8368 35.677 29.7228 37.237C25.6098 38.797 27.4698 48.787 33.6408 50.06C33.6408 50.06 35.8528 50.542 37.5868 49.028C37.5868 49.028 36.0698 41.65 35.8308 38.849Z" fill="#F5F5F3" stroke="#202020" stroke-width="1.0572" stroke-miterlimit="10" stroke-linejoin="round"/>
<path d="M30.5391 40.762C30.5391 40.762 33.9851 39.612 36.4301 44.686" stroke="#202020" stroke-width="0.5648" stroke-miterlimit="10" stroke-linecap="round" stroke-linejoin="round"/>
<path d="M34.7574 42.204C34.7574 42.204 31.0084 44.209 33.4844 47.223" stroke="#202020" stroke-width="0.5648" stroke-miterlimit="10" stroke-linecap="round" stroke-linejoin="round"/>
<path d="M83.4565 30.241C83.4585 36.643 82.7965 50.037 78.6465 57.986C74.7505 65.45 68.3065 69.467 59.8575 69.706C51.4085 69.945 45.1145 66.857 40.0705 57.17C35.0265 47.483 35.2675 30.36 35.2675 30.36C35.2675 30.36 35.2675 7.48999 59.1005 7.48999C84.2025 7.48999 83.4565 30.241 83.4565 30.241Z" fill="#F5F5F3" stroke="#202020" stroke-width="1.154" stroke-miterlimit="10" stroke-linejoin="round"/>
<path d="M57.6621 40.65V45.003C57.6621 45.243 57.7081 45.472 57.7921 45.683C58.1221 46.51 59.0741 46.906 59.9341 46.677L61.3451 46.302" fill="#F5F5F3"/>
<path d="M57.6621 40.65V45.003C57.6621 45.243 57.7081 45.472 57.7921 45.683C58.1221 46.51 59.0741 46.906 59.9341 46.677L61.3451 46.302" stroke="#202020" stroke-width="0.8524" stroke-miterlimit="10" stroke-linecap="round" stroke-linejoin="round"/>
<path d="M48.1272 38.771C49.1445 38.771 49.9692 37.9463 49.9692 36.929C49.9692 35.9117 49.1445 35.087 48.1272 35.087C47.1099 35.087 46.2852 35.9117 46.2852 36.929C46.2852 37.9463 47.1099 38.771 48.1272 38.771Z" fill="#202020"/>
<path d="M69.2932 38.771C70.3105 38.771 71.1352 37.9463 71.1352 36.929C71.1352 35.9117 70.3105 35.087 69.2932 35.087C68.2759 35.087 67.4512 35.9117 67.4512 36.929C67.4512 37.9463 68.2759 38.771 69.2932 38.771Z" fill="#202020"/>
<path d="M51.4628 38.944L46.8828 41.966" stroke="#202020" stroke-width="0.4919" stroke-miterlimit="10" stroke-linecap="round" stroke-linejoin="round"/>
<path d="M66.3926 38.929L70.4436 41.982" stroke="#202020" stroke-width="0.4919" stroke-miterlimit="10" stroke-linecap="round" stroke-linejoin="round"/>
<path d="M51.2578 50.945C51.2578 50.945 53.4108 52.595 59.0748 52.595C64.2248 52.595 67.4418 50.945 67.4418 50.945" fill="#F5F5F3"/>
<path d="M51.2578 50.945C51.2578 50.945 53.4108 52.595 59.0748 52.595C64.2248 52.595 67.4418 50.945 67.4418 50.945" stroke="#202020" stroke-width="0.8524" stroke-miterlimit="10" stroke-linecap="round" stroke-linejoin="round"/>
<path d="M57.0605 55.832C57.0605 55.832 59.7655 55.657 61.7835 54.782" stroke="#202020" stroke-width="0.4919" stroke-miterlimit="10" stroke-linecap="round" stroke-linejoin="round"/>
<path d="M54.1775 29.428L41.1055 32.805C41.1055 32.805 41.6995 29.138 47.0475 27.806C52.3955 26.473 54.1775 29.428 54.1775 29.428Z" fill="#202020"/>
<path d="M62.4844 29.428L75.5564 32.805C75.5564 32.805 74.9624 29.138 69.6144 27.806C64.2664 26.473 62.4844 29.428 62.4844 29.428Z" fill="#202020"/>
<path d="M82.3953 19.653C82.1513 20.089 81.9413 20.536 81.7513 20.989C80.5153 16.966 78.1683 12.331 73.7423 9.80999C66.8853 5.02899 56.0603 5.083 56.0603 5.083C43.1103 7.414 38.5473 14.836 37.0353 20.897C36.8553 20.476 36.6593 20.06 36.4313 19.654C36.4313 19.654 32.3673 32.58 35.8323 38.85C35.8323 38.85 38.6033 32.763 38.2473 26.344C40.4443 23.328 45.1063 19.468 54.1783 20.955C64.1753 22.594 69.3413 19.335 71.9793 16.027C72.9443 19.69 75.2523 24.004 80.5513 27.136C80.4483 33.254 82.9943 38.849 82.9943 38.849C86.4593 32.579 82.3953 19.653 82.3953 19.653Z" fill="#202020"/>
</svg>
