<svg width="131" height="122" viewBox="0 0 131 122" fill="none" xmlns="http://www.w3.org/2000/svg">
<path d="M129.956 121.606C131.808 102.097 113.016 95.143 113.016 95.143L81.3768 80.098H66.6499H64.3939H49.6669L18.0278 95.143C18.0278 95.143 -0.422123 101.915 1.08788 121.606" fill="#F5F5F3"/>
<path d="M129.956 121.606C131.808 102.097 113.016 95.143 113.016 95.143L81.3768 80.098H66.6499H64.3939H49.6669L18.0278 95.143C18.0278 95.143 -0.422123 101.915 1.08788 121.606" stroke="#202020" stroke-width="1.1434" stroke-miterlimit="10" stroke-linejoin="round"/>
<path d="M81.659 80.097V46.392H49.666V80.097L41.752 83.861C41.752 83.861 42.376 98.823 65.999 99.142C89.621 99.461 91.995 85.147 91.995 85.147L81.659 80.097Z" fill="#F5F5F3" stroke="#202020" stroke-width="1.1434" stroke-miterlimit="10" stroke-linejoin="round"/>
<path d="M49.9062 56.907C49.9062 56.907 52.5863 70.501 64.4173 72.063C78.0333 73.86 81.6603 57.252 81.6603 57.252C81.6603 57.252 75.6433 64.791 66.1283 64.803C55.5153 64.817 49.9062 56.907 49.9062 56.907Z" fill="#202020"/>
<path d="M88.4537 34.905C88.4537 34.905 90.6107 31.474 95.0597 33.162C99.5087 34.849 97.4957 45.653 90.8227 47.03C90.8227 47.03 88.4307 47.552 86.5547 45.914C86.5547 45.914 88.1957 37.933 88.4537 34.905Z" fill="#F5F5F3" stroke="#202020" stroke-width="1.1434" stroke-miterlimit="10" stroke-linejoin="round"/>
<path d="M42.9143 34.905C42.9143 34.905 40.7573 31.474 36.3083 33.162C31.8593 34.849 33.8723 45.653 40.5453 47.03C40.5453 47.03 42.9373 47.552 44.8133 45.914C44.8133 45.914 43.1723 37.933 42.9143 34.905Z" fill="#F5F5F3" stroke="#202020" stroke-width="1.1434" stroke-miterlimit="10" stroke-linejoin="round"/>
<path d="M88.9001 24.652C88.9021 31.165 88.2631 44.792 84.2591 52.879C80.4991 60.473 74.2821 64.56 66.1301 64.803C57.9781 65.046 51.9051 61.904 47.0381 52.049C42.1711 42.193 42.4041 24.773 42.4041 24.773C42.4041 24.773 42.4041 1.50598 65.4001 1.50598C89.6191 1.50598 88.9001 24.652 88.9001 24.652Z" fill="#F5F5F3" stroke="#202020" stroke-width="1.1434" stroke-miterlimit="10" stroke-linejoin="round"/>
</svg>
