<svg width="115" height="133" viewBox="0 0 115 133" fill="none" xmlns="http://www.w3.org/2000/svg">
<path d="M18.9993 104.5L45.9993 89H70C73.8333 91.3333 85 98.1 99 106.5C113 114.9 114.833 127 114 132H0.999317C-0.200683 116.8 12.4993 107.333 18.9993 104.5Z" fill="#F5F5F3"/>
<path d="M101.638 51.012C99.2514 41.955 98.3834 43.575 90.3534 25.561C85.5564 14.799 81.8444 10.473 79.6324 8.73203C79.6324 8.73203 71.5194 0 57.0094 0C43.1544 0 35.1315 8.297 35.1315 8.297C33.0275 9.699 29.0724 13.765 23.8144 25.56C15.7844 43.573 14.9164 41.954 12.5294 51.011C10.1424 60.068 13.1804 76.779 31.8454 80.035C31.8454 80.035 29.4585 77.648 28.5905 73.741C28.5905 73.741 36.4034 84.376 47.0374 83.724H67.1325C77.7664 84.375 85.5794 73.741 85.5794 73.741C84.7114 77.648 82.3244 80.035 82.3244 80.035C100.987 76.78 104.025 60.068 101.638 51.012Z" fill="#202020"/>
<path d="M113.922 132.243C115.41 113.842 96.3654 104.816 96.3654 104.816L69.8574 89.223" stroke="#202020" stroke-width="1.185" stroke-miterlimit="10" stroke-linejoin="round"/>
<path d="M45.1619 89.223L18.6479 104.816C18.6479 104.816 -0.47214 113.249 1.09086 132.243" stroke="#202020" stroke-width="1.185" stroke-miterlimit="10" stroke-linejoin="round"/>
<path d="M45.1621 89.794V53.825H69.8561V89.794" fill="#F5F5F3"/>
<path d="M45.1621 89.794V53.825H69.8561V89.794" stroke="#202020" stroke-width="1.0227" stroke-miterlimit="10" stroke-linejoin="round"/>
<path d="M45.1621 69.149C45.1621 69.149 47.2051 80.234 56.9201 80.435C69.6741 80.699 69.4651 69.642 69.4651 69.642C69.4651 69.642 67.7261 72.894 57.8641 72.906C46.8651 72.92 45.1621 69.149 45.1621 69.149Z" fill="#202020"/>
<path d="M45.1612 89.223L31.2402 97.41C31.2402 97.41 52.4542 117.598 83.4782 97.236L69.8552 89.223" stroke="#202020" stroke-width="1.185" stroke-miterlimit="10" stroke-linejoin="round"/>
<path d="M81.3459 42.081C81.3459 42.081 83.3398 38.909 87.4538 40.469C91.5678 42.029 89.7068 52.019 83.5358 53.292C83.5358 53.292 81.3238 53.774 79.5898 52.26C79.5898 52.26 81.1069 44.881 81.3459 42.081Z" fill="#F5F5F3" stroke="#202020" stroke-width="1.0572" stroke-miterlimit="10" stroke-linejoin="round"/>
<path d="M86.6371 43.993C86.6371 43.993 83.1911 42.843 80.7461 47.917" stroke="#202020" stroke-width="0.5648" stroke-miterlimit="10" stroke-linecap="round" stroke-linejoin="round"/>
<path d="M82.4199 45.435C82.4199 45.435 86.1689 47.44 83.6929 50.454" stroke="#202020" stroke-width="0.5648" stroke-miterlimit="10" stroke-linecap="round" stroke-linejoin="round"/>
<path d="M34.1101 42.081C34.1101 42.081 32.1161 38.909 28.0021 40.469C23.8891 42.029 25.7491 52.019 31.9201 53.292C31.9201 53.292 34.1321 53.774 35.8661 52.26C35.8661 52.26 34.3491 44.881 34.1101 42.081Z" fill="#F5F5F3" stroke="#202020" stroke-width="1.0572" stroke-miterlimit="10" stroke-linejoin="round"/>
<path d="M28.8184 43.993C28.8184 43.993 32.2644 42.843 34.7094 47.917" stroke="#202020" stroke-width="0.5648" stroke-miterlimit="10" stroke-linecap="round" stroke-linejoin="round"/>
<path d="M33.0367 45.435C33.0367 45.435 29.2877 47.44 31.7637 50.454" stroke="#202020" stroke-width="0.5648" stroke-miterlimit="10" stroke-linecap="round" stroke-linejoin="round"/>
<path d="M81.7358 33.472C81.7378 39.874 81.0758 53.268 76.9258 61.217C73.0298 68.681 66.5858 72.698 58.1368 72.937C49.6878 73.176 43.3938 70.088 38.3498 60.401C33.3058 50.714 33.5468 33.591 33.5468 33.591C33.5468 33.591 33.5468 10.721 57.3798 10.721C82.4808 10.721 81.7358 33.472 81.7358 33.472Z" fill="#F5F5F3" stroke="#202020" stroke-width="1.154" stroke-miterlimit="10" stroke-linejoin="round"/>
<path d="M55.9414 43.881V48.234C55.9414 48.474 55.9874 48.703 56.0714 48.914C56.4024 49.741 57.3534 50.137 58.2134 49.908L59.6244 49.533" fill="#F5F5F3"/>
<path d="M55.9414 43.881V48.234C55.9414 48.474 55.9874 48.703 56.0714 48.914C56.4024 49.741 57.3534 50.137 58.2134 49.908L59.6244 49.533" stroke="#202020" stroke-width="0.8524" stroke-miterlimit="10" stroke-linecap="round" stroke-linejoin="round"/>
<path d="M48.2475 40.16C48.2475 41.177 47.4224 42.001 46.4054 42.001C45.3884 42.001 44.5645 41.177 44.5645 40.16C44.5645 39.143 45.3894 38.318 46.4054 38.318C47.4224 38.318 48.2475 39.143 48.2475 40.16Z" fill="#202020"/>
<path d="M69.4135 40.16C69.4135 41.177 68.5885 42.001 67.5725 42.001C66.5555 42.001 65.7305 41.177 65.7305 40.16C65.7305 39.143 66.5555 38.318 67.5725 38.318C68.5885 38.318 69.4135 39.143 69.4135 40.16Z" fill="#202020"/>
<path d="M49.7421 42.176L45.1621 45.198" stroke="#202020" stroke-width="0.4919" stroke-miterlimit="10" stroke-linecap="round" stroke-linejoin="round"/>
<path d="M64.6719 42.16L68.7239 45.213" stroke="#202020" stroke-width="0.4919" stroke-miterlimit="10" stroke-linecap="round" stroke-linejoin="round"/>
<path d="M49.5371 54.176C49.5371 54.176 51.6901 55.826 57.3541 55.826C62.5041 55.826 65.7211 54.176 65.7211 54.176" fill="#F5F5F3"/>
<path d="M49.5371 54.176C49.5371 54.176 51.6901 55.826 57.3541 55.826C62.5041 55.826 65.7211 54.176 65.7211 54.176" stroke="#202020" stroke-width="0.8524" stroke-miterlimit="10" stroke-linecap="round" stroke-linejoin="round"/>
<path d="M55.3398 59.064C55.3398 59.064 58.0448 58.889 60.0628 58.013" stroke="#202020" stroke-width="0.4919" stroke-miterlimit="10" stroke-linecap="round" stroke-linejoin="round"/>
<path d="M52.4568 32.659L39.3848 36.036C39.3848 36.036 39.9788 32.369 45.3268 31.037C50.6738 29.704 52.4568 32.659 52.4568 32.659Z" fill="#202020"/>
<path d="M60.7637 32.659L73.8357 36.036C73.8357 36.036 73.2417 32.369 67.8937 31.037C62.5467 29.704 60.7637 32.659 60.7637 32.659Z" fill="#202020"/>
<path d="M88.3591 28.913C88.3591 28.913 81.8181 4.313 57.3261 2.846C32.8341 1.379 30.2871 28.913 30.2871 28.913H33.3041C32.5791 33.136 32.1971 38.621 34.1091 42.081C34.1091 42.081 37.0731 35.569 36.4751 28.913H78.9061C78.3081 35.569 81.2721 42.081 81.2721 42.081C83.1841 38.621 82.8021 33.136 82.0771 28.913H88.3591Z" fill="#202020"/>
</svg>
