<svg width="126" height="135" viewBox="0 0 126 135" fill="none" xmlns="http://www.w3.org/2000/svg">
<path d="M38.6316 53.7152C40.2339 61.6458 43.9726 67.5938 45.6417 69.5764C59.6626 85.4376 73.6817 75.0287 77.6874 69.5764C80.8921 65.2146 83.0285 58.5066 83.6961 55.6979L84.6976 54.7065C86.3667 55.3674 90.2056 55.3013 92.2084 49.7499C94.2113 44.1985 92.3754 40.828 91.207 39.8367H88.2027L85.699 40.828L84.6976 28.5C84.6976 22.0635 81.5996 7.00004 62.5996 6C42.0996 4.92101 33.9575 28.106 36.6281 40.828L33.1236 38.8454C30.9538 39.0106 27.3152 41.1254 30.1193 48.2629C32.9233 55.4005 36.9625 54.8718 38.6316 53.7152Z" fill="#F6F6F4"/>
<path d="M124.497 134L0.999172 133C-0.499722 123 17.7125 99.1215 28.0946 97.5C37.5946 96.0164 46.0966 91.5 45.0966 86.5V69C57.6731 83.1086 74.5066 71.9987 78.0967 69V89C81.9663 93.6537 91.6925 94.3245 97.497 97.5C120.884 110.294 125.181 127.17 124.497 134Z" fill="#F6F6F4"/>
<path d="M85.8388 32.2796C85.8388 32.2796 88.831 76.8181 61.905 76.8181C34.9799 76.8181 37.141 32.2796 37.141 32.2796C37.141 32.2796 35.8404 5.79266 62.8175 5.79266C87.9247 5.79266 85.8388 32.2796 85.8388 32.2796Z" stroke="#1A1A1A" stroke-width="1.524" stroke-miterlimit="10"/>
<path d="M85.829 41.0683C85.829 41.0683 88.3498 37.4242 91.34 39.192C94.3312 40.9588 93.379 47.4835 91.34 50.747C89.301 54.0093 86.0094 55.6218 84.1895 53.1166" stroke="#1A1A1A" stroke-width="1.524" stroke-miterlimit="10"/>
<path d="M91.0133 43.2704C91.0133 43.2704 87.6435 42.1461 85.252 47.1085" stroke="#1A1A1A" stroke-width="0.762667" stroke-miterlimit="10" stroke-linecap="round" stroke-linejoin="round"/>
<path d="M86.8867 44.6805C86.8867 44.6805 90.5538 46.6423 88.131 49.5897" stroke="#1A1A1A" stroke-width="0.762667" stroke-miterlimit="10" stroke-linecap="round" stroke-linejoin="round"/>
<path d="M37.3197 41.0683C37.3197 41.0683 34.7989 37.4242 31.8088 39.192C28.8186 40.9588 29.7698 47.4835 31.8088 50.747C33.8477 54.0093 37.1393 55.6218 38.9603 53.1166" stroke="#1A1A1A" stroke-width="1.524" stroke-miterlimit="10"/>
<path d="M32.1367 43.2704C32.1367 43.2704 35.5065 42.1461 37.8991 47.1085" stroke="#1A1A1A" stroke-width="0.762667" stroke-miterlimit="10" stroke-linecap="round" stroke-linejoin="round"/>
<path d="M36.2614 44.6805C36.2614 44.6805 32.5944 46.6423 35.0172 49.5897" stroke="#1A1A1A" stroke-width="0.762667" stroke-miterlimit="10" stroke-linecap="round" stroke-linejoin="round"/>
<path d="M60.3164 40.2295V49.5671C60.3164 49.8571 60.3727 50.1355 60.4749 50.3911C60.8754 51.3934 62.0289 51.8731 63.0719 51.5957L65.3143 50.9991" stroke="#1A1A1A" stroke-width="1.44267" stroke-miterlimit="10" stroke-linecap="round" stroke-linejoin="round"/>
<path d="M58.1675 25.4239C57.9725 25.7159 56.8023 29.4195 56.8023 29.4195H43.9395L48.3063 26.9435C49.4129 26.3897 50.6154 26.0528 51.8492 25.9495L58.1675 25.4239Z" fill="#1A1A1A"/>
<path d="M66.2754 25.4239C66.4704 25.7159 67.6406 29.4195 67.6406 29.4195H80.5034L76.1366 26.9435C75.03 26.3897 73.8275 26.0528 72.5936 25.9495L66.2754 25.4239Z" fill="#1A1A1A"/>
<path d="M53.9415 38.2C53.9415 39.4328 52.9423 40.433 51.7085 40.433C50.4757 40.433 49.4766 39.4328 49.4766 38.2C49.4766 36.9673 50.4757 35.9671 51.7085 35.9671C52.9423 35.9671 53.9415 36.9673 53.9415 38.2Z" fill="#1A1A1A"/>
<path d="M74.7462 38.2C74.7462 39.4328 73.747 40.433 72.5132 40.433C71.2804 40.433 70.2812 39.4328 70.2812 38.2C70.2812 36.9673 71.2804 35.9671 72.5132 35.9671C73.747 35.9671 74.7462 36.9673 74.7462 38.2Z" fill="#1A1A1A"/>
<path d="M55.7539 40.4327L50.2012 44.0966" stroke="#1A1A1A" stroke-width="0.762667" stroke-miterlimit="10" stroke-linecap="round" stroke-linejoin="round"/>
<path d="M68.998 40.8356L73.9093 44.5371" stroke="#1A1A1A" stroke-width="0.762667" stroke-miterlimit="10" stroke-linecap="round" stroke-linejoin="round"/>
<path d="M54.5488 56.1892C54.5488 56.1892 58.2169 58.7497 62.661 58.7497C67.106 58.7497 70.1765 56.1892 70.1765 56.1892" stroke="#1A1A1A" stroke-width="1.44267" stroke-miterlimit="10" stroke-linecap="round" stroke-linejoin="round"/>
<path d="M58.8758 38.7827C58.8758 43.9537 54.6831 48.1464 49.5121 48.1464C44.3411 48.1464 40.1484 43.9537 40.1484 38.7827C40.1484 33.6117 44.3411 29.419 49.5121 29.419C54.6831 29.419 58.8758 33.6117 58.8758 38.7827Z" stroke="#1A1A1A" stroke-width="0.713333" stroke-miterlimit="10" stroke-linecap="round" stroke-linejoin="round"/>
<path d="M81.8758 38.7827C81.8758 43.9537 77.6831 48.1464 72.5121 48.1464C67.3401 48.1464 63.1484 43.9537 63.1484 38.7827C63.1484 33.6117 67.3401 29.419 72.5121 29.419C77.6831 29.419 81.8758 33.6117 81.8758 38.7827Z" stroke="#1A1A1A" stroke-width="0.713333" stroke-miterlimit="10" stroke-linecap="round" stroke-linejoin="round"/>
<path d="M58.875 38.7827C58.875 38.7827 61.0934 36.7124 63.1511 38.7827" stroke="#1A1A1A" stroke-width="0.713333" stroke-miterlimit="10" stroke-linecap="round" stroke-linejoin="round"/>
<path d="M40.5003 41.3051L37.1973 38.7082" stroke="#1A1A1A" stroke-width="0.713333" stroke-miterlimit="10" stroke-linecap="round" stroke-linejoin="round"/>
<path d="M81.541 41.3051L85.9371 37.8488" stroke="#1A1A1A" stroke-width="0.713333" stroke-miterlimit="10" stroke-linecap="round" stroke-linejoin="round"/>
<path d="M61.4787 0.409613C28.6798 0.409613 31.9922 22.731 36.9807 40.4331C36.9807 40.4331 41.4185 32.1802 40.5351 26.3574C59.1675 24.236 75.8737 13.9691 75.9571 13.918C77.2451 24.0931 86.0508 39.2014 86.0508 39.2014C91.0132 22.731 96.1707 0.409613 61.4787 0.409613Z" fill="#1A1A1A"/>
<path d="M124.631 134.225C124.631 110.91 97.6729 97.2727 97.6729 97.2727H65.3151H60.3162H27.9584C27.9584 97.2727 1 110.91 1 134.225" stroke="#1A1A1A" stroke-width="1.524" stroke-miterlimit="10" stroke-linecap="round" stroke-linejoin="round"/>
<path d="M115.983 112.145H9.64648L15.4756 106.094H110.154L115.983 112.145Z" fill="black"/>
<path d="M123.58 126.344H1.83008L4.65128 120.293H120.716L123.58 126.344Z" fill="black"/>
<path d="M45.4484 69.1228V87.845C45.4484 87.845 41.4277 94.9381 27.959 97.2733H96.7379C96.7379 97.2733 79.4895 93.6803 78.2358 87.845V69.1228" stroke="#1A1A1A" stroke-width="1.524" stroke-miterlimit="10" stroke-linecap="round" stroke-linejoin="round"/>
<path d="M45.8105 69.6274C45.8105 69.6274 50.6499 79.2351 58.4794 83.6969C64.1656 86.9363 71.5184 85.6795 75.3774 80.3949C77.3016 77.7583 78.768 73.8785 78.768 68.1735C78.768 68.1735 72.4978 76.4295 63.1497 76.8175C53.8027 77.2055 45.8105 69.6274 45.8105 69.6274Z" fill="#1A1A1A"/>
</svg>
