<svg width="131" height="131" viewBox="0 0 131 131" fill="none" xmlns="http://www.w3.org/2000/svg">
<path d="M112.95 103.18L81.3114 88.1349H66.5844H64.3284H49.6024L17.9634 103.18C17.9634 103.18 -0.486577 109.952 1.02342 129.644H64.3294H66.5854H129.891C131.743 110.135 112.95 103.18 112.95 103.18Z" fill="#F5F5F3" stroke="#202020" stroke-width="1.1434" stroke-miterlimit="10" stroke-linejoin="round"/>
<path d="M1.83984 120.57H129.178" stroke="#202020" stroke-width="1.1434" stroke-miterlimit="10" stroke-linejoin="round"/>
<path d="M5.77148 112.821H125.433" stroke="#202020" stroke-width="1.1434" stroke-miterlimit="10" stroke-linejoin="round"/>
<path d="M14.1953 105.071H53.2113" stroke="#202020" stroke-width="1.1434" stroke-miterlimit="10" stroke-linejoin="round"/>
<path d="M29.3105 97.874H43.8335" stroke="#202020" stroke-width="1.1434" stroke-miterlimit="10" stroke-linejoin="round"/>
<path d="M90.0273 97.874H102.263" stroke="#202020" stroke-width="1.1434" stroke-miterlimit="10" stroke-linejoin="round"/>
<path d="M80.0215 105.105L116.323 105.071" stroke="#202020" stroke-width="1.1434" stroke-miterlimit="10" stroke-linejoin="round"/>
<path d="M81.5945 88.135V54.43H49.6015V88.135L41.6875 91.899C41.6875 91.899 42.3115 106.861 65.9345 107.18C89.5565 107.499 91.9305 93.185 91.9305 93.185L81.5945 88.135Z" fill="#F5F5F3" stroke="#202020" stroke-width="1.1434" stroke-miterlimit="10" stroke-linejoin="round"/>
<path d="M49.8418 64.944C49.8418 64.944 52.5208 78.539 64.3528 80.1C77.9688 81.898 81.5958 65.289 81.5958 65.289C81.5958 65.289 75.5788 72.828 66.0638 72.84C55.4498 72.854 49.8418 64.944 49.8418 64.944Z" fill="#202020"/>
<path d="M52.9668 7.70397C52.9668 7.70397 57.6758 -2.35603 74.3238 1.36197C86.0738 3.98597 90.6198 12.227 92.2788 16.85C92.9138 18.621 93.0838 20.518 92.7678 22.373L89.0458 41.53L71.2888 14.484L54.7428 15.796L52.9668 7.70397Z" fill="#202020"/>
<path d="M88.3873 42.942C88.3873 42.942 90.5443 39.511 94.9933 41.199C99.4423 42.886 97.4293 53.691 90.7563 55.067C90.7563 55.067 88.3643 55.589 86.4883 53.951C86.4883 53.951 88.1293 45.971 88.3873 42.942Z" fill="#F5F5F3" stroke="#202020" stroke-width="1.1434" stroke-miterlimit="10" stroke-linejoin="round"/>
<path d="M94.1103 45.01C94.1103 45.01 90.3833 43.767 87.7383 49.254" stroke="#202020" stroke-width="0.6108" stroke-miterlimit="10" stroke-linecap="round" stroke-linejoin="round"/>
<path d="M89.5488 46.57C89.5488 46.57 93.6038 48.739 90.9258 51.998" stroke="#202020" stroke-width="0.6108" stroke-miterlimit="10" stroke-linecap="round" stroke-linejoin="round"/>
<path d="M42.8479 42.942C42.8479 42.942 40.6909 39.511 36.2419 41.199C31.7929 42.886 33.8059 53.691 40.4789 55.067C40.4789 55.067 42.8709 55.589 44.7469 53.951C44.7469 53.951 43.1059 45.971 42.8479 42.942Z" fill="#F5F5F3" stroke="#202020" stroke-width="1.1434" stroke-miterlimit="10" stroke-linejoin="round"/>
<path d="M37.125 45.01C37.125 45.01 40.852 43.767 43.497 49.254" stroke="#202020" stroke-width="0.6108" stroke-miterlimit="10" stroke-linecap="round" stroke-linejoin="round"/>
<path d="M41.6877 46.57C41.6877 46.57 37.6327 48.739 40.3117 51.998" stroke="#202020" stroke-width="0.6108" stroke-miterlimit="10" stroke-linecap="round" stroke-linejoin="round"/>
<path d="M88.8337 32.6899C88.8357 39.2029 88.1967 52.8299 84.1927 60.9169C80.4337 68.5109 74.2157 72.5979 66.0637 72.8409C57.9117 73.0839 51.8387 69.9419 46.9717 60.0869C42.1047 50.2309 42.3377 32.8109 42.3377 32.8109C42.3377 32.8109 42.3377 9.54395 65.3337 9.54395C89.5537 9.54395 88.8337 32.6899 88.8337 32.6899Z" fill="#F5F5F3" stroke="#202020" stroke-width="1.1434" stroke-miterlimit="10" stroke-linejoin="round"/>
<path d="M63.9453 35.2189V50.0349C63.9453 50.2659 63.9903 50.4879 64.0713 50.6909C64.3903 51.4889 65.3083 51.8709 66.1383 51.6499L67.9233 51.1749" fill="#F5F5F3"/>
<path d="M63.9453 35.2189V50.0349C63.9453 50.2659 63.9903 50.4879 64.0713 50.6909C64.3903 51.4889 65.3083 51.8709 66.1383 51.6499L67.9233 51.1749" stroke="#202020" stroke-width="0.8224" stroke-miterlimit="10" stroke-linecap="round" stroke-linejoin="round"/>
<path d="M54.7438 43.022C55.7252 43.022 56.5208 42.2264 56.5208 41.2449C56.5208 40.2635 55.7252 39.468 54.7438 39.468C53.7624 39.468 52.9668 40.2635 52.9668 41.2449C52.9668 42.2264 53.7624 43.022 54.7438 43.022Z" fill="#202020"/>
<path d="M76.9446 41.2449C76.9446 42.2259 76.1486 43.022 75.1676 43.022C74.1866 43.022 73.3906 42.2259 73.3906 41.2449C73.3906 40.2639 74.1866 39.468 75.1676 39.468C76.1496 39.468 76.9446 40.2629 76.9446 41.2449Z" fill="#202020"/>
<path d="M57.9639 43.189L53.5449 46.105" stroke="#202020" stroke-width="0.4746" stroke-miterlimit="10" stroke-linecap="round" stroke-linejoin="round"/>
<path d="M72.3691 43.174L76.2791 46.1199" stroke="#202020" stroke-width="0.4746" stroke-miterlimit="10" stroke-linecap="round" stroke-linejoin="round"/>
<path d="M57.7656 54.7679C57.7656 54.7679 59.8436 56.3599 65.3076 56.3599C70.2776 56.3599 73.3806 54.7679 73.3806 54.7679" fill="#F5F5F3"/>
<path d="M57.7656 54.7679C57.7656 54.7679 59.8436 56.3599 65.3076 56.3599C70.2776 56.3599 73.3806 54.7679 73.3806 54.7679" stroke="#202020" stroke-width="0.8224" stroke-miterlimit="10" stroke-linecap="round" stroke-linejoin="round"/>
<path d="M63.3652 59.484C63.3652 59.484 65.9752 59.315 67.9222 58.47" stroke="#202020" stroke-width="0.4746" stroke-miterlimit="10" stroke-linecap="round" stroke-linejoin="round"/>
<path d="M69.3281 33.629L83.4031 37.265C83.4031 37.265 82.7631 33.317 77.0051 31.882C71.2471 30.448 69.3281 33.629 69.3281 33.629Z" fill="#202020"/>
<path d="M60.5828 33.629L46.5078 37.265C46.5078 37.265 47.1478 33.317 52.9058 31.882C58.6628 30.448 60.5828 33.629 60.5828 33.629Z" fill="#202020"/>
<path d="M42.3341 42.323L38.7161 22.503C38.4841 20.838 38.7141 19.142 39.4171 17.615C41.1741 13.797 46.2431 5.34598 52.9661 7.70398L54.7431 15.796C54.7431 15.796 46.2071 17.519 42.7831 28.686L42.3341 42.323Z" fill="#202020"/>
<path d="M90.6945 29.174C90.6945 29.174 88.1015 9.45699 75.4695 8.06299C62.8375 6.66899 52.2815 12.246 52.2815 12.246L49.6435 14.206C49.6435 14.206 50.0765 14.726 50.9215 15.561C40.8525 16.523 42.3345 31.512 42.3345 31.512C48.4355 26.867 52.0365 21.116 53.6745 18.021C59.5685 22.818 71.9205 30.305 90.6945 29.174Z" fill="#202020"/>
</svg>
