<svg width="125" height="142" viewBox="0 0 125 142" fill="none" xmlns="http://www.w3.org/2000/svg">
<path d="M39.5006 59.5C41.1006 67.5 44.8339 73.5 46.5006 75.5C60.5012 91.5 74.5 81 78.5 75.5C81.7 71.1 83.8333 64.3333 84.5 61.5L85.5 60.5C87.1667 61.1667 91 61.1 93 55.5C95 49.9 93.1667 46.5 92 45.5H89L86.5 46.5L87.5 34C91.1667 29.3333 91.6 18.8 64 14C36.4 9.20001 34.8333 33.6667 37.5 46.5L34.0006 44.5C31.8339 44.6667 28.2006 46.8 31.0006 54C33.8006 61.2 37.8339 60.6667 39.5006 59.5Z" fill="#F6F6F4"/>
<path d="M123.933 141H1C1.84823 121.163 20.3721 107.268 30.5 103.5C39.3721 100.199 44.2328 96.8618 46 94.3821V76.5C59 90.5 75.789 80.4756 79.5 77.5V94.3821C83.5 99 90.5 101.15 96.5 104.301C120.675 116.997 124.64 134.222 123.933 141Z" fill="#F6F6F4"/>
<path d="M55 62.7425C55 62.7425 58.667 65.303 63.1121 65.303C67.5572 65.303 70.6277 62.7425 70.6277 62.7425" stroke="#1A1A1A" stroke-width="1.44267" stroke-miterlimit="10" stroke-linecap="round" stroke-linejoin="round"/>
<path d="M37.7125 47.0025C37.7125 47.0025 35.1791 43.3406 32.1733 45.1168C29.1686 46.893 30.125 53.4511 32.1733 56.7291C34.2227 60.0082 37.53 61.6279 39.3603 59.1102" stroke="#1A1A1A" stroke-width="1.532" stroke-miterlimit="10"/>
<path d="M32.502 49.2161C32.502 49.2161 35.8884 48.0856 38.2925 53.073" stroke="#1A1A1A" stroke-width="0.766667" stroke-miterlimit="10" stroke-linecap="round" stroke-linejoin="round"/>
<path d="M36.6466 50.6328C36.6466 50.6328 32.9618 52.604 35.396 55.566" stroke="#1A1A1A" stroke-width="0.766667" stroke-miterlimit="10" stroke-linecap="round" stroke-linejoin="round"/>
<path d="M86.4706 38.7698C86.4706 38.7698 89.4774 83.5294 62.4179 83.5294C35.3594 83.5294 37.5298 38.7698 37.5298 38.7698C37.5298 38.7698 36.224 12.1504 63.3336 12.1504C88.568 12.1504 86.4706 38.7698 86.4706 38.7698Z" stroke="#1A1A1A" stroke-width="1.532" stroke-miterlimit="10"/>
<path d="M60.8262 44.6731V56.1425C60.8262 56.4345 60.8825 56.7141 60.9847 56.9706C61.3873 57.9781 62.546 58.46 63.5942 58.1815L65.848 57.5818" stroke="#1A1A1A" stroke-width="1.45067" stroke-miterlimit="10" stroke-linecap="round" stroke-linejoin="round"/>
<path d="M57.3583 33.7326C57.1967 34.0466 56.4332 37.8742 56.4332 37.8742L43.584 39.2853L47.6745 36.3338C48.7195 35.659 49.8835 35.1896 51.1048 34.9518L57.3583 33.7326Z" fill="#1A1A1A"/>
<path d="M66.1836 33.7002C66.3442 34.0141 67.0889 37.8459 67.0889 37.8459L79.9319 39.3186L75.8549 36.3472C74.813 35.6672 73.6512 35.1937 72.432 34.9497L66.1836 33.7002Z" fill="#1A1A1A"/>
<path d="M54.4165 44.7194C54.4165 45.9584 53.4121 46.9628 52.1731 46.9628C50.9341 46.9628 49.9297 45.9584 49.9297 44.7194C49.9297 43.4803 50.9341 42.476 52.1731 42.476C53.4121 42.476 54.4165 43.4803 54.4165 44.7194Z" fill="#1A1A1A"/>
<path d="M75.3218 44.7194C75.3218 45.9584 74.3164 46.9628 73.0784 46.9628C71.8384 46.9628 70.834 45.9584 70.834 44.7194C70.834 43.4803 71.8384 42.476 73.0784 42.476C74.3164 42.476 75.3218 43.4803 75.3218 44.7194Z" fill="#1A1A1A"/>
<path d="M56.238 46.9633L50.6582 50.6449" stroke="#1A1A1A" stroke-width="0.766667" stroke-miterlimit="10" stroke-linecap="round" stroke-linejoin="round"/>
<path d="M69.5449 47.368L74.4802 51.0872" stroke="#1A1A1A" stroke-width="0.766667" stroke-miterlimit="10" stroke-linecap="round" stroke-linejoin="round"/>
<path d="M86.4662 47.6018C86.4662 47.6018 88.9996 43.94 92.0054 45.7162C95.0101 47.4923 94.0538 54.0494 92.0054 57.3285C89.956 60.6075 86.6477 62.2272 84.8184 59.7095" stroke="#1A1A1A" stroke-width="1.532" stroke-miterlimit="10"/>
<path d="M91.6714 49.8151C91.6714 49.8151 88.2849 48.6856 85.8809 53.6719" stroke="#1A1A1A" stroke-width="0.766667" stroke-miterlimit="10" stroke-linecap="round" stroke-linejoin="round"/>
<path d="M87.5273 51.2323C87.5273 51.2323 91.2121 53.2035 88.7779 56.1655" stroke="#1A1A1A" stroke-width="0.766667" stroke-miterlimit="10" stroke-linecap="round" stroke-linejoin="round"/>
<path d="M67.5064 0.444671C52.2959 0.672036 46.8454 10.4414 46.6775 10.7491C46.6619 10.7543 46.6431 10.7595 46.6264 10.7647C46.0392 10.5509 37.633 7.67446 33.5456 16.2424C30.0444 23.5848 34.1213 37.1255 35.6409 41.6029C36.1165 43.6273 36.6349 45.6308 37.1407 47.5739L39.4258 31.455C39.6939 29.5703 40.3415 27.7691 41.3115 26.1473C42.5297 24.1532 47.3805 17.3448 54.4152 22.0589C62.105 27.2112 71.0984 35.0542 84.0613 28.1039L86.2109 48.8046C87.4217 45.0384 88.4699 41.2734 89.1572 37.6418C98.7848 8.78104 80.2347 0.254853 67.5064 0.444671Z" fill="#1A1A1A"/>
<path d="M45.8789 75.7907V94.6109" stroke="#1A1A1A" stroke-width="1.532" stroke-miterlimit="10" stroke-linecap="round" stroke-linejoin="round"/>
<path d="M79.3301 74.7946V94.6108" stroke="#1A1A1A" stroke-width="1.532" stroke-miterlimit="10" stroke-linecap="round" stroke-linejoin="round"/>
<path d="M46.373 76.2486C46.373 76.2486 51.2134 85.8564 59.0419 90.3181C64.7281 93.5576 72.0809 92.3008 75.9399 87.0161C77.8641 84.3795 79.3305 80.4997 79.3305 74.7947C79.3305 74.7947 73.0613 83.0518 63.7133 83.4398C54.3652 83.8268 46.373 76.2486 46.373 76.2486Z" fill="#1A1A1A"/>
<path d="M1.21289 141.222C1.21289 126.937 11.2827 116.267 19.1434 110.113C23.2621 106.89 27.922 104.457 32.8927 102.837C37.1564 101.446 43.2326 98.8243 45.8807 94.6107C45.8807 94.6107 60.4216 109.163 79.3326 94.6107C79.3326 94.6107 88.059 101.446 92.3216 102.837C97.2923 104.457 101.953 106.89 106.071 110.113C113.932 116.267 124.001 126.937 124.001 141.222" stroke="#1A1A1A" stroke-width="1.532" stroke-miterlimit="10" stroke-linecap="round" stroke-linejoin="round"/>
<path d="M39.4121 100.098C39.4121 100.098 57.9882 123.684 87.5259 100.379" stroke="#1A1A1A" stroke-width="1.532" stroke-miterlimit="10" stroke-linecap="round" stroke-linejoin="round"/>
<path d="M12.0215 117.133H113.321" stroke="#1A1A1A" stroke-width="1.532" stroke-miterlimit="10" stroke-linecap="round" stroke-linejoin="round"/>
<path d="M1.92578 137.393H123.414" stroke="#1A1A1A" stroke-width="1.532" stroke-miterlimit="10" stroke-linecap="round" stroke-linejoin="round"/>
<path d="M5.04297 127.263H120.668" stroke="#1A1A1A" stroke-width="1.532" stroke-miterlimit="10" stroke-linecap="round" stroke-linejoin="round"/>
</svg>
