<svg width="168" height="168" viewBox="0 0 168 168" fill="none" xmlns="http://www.w3.org/2000/svg">
<path d="M126 126C149.196 102.804 149.196 65.196 126 42C102.804 18.804 65.196 18.804 42 42C18.804 65.196 18.804 102.804 42 126C65.196 149.196 102.804 149.196 126 126Z" fill="white"/>
<path d="M135.49 83.9997C135.49 93.08 133.14 101.609 129.012 109.013C120.224 124.81 103.358 135.491 83.9984 135.491C65.0203 135.491 48.44 125.219 39.5096 109.933C35.0613 102.317 32.5137 93.4615 32.5137 83.9997C32.5137 55.5665 55.5653 32.5149 83.9984 32.5149C112.438 32.5149 135.49 55.5665 135.49 83.9997Z" fill="#014B73"/>
<path opacity="0.3" d="M129.013 109.013C120.226 124.81 103.359 135.491 83.9996 135.491C65.0215 135.491 48.4412 125.219 39.5107 109.933C53.0802 99.1222 96.3184 85.2489 129.013 109.013Z" fill="#0464AC"/>
<path d="M27.1612 83.4424L30.5127 100.599C30.7531 101.831 32.4377 102.018 32.9432 100.869L40.0439 84.7442C40.5494 83.597 39.2762 82.4812 38.2054 83.1331L23.2988 92.1992C22.2246 92.8524 22.636 94.5009 23.8908 94.5731L41.6189 95.5936C42.8505 95.6644 43.4608 94.1242 42.5153 93.332L29.2415 82.2149C28.3158 81.4397 26.9296 82.2578 27.1612 83.4424Z" fill="#FFAA47"/>
<path d="M135.881 74.5977L123.687 87.1229C122.811 88.0221 123.616 89.5132 124.848 89.2748L142.147 85.9294C143.378 85.691 143.57 84.0098 142.424 83.5003L126.484 76.409C125.335 75.8981 124.214 77.1747 124.869 78.2476L134.126 93.4015C134.769 94.4546 136.383 94.0793 136.496 92.8504L138.076 75.6086C138.185 74.4056 136.723 73.7326 135.881 74.5977Z" fill="#FFAA47"/>
<path d="M38.7247 56.3622L32.9597 65.1762C32.4665 65.9303 33.239 66.871 34.0748 66.5338L43.8888 62.5706C44.724 62.2334 44.6279 61.0216 43.7505 60.8199L33.5442 58.4753C32.6641 58.2729 32.0496 59.3274 32.6593 59.9936L39.8739 67.8771C40.4726 68.5311 41.5585 68.044 41.4685 67.1626L40.4113 56.773C40.3234 55.9099 39.1995 55.636 38.7247 56.3622Z" fill="#FFAA47"/>
<path d="M94.7318 27.9038L88.9669 36.7178C88.4737 37.4718 89.2461 38.4126 90.082 38.0754L99.896 34.1122C100.731 33.775 100.635 32.5632 99.757 32.3615L89.5513 30.0175C88.6712 29.8152 88.0561 30.8697 88.6664 31.5359L95.881 39.4194C96.4791 40.0733 97.5656 39.5863 97.4757 38.7048L96.4184 28.3152C96.3299 27.4515 95.2066 27.1776 94.7318 27.9038Z" fill="#FFAA47"/>
<path d="M101.373 116.517C90.4231 112.778 92.5596 115.635 88.0195 116.517C84.8575 117.126 86.0486 117.35 82.9453 116.517C64.988 111.693 73.2038 128.199 59.7118 125.063C34.748 119.26 39.3176 84.5746 47.4684 62.1306C50.0643 54.9733 54.8287 48.4089 61.4678 43.9863C66.7397 40.4825 73.1973 38.3353 80.6857 38.3353C90.8929 36.9519 107.648 39.6813 114.843 49.6748C121.098 58.3597 121.68 69.4215 122.054 79.8636C122.294 86.5723 122.535 93.2756 122.775 99.9895C123.234 112.787 122.54 108.793 122.999 121.591C123.143 125.885 102.815 112.425 101.373 116.517Z" fill="#A83246"/>
<path d="M99.1833 118.481C97.0681 119.982 94.3494 120.607 91.7055 120.222C81.0337 118.684 70.8425 114.363 62.6811 107.857C61.9974 104.845 61.2443 101.87 60.6727 98.9053C60.0852 95.9142 59.6739 92.9231 59.6419 89.9106C59.5885 83.9124 61.2336 77.6951 65.4639 73.123C71.2378 66.8898 81.0016 64.4435 86.0705 57.7081C92.9767 61.6393 101.117 64.2672 109.412 64.7052C109.925 66.4358 110.389 68.3586 110.822 70.415C112.28 77.2892 113.391 85.6109 114.459 92.7148C114.662 104.145 108.739 111.714 99.1833 118.481Z" fill="#F9AF88"/>
<path d="M110.822 70.4203C102.762 69.1705 94.8782 66.8577 87.4592 63.5728C83.09 68.5829 77.4657 71.9212 71.3446 73.4168C65.1167 80.7931 61.4045 89.7717 60.6727 98.9053C60.0852 95.9142 59.6739 92.9231 59.6419 89.9106C59.5885 83.9124 61.2336 77.6951 65.4639 73.123C71.2378 66.8898 81.0016 64.4435 86.0705 57.7081C92.9767 61.6393 101.117 64.2672 109.412 64.7052C109.919 66.4358 110.384 68.364 110.822 70.4203Z" fill="#F59176"/>
<path d="M67.7334 85.5039C68.2408 82.2564 70.8847 79.4095 74.1803 78.5762C77.4759 77.7377 81.2308 78.9555 83.3299 81.5406C80.6646 80.0344 77.3423 79.6498 74.3833 80.5044C71.4242 81.359 68.8711 83.4475 67.7334 85.5039Z" fill="#A83246"/>
<path d="M96.2236 80.4564C97.5322 77.6576 100.545 75.7775 103.611 75.8416C106.676 75.911 109.636 77.9193 110.859 80.7769C106.853 77.9086 101.063 77.9086 96.2236 80.4564Z" fill="#A83246"/>
<path d="M78.5857 89.0543C79.7153 88.8369 80.8306 89.6958 81.0763 90.9734C81.3225 92.251 80.6063 93.4624 79.4766 93.6803C78.3469 93.8977 77.2316 93.0389 76.9859 91.7612C76.7397 90.4841 77.4565 89.2722 78.5857 89.0543Z" fill="#333E5E"/>
<path d="M98.7335 89.4848C98.8126 88.1864 99.8071 87.1902 100.955 87.2596C102.104 87.3296 102.971 88.4385 102.892 89.7369C102.814 91.0354 101.819 92.0315 100.67 91.9621C99.5214 91.8927 98.6545 90.7838 98.7335 89.4848Z" fill="#333E5E"/>
<path d="M93.1045 90.0439C93.3502 92.2552 94.0659 94.4184 95.1876 96.7953C94.5894 97.9917 93.9965 99.1882 93.3983 100.385" stroke="#D14F58" stroke-miterlimit="10" stroke-linecap="round"/>
<path d="M96.9128 103.595C92.2072 105.256 86.5561 104.471 82.6143 101.619C83.3567 104.465 86.1128 106.794 89.3015 107.27C92.4849 107.745 95.9193 106.346 96.9128 103.595Z" fill="white"/>
</svg>
