<svg width="131" height="137" viewBox="0 0 131 137" fill="none" xmlns="http://www.w3.org/2000/svg">
<path d="M112.697 109.18L81.0575 94.135H66.3305H64.0745H49.3475L17.7095 109.18C17.7095 109.18 -0.740483 115.952 0.769517 135.644H64.0755H66.3315H129.638C131.49 116.135 112.697 109.18 112.697 109.18Z" fill="#202020" stroke="#202020" stroke-width="1.1434" stroke-miterlimit="10" stroke-linejoin="round"/>
<path d="M81.3416 94.135V60.43H49.3486V94.135L41.4336 97.899C41.4336 97.899 42.0586 112.861 65.6806 113.18C89.3026 113.499 91.6766 99.185 91.6766 99.185L81.3416 94.135Z" fill="#F5F5F3" stroke="#202020" stroke-width="1.1434" stroke-miterlimit="10" stroke-linejoin="round"/>
<path d="M49.5879 70.944C49.5879 70.944 52.2679 84.539 64.0989 86.1C77.7149 87.898 81.3419 71.289 81.3419 71.289C81.3419 71.289 75.3249 78.828 65.8099 78.84C55.1969 78.854 49.5879 70.944 49.5879 70.944Z" fill="#202020"/>
<path d="M41.4334 49.903C41.4334 49.903 41.8854 42.55 36.0714 39.176C31.1894 36.343 30.3233 31.049 32.6303 27.083C33.1543 26.182 33.8534 25.392 34.6674 24.74C35.1454 24.357 35.8544 23.495 35.3594 21.96C34.6474 19.75 35.1494 17.584 36.1894 16.493C37.3444 15.282 38.3753 13.852 42.0803 14.361C46.5483 14.974 45.2734 10.059 45.2094 6.41402C45.1164 1.12902 54.3923 -2.81698 63.8843 6.14002C63.8843 6.14002 65.4264 8.35002 70.4094 6.95402C75.3924 5.55802 85.5453 2.41702 92.7823 8.46602C100.019 14.515 92.9014 20.913 95.3924 25.799C97.8834 30.685 100.138 35.222 94.6804 39.409C89.2224 43.597 89.2934 52.57 89.2934 52.57L41.4334 49.903Z" fill="#202020"/>
<path d="M88.1334 48.942C88.1334 48.942 90.2904 45.511 94.7394 47.199C99.1884 48.886 97.1754 59.691 90.5024 61.067C90.5024 61.067 88.1104 61.589 86.2344 59.951C86.2344 59.951 87.8754 51.971 88.1334 48.942Z" fill="#F5F5F3" stroke="#202020" stroke-width="1.1434" stroke-miterlimit="10" stroke-linejoin="round"/>
<path d="M93.8583 51.01C93.8583 51.01 90.1313 49.767 87.4863 55.254" stroke="#202020" stroke-width="0.6108" stroke-miterlimit="10" stroke-linecap="round" stroke-linejoin="round"/>
<path d="M89.2949 52.5701C89.2949 52.5701 93.3499 54.7391 90.6709 57.9981" stroke="#202020" stroke-width="0.6108" stroke-miterlimit="10" stroke-linecap="round" stroke-linejoin="round"/>
<path d="M42.596 48.942C42.596 48.942 40.439 45.511 35.99 47.199C31.541 48.887 33.554 59.691 40.227 61.067C40.227 61.067 42.619 61.589 44.495 59.951C44.495 59.951 42.854 51.971 42.596 48.942Z" fill="#F5F5F3" stroke="#202020" stroke-width="1.1434" stroke-miterlimit="10" stroke-linejoin="round"/>
<path d="M36.8711 51.01C36.8711 51.01 40.5981 49.767 43.2431 55.254" stroke="#202020" stroke-width="0.6108" stroke-miterlimit="10" stroke-linecap="round" stroke-linejoin="round"/>
<path d="M41.4338 52.5701C41.4338 52.5701 37.3788 54.7391 40.0578 57.9981" stroke="#202020" stroke-width="0.6108" stroke-miterlimit="10" stroke-linecap="round" stroke-linejoin="round"/>
<path d="M88.5798 38.69C88.5818 45.203 87.9428 58.83 83.9388 66.917C80.1788 74.511 73.9618 78.598 65.8098 78.841C57.6578 79.084 51.5848 75.942 46.7178 66.087C41.8508 56.231 42.0838 38.811 42.0838 38.811C42.0838 38.811 42.0838 15.544 65.0798 15.544C89.2988 15.544 88.5798 38.69 88.5798 38.69Z" fill="#F5F5F3" stroke="#202020" stroke-width="1.1434" stroke-miterlimit="10" stroke-linejoin="round"/>
<path d="M63.6914 41.219V56.035C63.6914 56.266 63.7354 56.488 63.8174 56.691C64.1364 57.489 65.0544 57.871 65.8844 57.65L67.6694 57.175" fill="#F5F5F3"/>
<path d="M63.6914 41.219V56.035C63.6914 56.266 63.7354 56.488 63.8174 56.691C64.1364 57.489 65.0544 57.871 65.8844 57.65L67.6694 57.175" stroke="#202020" stroke-width="0.8224" stroke-miterlimit="10" stroke-linecap="round" stroke-linejoin="round"/>
<path d="M54.4899 49.022C55.4713 49.022 56.2669 48.2264 56.2669 47.245C56.2669 46.2636 55.4713 45.468 54.4899 45.468C53.5085 45.468 52.7129 46.2636 52.7129 47.245C52.7129 48.2264 53.5085 49.022 54.4899 49.022Z" fill="#202020"/>
<path d="M74.9137 49.022C75.8951 49.022 76.6907 48.2264 76.6907 47.245C76.6907 46.2636 75.8951 45.468 74.9137 45.468C73.9323 45.468 73.1367 46.2636 73.1367 47.245C73.1367 48.2264 73.9323 49.022 74.9137 49.022Z" fill="#202020"/>
<path d="M57.712 49.189L53.293 52.105" stroke="#202020" stroke-width="0.4746" stroke-miterlimit="10" stroke-linecap="round" stroke-linejoin="round"/>
<path d="M72.1152 49.174L76.0242 52.12" stroke="#202020" stroke-width="0.4746" stroke-miterlimit="10" stroke-linecap="round" stroke-linejoin="round"/>
<path d="M57.5137 60.003C57.5137 60.003 59.5917 61.595 65.0557 61.595C70.0247 61.595 73.1287 60.003 73.1287 60.003" fill="#F5F5F3"/>
<path d="M57.5137 60.003C57.5137 60.003 59.5917 61.595 65.0557 61.595C70.0247 61.595 73.1287 60.003 73.1287 60.003" stroke="#202020" stroke-width="0.8224" stroke-miterlimit="10" stroke-linecap="round" stroke-linejoin="round"/>
<path d="M62.1113 64.719C62.1113 64.719 66.7213 64.55 68.6683 63.705" stroke="#202020" stroke-width="0.4746" stroke-miterlimit="10" stroke-linecap="round" stroke-linejoin="round"/>
<path d="M69.2773 39.629L83.3523 43.265C83.3523 43.265 82.7123 39.317 76.9543 37.882C71.1963 36.448 69.2773 39.629 69.2773 39.629Z" fill="#202020"/>
<path d="M60.9109 39.629L46.8359 43.265C46.8359 43.265 47.4759 39.317 53.2339 37.882C58.9919 36.448 60.9109 39.629 60.9109 39.629Z" fill="#202020"/>
<path d="M56.3673 57.0966C60.7395 55.2743 62.8066 50.2526 60.9843 45.8804C59.162 41.5082 54.1403 39.4411 49.7681 41.2634C45.3959 43.0857 43.3288 48.1074 45.1511 52.4796C46.9734 56.8518 51.9951 58.9189 56.3673 57.0966Z" stroke="#202020" stroke-width="0.4746" stroke-miterlimit="10" stroke-linecap="round" stroke-linejoin="round"/>
<path d="M81.1769 56.8875C85.4236 54.7886 87.1647 49.6445 85.0657 45.3978C82.9668 41.1511 77.8227 39.41 73.576 41.509C69.3293 43.6079 67.5882 48.7521 69.6872 52.9987C71.7861 57.2454 76.9303 58.9865 81.1769 56.8875Z" stroke="#202020" stroke-width="0.4746" stroke-miterlimit="10" stroke-linecap="round" stroke-linejoin="round"/>
<path d="M61.6543 49.903C61.6543 49.903 64.6833 45.246 68.7923 49.903" stroke="#202020" stroke-width="0.4746" stroke-miterlimit="10" stroke-linecap="round" stroke-linejoin="round"/>
<path d="M42.5404 47.661C42.5404 47.661 48.6344 29.347 42.0824 18.533L39.6094 35.784L42.5404 47.661Z" fill="#202020"/>
<path d="M45.0401 29.088C45.0401 29.088 47.5881 19.2311 56.8031 24.8911C62.3041 28.2701 74.9141 34.619 88.5821 25.696C88.5821 25.696 80.9451 13.1301 63.2231 13.1281C40.0811 13.1261 45.0401 29.088 45.0401 29.088Z" fill="#202020"/>
</svg>
