<svg width="117" height="139" viewBox="0 0 117 139" fill="none" xmlns="http://www.w3.org/2000/svg">
<path d="M98.8028 37.8099C93.8623 31.9975 89.9074 25.2172 86.5449 15.7023C82.9352 5.48862 71.1175 9.6396 71.1175 9.6396C71.1175 9.6396 61.2709 -3.02713 46.4536 1.38354C31.6352 5.7963 26.4861 16.3406 26.1847 28.878C25.8823 41.4133 16.0221 43.3751 8.42835 57.8775C-4.97679 83.48 17.5918 105.046 58.6739 99.0628L58.7302 98.6644C62.7748 99.892 67.7341 100.429 73.7864 100.069C123.14 97.1407 118.378 60.8384 98.8028 37.8099Z" fill="#1A1A1A"/>
<path d="M28.2657 100.181C28.2657 100.181 1.17383 113.886 1.17383 137.315H56.6144H61.6362H116.033C116.033 113.886 87.8979 100.181 87.8979 100.181" fill="#1A1A1A"/>
<path d="M28.2657 100.181C28.2657 100.181 1.17383 113.886 1.17383 137.315H56.6144H61.6362H116.033C116.033 113.886 87.8979 100.181 87.8979 100.181" stroke="#1A1A1A" stroke-width="1.532" stroke-miterlimit="10" stroke-linecap="round" stroke-linejoin="round"/>
<path d="M46.8875 75.0061V90.7057C46.8875 90.7057 41.8041 97.8343 28.2676 100.181C28.2676 100.181 36.3849 105.491 58.7574 105.491C74.3674 105.491 88.003 100.181 88.003 100.181C88.003 100.181 70.669 96.5703 69.4102 90.7057V75.0457" fill="#F6F6F4"/>
<path d="M46.8875 75.0061V90.7057C46.8875 90.7057 41.8041 97.8343 28.2676 100.181C28.2676 100.181 36.3849 105.491 58.7574 105.491C74.3674 105.491 88.003 100.181 88.003 100.181C88.003 100.181 70.669 96.5703 69.4102 90.7057V75.0457" stroke="#1A1A1A" stroke-width="1.50667" stroke-miterlimit="10" stroke-linecap="round" stroke-linejoin="round"/>
<path d="M35.4355 98.2791C35.4355 98.2791 56.108 104.316 81.0274 98.2791" stroke="#1A1A1A" stroke-width="1.532" stroke-miterlimit="10"/>
<path d="M47.3477 75.7261C47.3477 75.7261 52.0232 86.1912 61.5048 85.5237C61.5048 85.5237 68.2684 85.4601 69.8703 78.732L69.2028 75.7261C69.2028 75.7261 60.6735 81.8014 47.3477 75.7261Z" fill="#1A1A1A"/>
<path d="M82.2636 35.0018C82.2636 35.0018 85.2705 78.2721 58.2109 78.2721C31.1513 78.2721 33.3228 35.0018 33.3228 35.0018C33.3228 35.0018 32.016 9.26787 59.1266 9.26787C84.361 9.26787 82.2636 35.0018 82.2636 35.0018Z" fill="#F6F6F4"/>
<path d="M82.2636 35.0018C82.2636 35.0018 85.2705 78.2721 58.2109 78.2721C31.1513 78.2721 33.3228 35.0018 33.3228 35.0018C33.3228 35.0018 32.016 9.26787 59.1266 9.26787C84.361 9.26787 82.2636 35.0018 82.2636 35.0018Z" stroke="#1A1A1A" stroke-width="1.50667" stroke-miterlimit="10"/>
<path d="M56.6172 48.0683V52.237C56.6172 52.529 56.6735 52.8086 56.7757 53.0651C57.1783 54.0726 58.337 54.5545 59.3852 54.276L60.6065 53.9516" stroke="#1A1A1A" stroke-width="1.45067" stroke-miterlimit="10" stroke-linecap="round" stroke-linejoin="round"/>
<path d="M50.2066 42.8994C50.2066 44.1385 49.2022 45.1428 47.9632 45.1428C46.7242 45.1428 45.7188 44.1385 45.7188 42.8994C45.7188 41.6614 46.7242 40.656 47.9632 40.656C49.2022 40.656 50.2066 41.6614 50.2066 42.8994Z" fill="#1A1A1A"/>
<path d="M71.1138 42.8994C71.1138 44.1385 70.1094 45.1428 68.8714 45.1428C67.6313 45.1428 66.627 44.1385 66.627 42.8994C66.627 41.6614 67.6313 40.656 68.8714 40.656C70.1094 40.656 71.1138 41.6614 71.1138 42.8994Z" fill="#1A1A1A"/>
<path d="M52.031 45.5862L46.4512 49.2678" stroke="#1A1A1A" stroke-width="0.766667" stroke-miterlimit="10" stroke-linecap="round" stroke-linejoin="round"/>
<path d="M65.3418 45.5485L70.2771 49.2677" stroke="#1A1A1A" stroke-width="0.766667" stroke-miterlimit="10" stroke-linecap="round" stroke-linejoin="round"/>
<path d="M50.8184 58.8922C50.8184 58.8922 54.2048 61.0083 58.6708 61.0083C63.1388 61.0083 66.5243 58.8922 66.5243 58.8922" stroke="#1A1A1A" stroke-width="1.45067" stroke-miterlimit="10" stroke-linecap="round" stroke-linejoin="round"/>
<path d="M53.3605 33.1053C53.2437 33.3306 52.6899 36.0778 52.6899 36.0778L40.3496 37.4055L43.2918 35.2924C44.0427 34.8095 44.8802 34.4747 45.7573 34.3058L53.3605 33.1053Z" fill="#1A1A1A"/>
<path d="M62.1055 33.1053C62.2233 33.3306 62.7771 36.0778 62.7771 36.0778L75.1174 37.4055L72.1742 35.2924C71.4233 34.8095 70.5868 34.4747 69.7097 34.3058L62.1055 33.1053Z" fill="#1A1A1A"/>
<path d="M80.3828 56.8734C82.2132 59.3922 85.7478 57.7443 87.7962 54.4652C89.8456 51.1872 90.802 44.6301 87.7962 42.854C84.7914 41.0768 82.2581 44.7386 82.2581 44.7386C82.2581 44.7386 81.5269 51.3677 80.994 53.8468L80.3828 56.8734Z" fill="#F6F6F4"/>
<path d="M80.3828 56.8734C82.2132 59.3922 85.7478 57.7443 87.7962 54.4652C89.8456 51.1872 90.802 44.6301 87.7962 42.854C84.7914 41.0768 82.2581 44.7386 82.2581 44.7386C82.2581 44.7386 81.5269 51.3677 80.994 53.8468L80.3828 56.8734Z" stroke="#1A1A1A" stroke-width="1.532" stroke-miterlimit="10"/>
<path d="M81.4473 50.8367C83.8513 45.8492 87.4641 46.9517 87.4641 46.9517" stroke="#1A1A1A" stroke-width="0.766667" stroke-miterlimit="10" stroke-linecap="round" stroke-linejoin="round"/>
<path d="M83.3203 48.3699C83.3203 48.3699 87.0051 50.3411 84.5708 53.302" stroke="#1A1A1A" stroke-width="0.766667" stroke-miterlimit="10" stroke-linecap="round" stroke-linejoin="round"/>
<path d="M35.4321 56.8734C33.6028 59.3921 30.0682 57.7443 28.0198 54.4652C25.9704 51.1872 25.014 44.6301 28.0198 42.854C31.0246 41.0768 33.5579 44.7386 33.5579 44.7386C33.5579 44.7386 34.289 51.3676 34.822 53.8467L35.4321 56.8734Z" fill="#F6F6F4"/>
<path d="M35.4321 56.8734C33.6028 59.3921 30.0682 57.7443 28.0198 54.4652C25.9704 51.1872 25.014 44.6301 28.0198 42.854C31.0246 41.0768 33.5579 44.7386 33.5579 44.7386C33.5579 44.7386 34.289 51.3676 34.822 53.8467L35.4321 56.8734Z" stroke="#1A1A1A" stroke-width="1.532" stroke-miterlimit="10"/>
<path d="M34.3675 50.8367C31.9635 45.8492 28.3496 46.9517 28.3496 46.9517" stroke="#1A1A1A" stroke-width="0.766667" stroke-miterlimit="10" stroke-linecap="round" stroke-linejoin="round"/>
<path d="M32.4981 48.3699C32.4981 48.3699 28.8133 50.3411 31.2476 53.302" stroke="#1A1A1A" stroke-width="0.766667" stroke-miterlimit="10" stroke-linecap="round" stroke-linejoin="round"/>
<path d="M82.261 32.9322C82.1974 30.9235 81.9356 27.7529 81.0262 24.7773C80.8437 24.0285 80.6497 23.3318 80.4505 22.6851L81.6488 23.0012C80.6382 16.0498 65.0335 -1.11099 45.3393 8.73662C25.6441 18.5842 33.0824 44.5122 33.0824 44.5122L33.267 43.222C34.1024 42.0956 37.5922 37.0769 38.7123 30.5637C52.3678 32.83 62.7848 25.133 68.1425 19.842C68.8601 22.5078 70.9908 28.1085 76.7563 32.1521C78.5127 39.5498 82.1985 44.1002 82.1985 44.1002C82.5187 39.8241 82.4957 36.1268 82.261 32.9322Z" fill="#1A1A1A"/>
</svg>
