<svg width="131" height="133" viewBox="0 0 131 133" fill="none" xmlns="http://www.w3.org/2000/svg">
<path d="M129.895 132.161C131.747 112.652 112.955 105.698 112.955 105.698L81.3163 90.653H66.5893H64.3333H49.6063L17.9673 105.698C17.9673 105.698 -0.48267 112.47 1.02733 132.161" fill="#F5F5F3"/>
<path d="M129.895 132.161C131.747 112.652 112.955 105.698 112.955 105.698L81.3163 90.653H66.5893H64.3333H49.6063L17.9673 105.698C17.9673 105.698 -0.48267 112.47 1.02733 132.161" stroke="#202020" stroke-width="1.1434" stroke-miterlimit="10" stroke-linejoin="round"/>
<path d="M81.5984 90.652V56.947H49.6054V90.652L41.6914 94.416C41.6914 94.416 42.3154 109.378 65.9384 109.697C89.5604 110.016 91.9344 95.702 91.9344 95.702L81.5984 90.652Z" fill="#F5F5F3" stroke="#202020" stroke-width="1.1434" stroke-miterlimit="10" stroke-linejoin="round"/>
<path d="M46.2129 92.265C46.2129 92.265 49.4829 104.644 66.8109 103.73C83.9449 102.826 86.4919 93.114 86.4919 93.114" fill="#F5F5F3"/>
<path d="M46.2129 92.265C46.2129 92.265 49.4829 104.644 66.8109 103.73C83.9449 102.826 86.4919 93.114 86.4919 93.114" stroke="#202020" stroke-width="1.1434" stroke-miterlimit="10" stroke-linejoin="round"/>
<path d="M49.8457 67.462C49.8457 67.462 52.5257 81.056 64.3567 82.618C77.9727 84.415 81.5997 67.807 81.5997 67.807C81.5997 67.807 75.5827 75.346 66.0677 75.358C55.4547 75.372 49.8457 67.462 49.8457 67.462Z" fill="#202020"/>
<path d="M92.2829 19.368C90.9769 14.633 87.9079 7.951 76.9489 2.967C58.8429 -5.267 52.9709 10.222 52.9709 10.222C44.7509 6.71 39.9419 14.38 38.6339 18.374C37.8429 20.788 38.4889 23.357 38.7209 25.022L42.3389 44.842L42.7879 31.204C46.2119 20.037 54.7479 18.314 54.7479 18.314L71.2939 17.002L89.0509 44.048L92.7729 24.891C92.8899 23.419 92.7169 20.941 92.2829 19.368Z" fill="#202020"/>
<path d="M88.3932 45.46C88.3932 45.46 90.5501 42.029 94.9991 43.717C99.4481 45.404 97.4351 56.208 90.7621 57.585C90.7621 57.585 88.3701 58.107 86.4941 56.469C86.4941 56.469 88.1352 48.488 88.3932 45.46Z" fill="#F5F5F3" stroke="#202020" stroke-width="1.1434" stroke-miterlimit="10" stroke-linejoin="round"/>
<path d="M94.1181 47.528C94.1181 47.528 90.3911 46.285 87.7461 51.772" stroke="#202020" stroke-width="0.6108" stroke-miterlimit="10" stroke-linecap="round" stroke-linejoin="round"/>
<path d="M89.5547 49.087C89.5547 49.087 93.6097 51.256 90.9317 54.515" stroke="#202020" stroke-width="0.6108" stroke-miterlimit="10" stroke-linecap="round" stroke-linejoin="round"/>
<path d="M42.8538 45.46C42.8538 45.46 40.6968 42.029 36.2478 43.717C31.7988 45.404 33.8118 56.208 40.4848 57.585C40.4848 57.585 42.8768 58.107 44.7528 56.469C44.7528 56.469 43.1118 48.488 42.8538 45.46Z" fill="#F5F5F3" stroke="#202020" stroke-width="1.1434" stroke-miterlimit="10" stroke-linejoin="round"/>
<path d="M37.1289 47.528C37.1289 47.528 40.8559 46.285 43.5009 51.772" stroke="#202020" stroke-width="0.6108" stroke-miterlimit="10" stroke-linecap="round" stroke-linejoin="round"/>
<path d="M41.6916 49.087C41.6916 49.087 37.6366 51.256 40.3156 54.515" stroke="#202020" stroke-width="0.6108" stroke-miterlimit="10" stroke-linecap="round" stroke-linejoin="round"/>
<path d="M88.8396 35.207C88.8416 41.72 88.2026 55.347 84.1986 63.434C80.4386 71.028 74.2216 75.115 66.0696 75.358C57.9176 75.601 51.8446 72.459 46.9776 62.604C42.1106 52.748 42.3436 35.328 42.3436 35.328C42.3436 35.328 42.3436 12.061 65.3396 12.061C89.5586 12.061 88.8396 35.207 88.8396 35.207Z" fill="#F5F5F3" stroke="#202020" stroke-width="1.1434" stroke-miterlimit="10" stroke-linejoin="round"/>
<path d="M63.9512 37.7369V52.5529C63.9512 52.7839 63.9962 53.0059 64.0772 53.2089C64.3962 54.0069 65.3142 54.3889 66.1442 54.1679L67.9292 53.6929" fill="#F5F5F3"/>
<path d="M63.9512 37.7369V52.5529C63.9512 52.7839 63.9962 53.0059 64.0772 53.2089C64.3962 54.0069 65.3142 54.3889 66.1442 54.1679L67.9292 53.6929" stroke="#202020" stroke-width="0.8224" stroke-miterlimit="10" stroke-linecap="round" stroke-linejoin="round"/>
<path d="M54.7497 45.539C55.7311 45.539 56.5267 44.7434 56.5267 43.762C56.5267 42.7806 55.7311 41.985 54.7497 41.985C53.7683 41.985 52.9727 42.7806 52.9727 43.762C52.9727 44.7434 53.7683 45.539 54.7497 45.539Z" fill="#202020"/>
<path d="M75.1735 45.539C76.1549 45.539 76.9505 44.7434 76.9505 43.762C76.9505 42.7806 76.1549 41.985 75.1735 41.985C74.1921 41.985 73.3965 42.7806 73.3965 43.762C73.3965 44.7434 74.1921 45.539 75.1735 45.539Z" fill="#202020"/>
<path d="M57.9698 45.707L53.5508 48.623" stroke="#202020" stroke-width="0.4746" stroke-miterlimit="10" stroke-linecap="round" stroke-linejoin="round"/>
<path d="M72.375 45.692L76.284 48.638" stroke="#202020" stroke-width="0.4746" stroke-miterlimit="10" stroke-linecap="round" stroke-linejoin="round"/>
<path d="M69.3359 36.147L83.4109 39.783C83.4109 39.783 82.7709 35.835 77.0129 34.4C71.2549 32.965 69.3359 36.147 69.3359 36.147Z" fill="#202020"/>
<path d="M60.5887 36.147L46.5137 39.783C46.5137 39.783 47.1537 35.835 52.9117 34.4C58.6697 32.965 60.5887 36.147 60.5887 36.147Z" fill="#202020"/>
<path d="M62.5723 62.011C62.5723 62.011 65.0952 62.803 68.2452 62.011" stroke="#202020" stroke-width="0.4746" stroke-miterlimit="10" stroke-linecap="round" stroke-linejoin="round"/>
<path d="M64.4576 59.3919C64.9046 59.1029 65.2305 58.6509 65.3705 58.1349C65.6545 57.0859 65.7786 55.412 63.7576 55.223C60.7906 54.945 55.8236 60.651 51.4766 57.38C51.4766 57.38 55.6315 65.0959 64.4576 59.3919Z" fill="#202020"/>
<path d="M66.1122 59.3919C65.6672 59.1029 65.3422 58.6509 65.2032 58.1349C64.9202 57.0859 64.7972 55.412 66.8092 55.223C69.7632 54.945 74.7092 60.651 79.0372 57.38C79.0372 57.38 74.8992 65.0959 66.1122 59.3919Z" fill="#202020"/>
<path d="M86.7443 14.971C86.1453 15.171 66.8133 9.81299 66.8133 9.81299L49.8462 14.971C49.8462 14.971 49.8512 14.984 49.8552 14.996C34.9392 19.032 41.5133 33.156 41.5133 33.156C47.6513 30.003 50.5473 22.807 51.7113 18.156C54.4253 21.724 60.6063 26.982 73.3963 26.734C86.4943 26.481 88.8393 35.206 88.8393 35.206C88.8393 35.206 87.3433 14.772 86.7443 14.971Z" fill="#202020"/>
</svg>
