<svg width="117" height="145" viewBox="0 0 117 145" fill="none" xmlns="http://www.w3.org/2000/svg">
<path d="M29.4992 48.5C31.4992 48.5 33.3326 49.8333 33.9992 50.5C33.9992 54.9 35.3331 60.3333 36 62.5L33.4992 64C27.4992 63.2 26.3326 55.6667 26.4992 52C26.6659 50.8333 27.4992 48.5 29.4992 48.5Z" fill="#F6F6F4"/>
<path d="M47 96.5V81.5C55.4 86.3 65.5 84.1667 69.5 82.5V96.5C71.1 100.9 80.1667 104.333 84.5 105.5H32C40.8 103.1 45.6667 98.5 47 96.5Z" fill="#F6F6F4"/>
<path d="M81.8575 17.685C81.8575 17.685 82.4416 34.4037 90.8666 43.0988C101.787 54.37 103.526 84.4656 66.8379 82.0491L72.254 12.101L81.8575 17.685Z" fill="#1A1A1A"/>
<path d="M64.4445 24.3267C69.0074 25.9422 72.8966 28.8323 75.4758 32.9645C75.6636 33.2659 75.8482 33.5808 76.0276 33.9062C79.6247 30.3581 81.8567 25.4301 81.8567 19.9786C81.8567 9.17666 73.1 0.417894 62.297 0.417894C51.494 0.417894 42.7363 9.17666 42.7363 19.9786C42.7363 21.1384 42.8438 22.272 43.0367 23.3776C50.2175 22.3065 57.6444 21.9185 64.4445 24.3267Z" fill="#1A1A1A"/>
<path d="M33.2914 49.4688C33.2914 49.4688 25.853 23.5409 45.5483 13.6933C65.2424 3.84668 80.8493 21.0065 81.8589 27.9578L54.0087 20.6289L42.3579 26.7594C42.3579 26.7594 39.7004 33.8036 35.273 35.7466L33.2914 49.4688Z" fill="#1A1A1A"/>
<path d="M82.4735 41.0018C82.4735 41.0018 85.4803 84.2721 58.4208 84.2721C31.3623 84.2721 33.5337 41.0018 33.5337 41.0018C33.5337 41.0018 32.2269 15.2679 59.3376 15.2679C84.5698 15.2679 82.4735 41.0018 82.4735 41.0018Z" fill="#F6F6F4"/>
<path d="M82.4735 41.0018C82.4735 41.0018 85.4803 84.2721 58.4208 84.2721C31.3623 84.2721 33.5337 41.0018 33.5337 41.0018C33.5337 41.0018 32.2269 15.2679 59.3376 15.2679C84.5698 15.2679 82.4735 41.0018 82.4735 41.0018Z" stroke="#1A1A1A" stroke-width="1.50667" stroke-miterlimit="10"/>
<path d="M56.8281 54.0683V58.237C56.8281 58.529 56.8844 58.8086 56.9867 59.0651C57.3903 60.0726 58.549 60.5545 59.5972 60.276L60.8174 59.9516" stroke="#1A1A1A" stroke-width="1.45067" stroke-miterlimit="10" stroke-linecap="round" stroke-linejoin="round"/>
<path d="M50.4184 48.8994C50.4184 50.1385 49.4141 51.1428 48.175 51.1428C46.936 51.1428 45.9316 50.1385 45.9316 48.8994C45.9316 47.6614 46.936 46.656 48.175 46.656C49.4141 46.656 50.4184 47.6614 50.4184 48.8994Z" fill="#1A1A1A"/>
<path d="M71.3257 48.8994C71.3257 50.1385 70.3214 51.1428 69.0823 51.1428C67.8433 51.1428 66.8379 50.1385 66.8379 48.8994C66.8379 47.6614 67.8433 46.656 69.0823 46.656C70.3214 46.656 71.3257 47.6614 71.3257 48.8994Z" fill="#1A1A1A"/>
<path d="M52.24 51.5862L46.6602 55.2678" stroke="#1A1A1A" stroke-width="0.766667" stroke-miterlimit="10" stroke-linecap="round" stroke-linejoin="round"/>
<path d="M65.5488 51.5485L70.4851 55.2677" stroke="#1A1A1A" stroke-width="0.766667" stroke-miterlimit="10" stroke-linecap="round" stroke-linejoin="round"/>
<path d="M51.0293 64.8922C51.0293 64.8922 54.4158 67.0084 58.8828 67.0084C63.3498 67.0084 66.7352 64.8922 66.7352 64.8922" stroke="#1A1A1A" stroke-width="1.45067" stroke-miterlimit="10" stroke-linecap="round" stroke-linejoin="round"/>
<path d="M53.5715 39.1053C53.4546 39.3306 52.9008 42.0777 52.9008 42.0777L40.5605 43.4054L43.5027 41.2924C44.2537 40.8095 45.0912 40.4747 45.9672 40.3058L53.5715 39.1053Z" fill="#1A1A1A"/>
<path d="M62.3145 39.1053C62.4323 39.3306 62.9851 42.0777 62.9851 42.0777L75.3254 43.4054L72.3832 41.2924C71.6322 40.8095 70.7958 40.4747 69.9187 40.3058L62.3145 39.1053Z" fill="#1A1A1A"/>
<path d="M80.5918 62.8734C82.4211 65.3921 85.9557 63.7443 88.0051 60.4652C90.0546 57.1872 91.011 50.6301 88.0051 48.854C84.9993 47.0768 82.466 50.7386 82.466 50.7386C82.466 50.7386 81.7349 57.3676 81.2019 59.8467L80.5918 62.8734Z" fill="#F6F6F4"/>
<path d="M80.5918 62.8734C82.4211 65.3921 85.9557 63.7443 88.0051 60.4652C90.0546 57.1872 91.011 50.6301 88.0051 48.854C84.9993 47.0768 82.466 50.7386 82.466 50.7386C82.466 50.7386 81.7349 57.3676 81.2019 59.8467L80.5918 62.8734Z" stroke="#1A1A1A" stroke-width="1.532" stroke-miterlimit="10"/>
<path d="M81.6582 56.8367C84.0622 51.8492 87.675 52.9517 87.675 52.9517" stroke="#1A1A1A" stroke-width="0.766667" stroke-miterlimit="10" stroke-linecap="round" stroke-linejoin="round"/>
<path d="M83.5312 54.3699C83.5312 54.3699 87.216 56.341 84.7818 59.302" stroke="#1A1A1A" stroke-width="0.766667" stroke-miterlimit="10" stroke-linecap="round" stroke-linejoin="round"/>
<path d="M35.3627 62.8469C33.5333 65.3646 30.225 63.7439 28.1756 60.4658C26.1262 57.1868 25.1709 50.6297 28.1756 48.8535C31.1814 47.0774 33.7137 50.7392 33.7137 50.7392" stroke="#1A1A1A" stroke-width="1.532" stroke-miterlimit="10" stroke-linecap="round" stroke-linejoin="round"/>
<path d="M28.5059 52.9521C28.5059 52.9521 31.8923 51.8225 34.2964 56.8089" stroke="#1A1A1A" stroke-width="0.766667" stroke-miterlimit="10" stroke-linecap="round" stroke-linejoin="round"/>
<path d="M32.6533 54.3699C32.6533 54.3699 28.9675 56.341 31.4017 59.302" stroke="#1A1A1A" stroke-width="0.766667" stroke-miterlimit="10" stroke-linecap="round" stroke-linejoin="round"/>
<path d="M33.2914 49.4688C33.2914 49.4688 25.853 23.5409 45.5483 13.6933C65.2424 3.84668 80.8493 21.0065 81.8589 27.9578L54.0087 20.6289L42.3579 26.7594C42.3579 26.7594 39.7004 33.8036 35.273 35.7466L33.2914 49.4688Z" fill="#1A1A1A"/>
<path d="M33.2903 49.4688C33.2903 49.4688 43.6437 36.435 37.1065 23.4022C37.1065 23.4022 32.336 39.3573 33.2903 49.4688Z" fill="#1A1A1A"/>
<path d="M82.4081 50.1002C82.4081 50.1002 73.4783 39.9825 77.9172 23.4015C77.9172 23.4015 83.3624 39.9887 82.4081 50.1002Z" fill="#1A1A1A"/>
<path d="M40.0352 21.316C40.0352 21.316 60.5856 52.8426 85.6124 43.4059C85.6124 43.4059 65.0516 10.7206 40.0352 21.316Z" fill="#1A1A1A"/>
<path d="M46.8065 25.1854C46.769 25.492 48.7037 38.2151 60.8176 43.0356C60.8176 43.0356 43.4086 42.1762 38.4785 26.486L46.8065 25.1854Z" fill="#1A1A1A"/>
<path d="M85.0769 31.8668V40.8091C85.0769 41.1742 84.6034 41.3337 84.3802 41.0417C81.8938 37.8002 72.7846 27.5343 57.5344 28.0892C42.3844 28.6399 34.6519 38.4228 32.5368 41.5913C32.3553 41.8625 31.9277 41.7332 31.9277 41.4088V32.8065C31.9277 31.8741 32.1707 30.9594 32.6495 30.1501C35.0107 26.1587 43.1865 16.4811 57.5344 16.4811C75.2533 16.4811 83.4603 27.088 84.8589 29.8914C85.0039 30.1845 85.0769 31.5424 85.0769 31.8668Z" fill="#F6F6F4"/>
<path d="M85.0769 31.8668V40.8091C85.0769 41.1742 84.6034 41.3337 84.3802 41.0417C81.8938 37.8002 72.7846 27.5343 57.5344 28.0892C42.3844 28.6399 34.6519 38.4228 32.5368 41.5913C32.3553 41.8625 31.9277 41.7332 31.9277 41.4088V32.8065C31.9277 31.8741 32.1707 30.9594 32.6495 30.1501C35.0107 26.1587 43.1865 16.4811 57.5344 16.4811C75.2533 16.4811 83.4603 27.088 84.8589 29.8914C85.0039 30.1845 85.0769 31.5424 85.0769 31.8668Z" stroke="#1A1A1A" stroke-width="1.35067" stroke-miterlimit="10"/>
<path d="M47.0974 81.0061V96.7057C47.0974 96.7057 42.013 103.834 28.4785 106.181H88.2129C88.2129 106.181 70.8779 102.57 69.6191 96.7057V81.0457" stroke="#1A1A1A" stroke-width="1.532" stroke-miterlimit="10" stroke-linecap="round" stroke-linejoin="round"/>
<path d="M47.0977 81.4787C47.0977 81.4787 51.7732 91.9427 61.2558 91.2762C61.2558 91.2762 68.0173 91.2126 69.6193 84.4845L68.9528 81.4787C68.9528 81.4787 60.4246 87.5539 47.0977 81.4787Z" fill="#1A1A1A"/>
<path d="M89.1518 106.181H61.8471H56.8243H28.4767C28.4767 106.181 1.38477 119.886 1.38477 143.315H56.8243H61.8471H116.245C116.245 119.886 89.1518 106.181 89.1518 106.181Z" fill="#1A1A1A"/>
<path d="M89.1518 106.181H61.8471H56.8243H28.4767C28.4767 106.181 1.38477 119.886 1.38477 143.315H56.8243H61.8471H116.245C116.245 119.886 89.1518 106.181 89.1518 106.181Z" stroke="#1A1A1A" stroke-width="1.532" stroke-miterlimit="10" stroke-linecap="round" stroke-linejoin="round"/>
</svg>
