<svg width="117" height="153" viewBox="0 0 117 153" fill="none" xmlns="http://www.w3.org/2000/svg">
<path d="M116 151.5H1C1.8 131.5 19.3333 118.5 28 114.5C39.2 112.5 45.3333 107 47 104.5V90C56.6 97.2 66 93 69.5 90V105C71.5 109.8 83.6667 113.667 89.5 115C112.3 127.8 116.667 144.667 116 151.5Z" fill="#F6F6F4"/>
<path d="M82.1874 49.0018C82.1874 49.0018 85.1943 92.2721 58.1347 92.2721C31.0752 92.2721 33.2466 49.0018 33.2466 49.0018C33.2466 49.0018 31.9398 23.2679 59.0504 23.2679C84.2848 23.2679 82.1874 49.0018 82.1874 49.0018Z" fill="#F6F6F4"/>
<path d="M82.1874 49.0018C82.1874 49.0018 85.1943 92.2721 58.1347 92.2721C31.0752 92.2721 33.2466 49.0018 33.2466 49.0018C33.2466 49.0018 31.9398 23.2679 59.0504 23.2679C84.2848 23.2679 82.1874 49.0018 82.1874 49.0018Z" stroke="#1A1A1A" stroke-width="1.50667" stroke-miterlimit="10"/>
<path d="M56.5391 62.7416V66.9113C56.5391 67.2023 56.5954 67.4829 56.6976 67.7394C57.1002 68.7469 58.2599 69.2288 59.3081 68.9493L60.5284 68.6259" stroke="#1A1A1A" stroke-width="1.45067" stroke-miterlimit="10" stroke-linecap="round" stroke-linejoin="round"/>
<path d="M50.1304 57.5737C50.1304 58.8127 49.1261 59.8171 47.887 59.8171C46.648 59.8171 45.6426 58.8127 45.6426 57.5737C45.6426 56.3357 46.648 55.3303 47.887 55.3303C49.1261 55.3303 50.1304 56.3357 50.1304 57.5737Z" fill="#1A1A1A"/>
<path d="M71.0386 57.5737C71.0386 58.8127 70.0343 59.8171 68.7952 59.8171C67.5562 59.8171 66.5508 58.8127 66.5508 57.5737C66.5508 56.3357 67.5562 55.3303 68.7952 55.3303C70.0343 55.3303 71.0386 56.3357 71.0386 57.5737Z" fill="#1A1A1A"/>
<path d="M51.9529 60.2605L46.373 63.9421" stroke="#1A1A1A" stroke-width="0.766667" stroke-miterlimit="10" stroke-linecap="round" stroke-linejoin="round"/>
<path d="M65.2617 60.2218L70.198 63.942" stroke="#1A1A1A" stroke-width="0.766667" stroke-miterlimit="10" stroke-linecap="round" stroke-linejoin="round"/>
<path d="M53.0547 73.9361C53.0547 73.9361 55.2595 75.3128 58.1673 75.3128C61.075 75.3128 63.2799 73.9361 63.2799 73.9361" stroke="#1A1A1A" stroke-width="1.45067" stroke-miterlimit="10" stroke-linecap="round" stroke-linejoin="round"/>
<path d="M53.2804 48.8226C53.1636 49.0478 52.6098 51.795 52.6098 51.795L40.2695 53.1227L43.2117 51.0096C43.9626 50.5268 44.8001 50.1909 45.6762 50.022L53.2804 48.8226Z" fill="#1A1A1A"/>
<path d="M62.0273 48.8225C62.1442 49.0478 62.698 51.795 62.698 51.795L75.0382 53.1227L72.0961 51.0096C71.3451 50.5267 70.5087 50.1909 69.6316 50.0219L62.0273 48.8225Z" fill="#1A1A1A"/>
<path d="M80.3027 70.8734C82.1331 73.3921 85.6667 71.7443 87.715 68.4652C89.7645 65.1872 90.7208 58.6301 87.715 56.854C84.7103 55.0768 82.1769 58.7386 82.1769 58.7386C82.1769 58.7386 81.4458 65.3676 80.9129 67.8467L80.3027 70.8734Z" fill="#F6F6F4"/>
<path d="M80.3027 70.8734C82.1331 73.3921 85.6667 71.7443 87.715 68.4652C89.7645 65.1872 90.7208 58.6301 87.715 56.854C84.7103 55.0768 82.1769 58.7386 82.1769 58.7386C82.1769 58.7386 81.4458 65.3676 80.9129 67.8467L80.3027 70.8734Z" stroke="#1A1A1A" stroke-width="1.532" stroke-miterlimit="10"/>
<path d="M81.373 64.8367C83.7771 59.8492 87.3899 60.9517 87.3899 60.9517" stroke="#1A1A1A" stroke-width="0.766667" stroke-miterlimit="10" stroke-linecap="round" stroke-linejoin="round"/>
<path d="M83.2422 62.3699C83.2422 62.3699 86.927 64.341 84.4927 67.302" stroke="#1A1A1A" stroke-width="0.766667" stroke-miterlimit="10" stroke-linecap="round" stroke-linejoin="round"/>
<path d="M35.0771 70.8469C33.2478 73.3646 29.9395 71.7439 27.8901 68.4658C25.8417 65.1868 24.8854 58.6297 27.8901 56.8535C30.8959 55.0774 33.4293 58.7392 33.4293 58.7392" stroke="#1A1A1A" stroke-width="1.532" stroke-miterlimit="10" stroke-linecap="round" stroke-linejoin="round"/>
<path d="M28.2188 60.9521C28.2188 60.9521 31.6063 59.8226 34.0093 64.809" stroke="#1A1A1A" stroke-width="0.766667" stroke-miterlimit="10" stroke-linecap="round" stroke-linejoin="round"/>
<path d="M32.3634 62.3699C32.3634 62.3699 28.6786 64.3411 31.1128 67.302" stroke="#1A1A1A" stroke-width="0.766667" stroke-miterlimit="10" stroke-linecap="round" stroke-linejoin="round"/>
<path d="M70.5243 21.1567C65.9311 18.8601 61.6237 18.0268 57.6886 18.1812C53.7545 18.0268 49.4471 18.8601 44.8529 21.1567C24.5152 31.3256 33.0028 58.5113 33.0028 58.5113L33.1029 57.338C33.7078 56.5391 37.0077 51.9647 38.3813 45.8321H76.7778C78.1556 53.2705 81.9822 57.702 82.1188 58.1004C82.1689 57.58 82.196 57.0376 82.2137 56.4859L82.6747 58.5113C82.6747 58.5113 90.863 31.3256 70.5243 21.1567Z" fill="#1A1A1A"/>
<path d="M86.3465 15.4173C86.3465 23.5535 79.7509 30.1502 71.6137 30.1502C63.4765 30.1502 56.8809 23.5535 56.8809 15.4173C56.8809 7.28019 63.4765 0.683477 71.6137 0.683477C79.7509 0.683477 86.3465 7.28019 86.3465 15.4173Z" fill="#1A1A1A"/>
<path d="M88.5339 114.525C88.5339 114.525 70.5909 110.571 69.332 104.705V89.0454" stroke="#1A1A1A" stroke-width="1.532" stroke-miterlimit="10" stroke-linecap="round" stroke-linejoin="round"/>
<path d="M46.8097 89.0061V104.706C46.8097 104.706 41.8734 112.132 28.3379 114.477" stroke="#1A1A1A" stroke-width="1.532" stroke-miterlimit="10" stroke-linecap="round" stroke-linejoin="round"/>
<path d="M115.959 151.316C115.959 131.367 96.3175 118.468 90.4822 115.075C89.5414 114.528 88.3827 114.535 87.4597 115.112C81.3365 118.948 56.1011 132.489 29.0113 114.728C28.4981 114.391 27.8442 114.357 27.3081 114.657C22.6461 117.26 1.09961 130.421 1.09961 151.316" stroke="#1A1A1A" stroke-width="1.532" stroke-miterlimit="10" stroke-linecap="round" stroke-linejoin="round"/>
<path d="M36.4629 112.339C36.4629 112.339 55.3759 123.359 80.3349 112.285" stroke="#1A1A1A" stroke-width="1.532" stroke-miterlimit="10" stroke-linecap="round" stroke-linejoin="round"/>
<path d="M46.9062 89.8443C46.9062 89.8443 51.5808 100.308 61.0634 99.6418C61.0634 99.6418 67.8259 99.5782 69.4279 92.8501L68.7614 89.8443C68.7614 89.8443 60.2321 95.9195 46.9062 89.8443Z" fill="#1A1A1A"/>
</svg>
