<svg width="168" height="168" viewBox="0 0 168 168" fill="none" xmlns="http://www.w3.org/2000/svg">
<path d="M126 126C149.196 102.804 149.196 65.196 126 42C102.804 18.804 65.196 18.804 42 42C18.804 65.196 18.804 102.804 42 126C65.196 149.196 102.804 149.196 126 126Z" fill="white"/>
<path d="M135.49 83.9997C135.49 93.08 133.14 101.609 129.012 109.013C120.224 124.81 103.358 135.491 83.9984 135.491C65.0203 135.491 48.44 125.219 39.5096 109.933C35.0613 102.317 32.5137 93.4615 32.5137 83.9997C32.5137 55.5665 55.5653 32.5149 83.9984 32.5149C112.438 32.5149 135.49 55.5665 135.49 83.9997Z" fill="#014B73"/>
<path opacity="0.3" d="M129.013 109.013C120.226 124.81 103.359 135.491 83.9996 135.491C65.0215 135.491 48.4412 125.219 39.5107 109.933C53.0802 99.1222 96.3184 85.2489 129.013 109.013Z" fill="#0464AC"/>
<path d="M27.1612 83.4424L30.5127 100.599C30.7531 101.831 32.4377 102.018 32.9432 100.869L40.0439 84.7442C40.5494 83.597 39.2762 82.4812 38.2054 83.1331L23.2988 92.1992C22.2246 92.8524 22.636 94.5009 23.8908 94.5731L41.6189 95.5936C42.8505 95.6644 43.4608 94.1242 42.5153 93.332L29.2415 82.2149C28.3158 81.4397 26.9296 82.2578 27.1612 83.4424Z" fill="#FFAA47"/>
<path d="M135.881 74.5977L123.687 87.1229C122.811 88.0221 123.616 89.5132 124.848 89.2748L142.147 85.9294C143.378 85.691 143.57 84.0098 142.424 83.5003L126.484 76.409C125.335 75.8981 124.214 77.1747 124.869 78.2476L134.126 93.4015C134.769 94.4546 136.383 94.0793 136.496 92.8504L138.076 75.6086C138.185 74.4056 136.723 73.7326 135.881 74.5977Z" fill="#FFAA47"/>
<path d="M38.7247 56.3622L32.9597 65.1762C32.4665 65.9303 33.239 66.871 34.0748 66.5338L43.8888 62.5706C44.724 62.2334 44.6279 61.0216 43.7505 60.8199L33.5442 58.4753C32.6641 58.2729 32.0496 59.3274 32.6593 59.9936L39.8739 67.8771C40.4726 68.5311 41.5585 68.044 41.4685 67.1626L40.4113 56.773C40.3234 55.9099 39.1995 55.636 38.7247 56.3622Z" fill="#FFAA47"/>
<path d="M94.7318 27.9038L88.9669 36.7178C88.4737 37.4718 89.2461 38.4126 90.082 38.0754L99.896 34.1122C100.731 33.775 100.635 32.5632 99.757 32.3615L89.5513 30.0175C88.6712 29.8152 88.0561 30.8697 88.6664 31.5359L95.881 39.4194C96.4791 40.0733 97.5656 39.5863 97.4757 38.7048L96.4184 28.3152C96.3299 27.4515 95.2066 27.1776 94.7318 27.9038Z" fill="#FFAA47"/>
<path d="M62.7892 55.0211C57.7114 53.0096 52.3638 55.4921 49.3318 60.0302C47.1976 63.2192 46.7119 67.2324 46.7561 71.0689C46.8002 74.9055 47.0553 78.3986 45.9417 82.0684C41.1778 97.7925 38.2195 93.2936 36.9929 104.479C36.7427 107.006 36.9193 109.704 38.3127 111.824C39.706 113.943 42.6104 115.214 44.774 112.069C45.3039 114.135 46.1085 116.181 47.4969 117.804C48.8853 119.428 50.9263 120.586 53.0604 120.532C55.1946 120.478 57.3287 119.031 58.3149 116.524C60.709 119.728 64.5456 121.808 68.5343 122.063C72.5229 122.318 76.595 120.743 78.7095 117.785C83.1152 120.071 88.2764 120.871 93.1629 120.017C98.0494 119.163 102.637 116.666 106.252 112.879C108.475 115.052 112.292 114.709 114.858 112.952C117.424 111.196 119.028 108.385 120.956 105.937C122.413 107.271 124.773 107.286 126.48 106.295C128.188 105.304 129.296 103.488 129.846 101.59C130.395 99.6911 130.459 97.6943 131.072 95.2168C131.381 96.301 132.765 96.8211 133.83 96.4482C134.894 96.0753 135.61 95.0352 135.895 93.9461C136.18 92.8569 136.106 91.7089 135.615 90.502C133.04 74.5474 122.403 71.7214 117.576 68.5668C111.904 64.8627 109.275 58.0187 104.898 52.8477C97.392 43.9922 84.0915 40.5971 73.2638 44.7771C68.0437 46.7935 63.0591 51.1403 62.7892 55.0211Z" fill="#A83246"/>
<mask id="mask0_162_7328" style="mask-type:luminance" maskUnits="userSpaceOnUse" x="36" y="43" width="101" height="80">
<path d="M62.7882 55.0212C57.7104 53.0097 52.3628 55.4922 49.3308 60.0303C47.1967 63.2193 46.7109 67.2325 46.7551 71.069C46.7993 74.9056 48.7372 79.5615 47.1967 83.0743C42.9283 92.7981 37.3992 94.0885 36.992 104.484C36.7417 107.011 36.9184 109.709 38.3117 111.829C39.705 113.948 42.6094 115.219 44.773 112.074C45.3029 114.14 46.1075 116.186 47.4959 117.809C48.8843 119.433 50.9253 120.591 53.0594 120.537C55.1936 120.483 57.3278 119.036 58.3139 116.529C60.7081 119.733 64.5446 121.813 68.5333 122.068C72.522 122.323 76.594 120.748 78.7086 117.79C83.1142 120.076 88.2755 120.876 93.1619 120.022C98.0484 119.168 102.636 116.671 106.251 112.884C108.474 115.057 112.291 114.714 114.857 112.957C117.423 111.201 119.027 108.39 120.955 105.942C122.412 107.276 124.772 107.291 126.479 106.3C128.187 105.309 129.295 103.493 129.845 101.595C130.394 99.6961 130.458 97.6993 131.071 95.2218C131.38 96.306 132.764 96.8261 133.829 96.4532C134.893 96.0803 135.61 95.0402 135.894 93.9511C136.179 92.8619 136.105 91.7139 135.614 90.507C134.442 84.4332 132.95 77.8198 128.069 74.0274C124.949 71.6038 120.881 70.7305 117.575 68.5718C111.903 64.8677 109.274 58.0237 104.897 52.8527C97.391 43.9972 84.0905 40.6021 73.2628 44.7821C68.0427 46.7936 63.0581 51.1404 62.7882 55.0212Z" fill="white"/>
</mask>
<g mask="url(#mask0_162_7328)">
<path d="M67.7093 76.0635C67.7093 76.0635 49.179 102.694 54.7033 122.097C54.7033 122.097 101.718 132.915 112.571 124.496C123.423 116.078 124.836 115.087 124.836 115.087C124.836 115.087 117.938 91.8022 103.882 82.5444C89.9438 73.37 67.7093 76.0635 67.7093 76.0635Z" fill="#701934"/>
<path d="M46.6835 82.7701C47.6156 79.4536 46.659 71.388 47.4832 68.0469C49.8381 58.4849 60.0183 55.5364 63.4722 56.3557C74.0105 38.7084 99.8117 50.3163 106.832 54.0498C101.916 48.6089 91.4075 41.083 84.0778 41.0143C76.7481 40.9456 69.4429 44.0757 64.4338 49.4233C63.4967 50.4242 62.6087 51.5183 61.4067 52.1708C59.6552 53.1176 57.5456 52.9754 55.5979 53.3777C51.5454 54.2166 48.3025 57.4792 46.5903 61.2421C44.878 65.0051 44.4807 69.2342 44.4463 73.3749C44.3972 77.5108 44.6867 81.6662 46.6835 82.7701Z" fill="#C95559"/>
</g>
<path d="M111.021 61.7277C111.021 61.7277 116.06 70.1907 123.684 73.6789C131.308 77.1672 139.614 93.2641 132.142 96.3991C132.142 96.3991 136.518 98.0868 137.647 91.336C138.55 85.9491 134.105 76.549 124.381 71.8391C118.229 68.8562 112.292 64.2347 111.021 61.7277Z" fill="#C95559"/>
<path d="M45.3518 83.6971C45.3518 83.6971 43.0264 91.1004 39.3419 95.4178C35.9027 99.4506 30.8788 110.146 40.9364 113.791C40.9364 113.791 34.6958 108.404 38.3116 101.967C41.9225 95.5258 45.3518 89.6384 45.3518 83.6971Z" fill="#C95559"/>
<path d="M62.7076 90.6641C62.7076 90.6641 56.5358 82.1422 53.6706 91.1498C51.767 97.1352 56.2218 107.433 65.612 100.417C65.612 100.417 63.6692 99.5441 62.9186 95.2905C62.2808 91.6747 62.7076 90.6641 62.7076 90.6641Z" fill="#FBA07F"/>
<path d="M60.6432 105.157C61.96 105.157 63.0275 104.089 63.0275 102.772C63.0275 101.455 61.96 100.388 60.6432 100.388C59.3263 100.388 58.2588 101.455 58.2588 102.772C58.2588 104.089 59.3263 105.157 60.6432 105.157Z" fill="#C0F0F0"/>
<path d="M106.795 85.7678C106.795 85.7678 114.983 77.2998 116.21 86.6754C116.936 92.234 113.281 102.537 103.891 95.5211C103.891 95.5211 105.833 94.6478 106.584 90.3942C107.222 86.7784 106.795 85.7678 106.795 85.7678Z" fill="#FBA07F"/>
<path d="M110.993 100.265C112.31 100.265 113.377 99.1978 113.377 97.8809C113.377 96.5641 112.31 95.4966 110.993 95.4966C109.676 95.4966 108.608 96.5641 108.608 97.8809C108.608 99.1978 109.676 100.265 110.993 100.265Z" fill="#C0F0F0"/>
<path d="M59.4201 75.3128C57.7324 88.0049 60.4847 113.835 81.787 116.352C92.5903 117.628 100.209 112.58 104.924 105.996C109.639 99.4115 110.169 88.3679 109.124 80.3415C108.648 76.6963 109.148 77.3194 107.107 74.2629C104.345 70.127 99.9396 67.409 95.5585 65.0492C90.932 62.5569 86.1093 60.2952 80.953 59.2845C75.7967 58.2739 70.2381 58.6026 65.6018 61.0753C60.9655 63.5479 60.3964 67.9634 59.4201 75.3128Z" fill="#F9AF88"/>
<path d="M58.5703 83.2901C61.7495 81.7594 64.9482 79.272 66.268 75.9996C67.2296 73.6152 69.1577 70.4704 67.8232 67.8015C71.6107 72.3936 78.4695 74.1696 84.3568 75.0625C90.2441 75.9554 95.7978 76.9121 101.729 77.4027C103.363 77.5352 105.016 77.7364 106.537 78.3496C108.058 78.9629 108.794 80.0422 109.476 81.5337C110.045 79.0904 109.427 76.4951 107.499 74.8957C105.571 73.2963 103.088 72.5261 100.635 72.0011C95.5133 70.9022 90.2441 70.701 85.0731 69.8719C79.907 69.0477 74.6721 67.4973 70.6589 64.1317C69.9132 63.5038 69.2067 62.812 68.3482 62.3557C67.4896 61.8995 66.4201 61.7032 65.5419 62.1202C64.3252 62.7041 63.8934 64.1955 63.6874 65.5251C63.1968 68.6944 63.236 71.9324 62.6129 75.0773C61.9948 78.227 59.5761 81.0284 58.5703 83.2901Z" fill="#F18361"/>
<path d="M100.689 89.5944C97.299 86.8372 94.3308 87.7939 91.9072 91.1496C93.8059 89.9476 95.1649 89.2412 97.4756 89.3393C98.4421 89.3932 98.8297 89.4619 99.7864 89.6287C100.189 89.6287 101.558 90.2224 100.689 89.5944Z" fill="#2F3961"/>
<path d="M71.8169 92.1995C70.7523 92.6067 69.9771 93.5242 69.4325 94.4956C69.2755 94.7801 69.1382 95.0745 69.04 95.3836C69.3393 95.1039 69.668 94.8635 70.0016 94.6231C71.0417 93.8676 71.6452 93.5536 72.7589 93.2396C74.0197 92.8471 74.216 92.7981 75.3836 92.803C76.0656 92.8569 76.5317 92.8667 77.2529 93.2249C75.992 91.6647 73.588 91.4243 71.8169 92.1995Z" fill="#2F3961"/>
<path d="M71.4179 77.0543C69.2003 76.9022 67.6205 76.7992 66.0211 78.0454C63.9262 79.6791 63.7251 80.2237 62.9695 82.0684C62.4593 80.9596 63.0088 78.7518 63.6809 77.7363C64.6082 76.338 65.1282 75.6365 66.7178 75.0919C68.3074 74.5522 69.6958 74.302 71.2854 74.8466C71.8888 75.0526 72.821 75.3715 72.8897 76.1025C72.9436 76.7403 72.4138 77.123 71.4179 77.0543Z" fill="#701934"/>
<path d="M90.926 75.0086C93.0602 74.3904 94.5811 73.9537 96.411 74.8319C98.8052 75.9849 99.1143 76.4706 100.248 78.119C100.508 76.9268 99.5068 74.8859 98.6335 74.0371C97.4315 72.8646 96.7741 72.2906 95.106 72.0992C93.4379 71.9079 92.025 71.9619 90.5924 72.8253C90.0429 73.159 89.1991 73.6643 89.2923 74.3953C89.3708 75.0282 89.9693 75.2882 90.926 75.0086Z" fill="#701934"/>
<path d="M83.9813 94.2601C83.9813 94.2601 83.0786 97.1253 85.0803 99.4214C85.0803 99.4214 81.7343 98.185 83.9813 94.2601Z" fill="#F18361"/>
<path d="M81.1436 103.749C81.1436 103.749 87.6049 106.574 91.4022 101.766C91.4022 101.771 89.2337 107.757 81.1436 103.749Z" fill="#C9102C"/>
<path fill-rule="evenodd" clip-rule="evenodd" d="M71.9212 85.0906C67.2397 85.0906 63.4582 88.8431 63.4582 93.4555C63.4582 98.0679 67.2397 101.82 71.9212 101.82C76.6026 101.82 80.3842 98.0679 80.3842 93.4555C80.3842 88.8431 76.6026 85.0906 71.9212 85.0906ZM61.9863 93.4555C61.9863 88.0154 66.4418 83.6188 71.9212 83.6188C77.4006 83.6188 81.856 88.0154 81.856 93.4555C81.856 98.8956 77.4006 103.292 71.9212 103.292C66.4418 103.292 61.9863 98.8956 61.9863 93.4555Z" fill="white"/>
<path fill-rule="evenodd" clip-rule="evenodd" d="M97.0013 81.2001C92.3198 81.2001 88.5382 84.9526 88.5382 89.565C88.5382 94.1774 92.3198 97.9299 97.0013 97.9299C101.683 97.9299 105.464 94.1774 105.464 89.565C105.464 84.9526 101.683 81.2001 97.0013 81.2001ZM87.0664 89.565C87.0664 84.1249 91.5219 79.7283 97.0013 79.7283C102.481 79.7283 106.936 84.1249 106.936 89.565C106.936 95.0051 102.481 99.4017 97.0013 99.4017C91.5219 99.4017 87.0664 95.0051 87.0664 89.565Z" fill="white"/>
<path fill-rule="evenodd" clip-rule="evenodd" d="M88.3345 86.1624C85.3777 84.7559 81.5693 85.3349 79.1654 87.5501L78.168 86.4677C81.0136 83.8455 85.467 83.1685 88.9667 84.8333L88.3345 86.1624Z" fill="white"/>
<path fill-rule="evenodd" clip-rule="evenodd" d="M107.777 84.697C107.025 84.9656 106.274 85.2341 105.521 85.5038L105.024 84.1183C105.778 83.8483 106.53 83.5796 107.282 83.3111L107.282 83.311C108.034 83.0423 108.785 82.7739 109.538 82.5042L110.034 83.8897C109.281 84.1597 108.529 84.4284 107.777 84.697Z" fill="white"/>
<path fill-rule="evenodd" clip-rule="evenodd" d="M59.5027 87.5303C60.8507 88.2643 62.3428 88.7309 63.8715 88.8972L63.7124 90.3604C61.9932 90.1734 60.316 89.649 58.7988 88.8229L59.5027 87.5303Z" fill="white"/>
<path d="M59.4177 87.6516C59.4177 85.9051 59.3245 83.6482 60.3008 81.9409C61.2771 80.2336 62.6606 78.7961 63.7694 77.1722C66.4481 73.262 67.4686 68.2529 66.3696 63.6804C66.8897 65.6576 68.646 67.046 70.4171 68.0665C78.0609 72.4721 87.3187 72.5801 96.0515 73.8409C99.0295 74.2727 102.047 74.8712 104.652 76.3725C107.257 77.8738 109.161 80.2042 109.48 83.1969C112.315 75.6513 106.624 67.8015 100.011 63.8816C95.9534 61.4776 91.2092 60.5798 86.6416 59.3974C82.2114 58.2543 77.8205 56.7971 73.2627 56.4292C68.7049 56.0612 63.8233 56.91 60.3449 59.8831C58.0636 61.8308 56.5427 64.5684 55.7038 67.4483C54.8648 70.3282 54.6686 73.3602 54.7274 76.3578C54.7667 78.3889 54.9237 80.4446 55.5615 82.3678C56.214 84.3057 57.2541 86.1749 59.4177 87.6516Z" fill="#A83246"/>
</svg>
