<svg width="168" height="168" viewBox="0 0 168 168" fill="none" xmlns="http://www.w3.org/2000/svg">
<path d="M126 126C149.196 102.804 149.196 65.196 126 42C102.804 18.804 65.196 18.804 42 42C18.804 65.196 18.804 102.804 42 126C65.196 149.196 102.804 149.196 126 126Z" fill="white"/>
<path d="M135.49 83.9996C135.49 93.0799 133.14 101.609 129.012 109.013C120.224 124.81 103.358 135.491 83.9984 135.491C65.0203 135.491 48.44 125.219 39.5096 109.933C35.0613 102.317 32.5137 93.4614 32.5137 83.9996C32.5137 55.5665 55.5653 32.5148 83.9984 32.5148C112.438 32.5148 135.49 55.5665 135.49 83.9996Z" fill="#014B73"/>
<path opacity="0.3" d="M129.013 109.013C120.226 124.81 103.359 135.491 83.9996 135.491C65.0215 135.491 48.4412 125.219 39.5107 109.933C53.0802 99.1221 96.3184 85.2489 129.013 109.013Z" fill="#0464AC"/>
<path d="M27.1612 83.4424L30.5127 100.599C30.7531 101.831 32.4377 102.018 32.9432 100.869L40.0439 84.7442C40.5494 83.597 39.2762 82.4812 38.2054 83.1331L23.2988 92.1992C22.2246 92.8524 22.636 94.5009 23.8908 94.5731L41.6189 95.5936C42.8505 95.6644 43.4608 94.1242 42.5153 93.332L29.2415 82.2149C28.3158 81.4397 26.9296 82.2578 27.1612 83.4424Z" fill="#FFAA47"/>
<path d="M135.881 74.5977L123.687 87.1229C122.811 88.0221 123.616 89.5132 124.848 89.2748L142.147 85.9294C143.378 85.691 143.57 84.0098 142.424 83.5003L126.484 76.409C125.335 75.8981 124.214 77.1747 124.869 78.2476L134.126 93.4015C134.769 94.4546 136.383 94.0793 136.496 92.8504L138.076 75.6086C138.185 74.4056 136.723 73.7326 135.881 74.5977Z" fill="#FFAA47"/>
<path d="M38.7247 56.3622L32.9597 65.1762C32.4665 65.9303 33.239 66.871 34.0748 66.5338L43.8888 62.5706C44.724 62.2334 44.6279 61.0216 43.7505 60.8199L33.5442 58.4753C32.6641 58.2729 32.0496 59.3274 32.6593 59.9936L39.8739 67.8771C40.4726 68.5311 41.5585 68.044 41.4685 67.1626L40.4113 56.773C40.3234 55.9099 39.1995 55.636 38.7247 56.3622Z" fill="#FFAA47"/>
<path d="M94.7318 27.9038L88.9669 36.7178C88.4737 37.4719 89.2461 38.4126 90.082 38.0755L99.896 34.1123C100.731 33.7751 100.635 32.5632 99.757 32.3616L89.5513 30.0176C88.6712 29.8153 88.0561 30.8698 88.6664 31.536L95.881 39.4195C96.4791 40.0734 97.5656 39.5864 97.4757 38.7049L96.4184 28.3153C96.3299 27.4515 95.2066 27.1777 94.7318 27.9038Z" fill="#FFAA47"/>
<path d="M60.6483 83.1336C60.6483 83.1336 56.1073 79.9779 53.6003 83.1606C50.2554 87.4178 52.0056 98.3377 60.2564 95.0401L60.6483 83.1336Z" fill="#F18361"/>
<path d="M114.964 76.7411C114.531 80.2009 113.308 83.6269 111.031 86.2622C110.409 86.9853 109.679 87.3029 108.923 87.4583C108.686 87.5124 108.443 87.5461 108.206 87.5664C107.254 87.661 106.26 87.7353 105.355 87.4245C105.314 87.4178 105.267 87.3975 105.226 87.384C104.294 87.0191 103.503 86.0865 103.632 85.0864C100.408 78.3764 94.009 74.4098 87.9679 70.8283C80.7983 66.5712 73.149 62.2059 64.9725 61.5504C63.8846 61.4558 62.7899 61.4356 61.6816 61.4896C63.6143 54.4214 69.6757 48.9006 76.6223 46.549C83.5621 44.1907 91.2452 44.711 98.2594 46.8599C99.0095 47.0896 99.7596 47.3464 100.496 47.637C102.49 48.4005 104.388 49.4074 105.936 50.867C108.051 52.8739 109.402 55.8877 108.781 58.7326C110.842 58.6785 112.342 59.9084 113.193 61.4018C114.045 62.8952 114.349 64.6251 114.599 66.3279C115.099 69.7742 115.403 73.288 114.964 76.7411Z" fill="#803D26"/>
<path opacity="0.451" d="M100.496 47.637C94.0766 46.4544 87.3395 46.968 81.224 49.2587C74.7707 51.6779 69.1013 56.0432 64.9725 61.5504C63.8846 61.4558 62.7899 61.4356 61.6816 61.4896C63.6143 54.4214 69.6757 48.9006 76.6223 46.549C83.5621 44.1907 91.2452 44.711 98.2594 46.8599C99.0095 47.0896 99.7596 47.3464 100.496 47.637Z" fill="#A86543"/>
<path d="M84.3603 50.9616C79.2584 50.7049 73.9877 50.9279 69.5886 53.5159C58.7565 59.8882 59.3917 69.9499 59.4998 78.1264C59.5741 83.485 59.4525 104.426 61.3716 108.129C63.311 111.886 66.6627 112.785 70.6292 114.251C74.5958 115.718 78.853 116.157 83.0696 116.502C87.1646 116.833 91.5974 117.002 95.0302 114.738C99.0846 112.062 101.504 106.386 102.605 101.649C104.727 92.4994 105.835 83.8431 107.957 74.7004C108.977 70.3148 108.775 63.8412 106.342 60.0503C101.315 52.2185 90.2797 51.259 84.3603 50.9616Z" fill="#F9AF88"/>
<path d="M108.12 82.6268C108.12 82.6268 112.648 77.356 115.168 82.147C117.682 86.938 116.763 97.3241 108.512 94.0265L108.12 82.6268Z" fill="#F9AF88"/>
<path d="M108.937 87.8299C108.835 94.3373 107.768 100.047 105.477 106.142C103.193 112.238 99.287 117.873 94.1514 121.874C92.5972 123.077 90.7727 124.171 88.8198 124.029C86.8601 123.894 85.2992 122.82 85.8803 120.536C84.2045 123.245 81.211 125.09 78.0418 125.381C76.8998 125.489 75.6294 125.347 74.832 124.523C74.2441 123.914 74.1495 122.847 74.4874 122.083C73.8522 122.826 73.0953 123.462 72.1899 123.8C71.4803 124.07 70.6559 124.124 69.9329 123.914C69.4666 123.786 69.0477 123.556 68.7098 123.205C67.8449 122.313 67.8516 120.624 68.7976 119.38C67.4935 120.407 65.5811 119.495 64.3242 118.421C61.2699 115.806 59.9455 112.521 59.0805 108.602C58.2156 104.683 58.7764 102.507 59.8846 97.3511C60.2022 100.926 61.574 105.825 64.5878 100.73C65.4325 99.304 65.919 97.6349 67.034 96.4051C68.7301 94.54 72.1223 94.5063 74.9198 94.5333C75.4131 94.5333 75.8861 94.54 76.3254 94.54C81.3326 94.513 87.0088 94.7766 90.2794 98.5675C91.4349 99.8987 92.2323 101.629 93.773 102.48C96.1854 103.818 99.3478 102.284 100.868 99.9797C102.389 97.6755 103.477 94.9725 104.2 92.3101C104.889 89.749 105.112 88.3368 105.355 87.4245C105.659 86.2893 105.99 85.9244 107.261 85.0729C108.355 84.9378 108.855 86.296 108.923 87.4583C108.937 87.5867 108.937 87.7083 108.937 87.8299Z" fill="#803D26"/>
<path opacity="0.451" d="M73.1088 116.576C70.7775 118.171 69.6693 121.124 69.9329 123.914C69.4666 123.786 69.0477 123.556 68.7098 123.205C67.8449 122.313 67.8516 120.624 68.7976 119.38C67.4935 120.407 65.5811 119.495 64.3242 118.421C61.2699 115.806 59.9455 112.521 59.0805 108.602C58.2156 104.683 58.7764 102.507 59.8846 97.3511C60.2022 100.926 61.574 105.825 64.5878 100.73C65.4325 99.304 65.919 97.6349 67.034 96.4051C68.7301 94.54 72.1223 94.5063 74.9198 94.5333C71.2844 96.5267 68.2706 99.6621 66.5136 103.419C65.2027 106.23 64.5878 109.541 65.723 112.427C66.8583 115.312 70.1356 117.454 73.1088 116.576Z" fill="#A86543"/>
<path d="M67.8075 84.5945C67.99 83.3316 68.8144 82.4051 69.6489 82.5254C70.4834 82.6457 71.0126 83.7674 70.8301 85.031C70.6477 86.294 69.8233 87.2204 68.9887 87.1002C68.1535 86.9792 67.6251 85.8575 67.8075 84.5945Z" fill="#2B344A"/>
<path d="M86.9032 84.5953C87.0856 83.3323 87.91 82.4058 88.7446 82.5261C89.5791 82.6464 90.1082 83.7681 89.9258 85.0318C89.7433 86.2947 88.9189 87.2212 88.0844 87.1009C87.2498 86.9806 86.7207 85.8589 86.9032 84.5953Z" fill="#2B344A"/>
<path d="M70.271 69.0918C69.1087 68.558 67.8045 68.585 66.5747 68.9364C65.2975 69.3013 63.3379 71.4029 63.3379 71.6394C63.3379 72.3016 64.088 71.8286 64.392 71.5313C66.3517 69.5716 68.514 71.3758 70.4872 71.1326C70.9805 71.0718 72.305 70.0244 70.271 69.0918Z" fill="#7A281B"/>
<path d="M89.1716 69.1661C90.5906 68.5376 92.1786 68.5647 93.6855 68.9769C95.2397 69.4093 97.6386 71.896 97.6386 72.1731C97.6386 72.957 96.7195 72.3961 96.3546 72.0447C93.9625 69.7269 91.3204 71.8555 88.9215 71.5785C88.3066 71.5041 86.6916 70.2675 89.1716 69.1661Z" fill="#7A281B"/>
<path d="M71.9258 100.811C76.737 101.088 81.6024 100.453 86.1771 98.9391C87.3799 101.196 86.4271 104.237 84.3594 105.737C82.2916 107.244 79.3927 107.318 77.0411 106.311C74.6828 105.311 72.838 103.352 71.9258 100.811Z" fill="white"/>
<path d="M74.4737 79.9373C75.7914 82.8971 75.9265 86.5528 74.8318 89.6342C74.5751 90.3505 74.2507 91.1141 74.3926 91.8709C74.548 92.6818 75.19 93.2291 75.8387 93.567C77.9267 94.6617 80.5148 94.3035 82.3258 92.6615C80.8594 94.5265 78.643 95.5401 76.4942 95.3171C75.021 95.1685 73.3925 94.1549 73.2168 92.425C73.1155 91.4316 73.5277 90.4721 73.8453 89.5463C74.8318 86.6947 74.9805 83.4579 74.4737 79.9373Z" fill="#E87361"/>
<path d="M89.3139 91.9655C94.3521 91.9655 98.4364 87.8812 98.4364 82.843C98.4364 77.8048 94.3521 73.7205 89.3139 73.7205C84.2757 73.7205 80.1914 77.8048 80.1914 82.843C80.1914 87.8812 84.2757 91.9655 89.3139 91.9655Z" stroke="white" stroke-width="3" stroke-miterlimit="10"/>
<path d="M72.7783 77.2276C75.4002 75.7883 78.8465 75.9978 81.2791 77.7412" stroke="white" stroke-width="3" stroke-miterlimit="10"/>
<path d="M98.666 80.8901C101.991 81.3429 105.315 81.8024 108.64 82.2551" stroke="white" stroke-width="3" stroke-miterlimit="10"/>
<path d="M65.4535 91.9655C70.4917 91.9655 74.576 87.8812 74.576 82.843C74.576 77.8048 70.4917 73.7205 65.4535 73.7205C60.4153 73.7205 56.3311 77.8048 56.3311 82.843C56.3311 87.8812 60.4153 91.9655 65.4535 91.9655Z" stroke="white" stroke-width="3" stroke-miterlimit="10"/>
</svg>
