<svg width="117" height="131" viewBox="0 0 117 131" fill="none" xmlns="http://www.w3.org/2000/svg">
<path d="M57.9292 98.655L92.5532 99.676C82.1822 78.634 85.2012 28.081 85.2012 28.081L58.4312 26.952V26.909L57.9212 26.931L57.4112 26.909V26.952L30.6412 28.081C30.6412 28.081 34.6962 78.633 24.3262 99.676L57.9292 98.655Z" fill="#202020"/>
<path d="M45.6228 86.495L19.1088 102.088C19.1088 102.088 -0.0112028 110.521 1.5518 129.515H56.7978H59.1358H115.419C116.907 111.114 97.8618 102.088 97.8618 102.088L70.3168 86.495" fill="#202020"/>
<path d="M45.6228 86.495L19.1088 102.088C19.1088 102.088 -0.0112028 110.521 1.5518 129.515H56.7978H59.1358H115.419C116.907 111.114 97.8618 102.088 97.8618 102.088L70.3168 86.495" stroke="#202020" stroke-width="1.154" stroke-miterlimit="10" stroke-linejoin="round"/>
<path d="M70.5071 86.606V51.214H45.8131V86.495L31.7031 94.682C31.7031 94.682 52.9171 114.87 83.9411 94.508L70.5071 86.606Z" fill="#F5F5F3" stroke="#202020" stroke-width="1.0227" stroke-miterlimit="10" stroke-linejoin="round"/>
<path d="M45.8125 66.539C45.8125 66.539 47.8555 77.624 57.5705 77.825C70.3245 78.089 70.1145 67.032 70.1145 67.032C70.1145 67.032 68.3755 70.284 58.5135 70.296C47.5155 70.309 45.8125 66.539 45.8125 66.539Z" fill="#202020"/>
<path d="M57.9646 55.403C73.0541 55.403 85.2866 43.1705 85.2866 28.081C85.2866 12.9915 73.0541 0.759003 57.9646 0.759003C42.875 0.759003 30.6426 12.9915 30.6426 28.081C30.6426 43.1705 42.875 55.403 57.9646 55.403Z" fill="#202020"/>
<path d="M81.9982 39.47C81.9982 39.47 83.9922 36.298 88.1062 37.858C92.2192 39.418 90.3592 49.408 84.1882 50.681C84.1882 50.681 81.9762 51.163 80.2422 49.649C80.2422 49.649 81.7592 42.271 81.9982 39.47Z" fill="#F5F5F3" stroke="#202020" stroke-width="1.0572" stroke-miterlimit="10" stroke-linejoin="round"/>
<path d="M87.2894 41.383C87.2894 41.383 83.8434 40.233 81.3984 45.307" stroke="#202020" stroke-width="0.5648" stroke-miterlimit="10" stroke-linecap="round" stroke-linejoin="round"/>
<path d="M83.0703 42.824C83.0703 42.824 86.8193 44.829 84.3433 47.843" stroke="#202020" stroke-width="0.5648" stroke-miterlimit="10" stroke-linecap="round" stroke-linejoin="round"/>
<path d="M34.7605 39.47C34.7605 39.47 32.7665 36.298 28.6525 37.858C24.5395 39.418 26.3995 49.408 32.5705 50.681C32.5705 50.681 34.7824 51.163 36.5164 49.649C36.5164 49.649 34.9995 42.271 34.7605 39.47Z" fill="#F5F5F3" stroke="#202020" stroke-width="1.0572" stroke-miterlimit="10" stroke-linejoin="round"/>
<path d="M29.4688 41.383C29.4688 41.383 32.9148 40.233 35.3598 45.307" stroke="#202020" stroke-width="0.5648" stroke-miterlimit="10" stroke-linecap="round" stroke-linejoin="round"/>
<path d="M33.6871 42.824C33.6871 42.824 29.938 44.829 32.414 47.843" stroke="#202020" stroke-width="0.5648" stroke-miterlimit="10" stroke-linecap="round" stroke-linejoin="round"/>
<path d="M82.3861 30.862C82.3881 37.264 81.7261 50.658 77.5761 58.607C73.6801 66.071 67.2361 70.088 58.7871 70.327C50.3381 70.566 44.0441 67.478 39.0001 57.791C33.9561 48.104 34.1971 30.981 34.1971 30.981C34.1971 30.981 34.1971 8.11099 58.0301 8.11099C83.1321 8.11099 82.3861 30.862 82.3861 30.862Z" fill="#F5F5F3" stroke="#202020" stroke-width="1.154" stroke-miterlimit="10" stroke-linejoin="round"/>
<path d="M56.5918 41.271V45.624C56.5918 45.864 56.6378 46.093 56.7218 46.304C57.0518 47.131 58.0038 47.527 58.8638 47.298L60.2748 46.923" fill="#F5F5F3"/>
<path d="M56.5918 41.271V45.624C56.5918 45.864 56.6378 46.093 56.7218 46.304C57.0518 47.131 58.0038 47.527 58.8638 47.298L60.2748 46.923" stroke="#202020" stroke-width="0.8524" stroke-miterlimit="10" stroke-linecap="round" stroke-linejoin="round"/>
<path d="M47.0568 39.392C48.0741 39.392 48.8988 38.5673 48.8988 37.55C48.8988 36.5327 48.0741 35.708 47.0568 35.708C46.0395 35.708 45.2148 36.5327 45.2148 37.55C45.2148 38.5673 46.0395 39.392 47.0568 39.392Z" fill="#202020"/>
<path d="M68.2228 39.392C69.2401 39.392 70.0648 38.5673 70.0648 37.55C70.0648 36.5327 69.2401 35.708 68.2228 35.708C67.2055 35.708 66.3809 36.5327 66.3809 37.55C66.3809 38.5673 67.2055 39.392 68.2228 39.392Z" fill="#202020"/>
<path d="M50.3935 39.565L45.8145 42.587" stroke="#202020" stroke-width="0.4919" stroke-miterlimit="10" stroke-linecap="round" stroke-linejoin="round"/>
<path d="M65.3223 39.55L69.3733 42.603" stroke="#202020" stroke-width="0.4919" stroke-miterlimit="10" stroke-linecap="round" stroke-linejoin="round"/>
<path d="M50.1875 51.565C50.1875 51.565 52.3405 53.215 58.0045 53.215C63.1545 53.215 66.3715 51.565 66.3715 51.565" fill="#F5F5F3"/>
<path d="M50.1875 51.565C50.1875 51.565 52.3405 53.215 58.0045 53.215C63.1545 53.215 66.3715 51.565 66.3715 51.565" stroke="#202020" stroke-width="0.8524" stroke-miterlimit="10" stroke-linecap="round" stroke-linejoin="round"/>
<path d="M55.9902 56.453C55.9902 56.453 58.6953 56.278 60.7133 55.402" stroke="#202020" stroke-width="0.4919" stroke-miterlimit="10" stroke-linecap="round" stroke-linejoin="round"/>
<path d="M53.1071 30.048L40.0352 33.425C40.0352 33.425 40.6292 29.758 45.9772 28.426C51.3252 27.094 53.1071 30.048 53.1071 30.048Z" fill="#202020"/>
<path d="M61.4141 30.048L74.4861 33.425C74.4861 33.425 73.8921 29.758 68.5441 28.426C63.1961 27.094 61.4141 30.048 61.4141 30.048Z" fill="#202020"/>
<path d="M81.3252 20.274C81.1322 20.619 80.9632 20.972 80.8042 21.328C78.9832 16.061 75.1832 10.494 67.3322 8.15599C67.3392 8.13699 67.3482 8.11098 67.3482 8.11098C53.1902 2.01198 47.0552 5.79698 47.0552 5.79698C27.5812 16.709 33.1602 32.017 33.1602 32.017C33.2312 32.02 33.3002 32.018 33.3702 32.02C33.3142 34.757 33.6482 37.457 34.7602 39.47C34.7602 39.47 36.2412 36.215 36.9002 31.957C52.0182 30.979 60.4642 20.843 64.4442 14.103C66.1482 18.747 70.2002 25.142 79.6862 31.274C80.2812 35.862 81.9232 39.47 81.9232 39.47C85.3892 33.2 81.3252 20.274 81.3252 20.274Z" fill="#202020"/>
</svg>
