<svg width="125" height="138" viewBox="0 0 125 138" fill="none" xmlns="http://www.w3.org/2000/svg">
<path d="M38.532 56.7152C40.1343 64.6458 43.873 70.5938 45.5421 72.5764C59.563 88.4376 73.582 78.0287 77.5878 72.5764C80.7925 68.2146 82.9289 61.5066 83.5965 58.6979L84.598 57.7065C86.2671 58.3674 90.1059 58.3013 92.1088 52.7499C94.1117 47.1985 92.2757 43.828 91.1074 42.8367H88.103L85.5994 43.828L84.598 31.5C84.598 25.0635 81.5 10 62.5 9C42 7.92101 33.8579 31.106 36.5285 43.828L33.024 41.8454C30.8542 42.0106 27.2156 44.1254 30.0197 51.2629C32.8237 58.4005 36.8629 57.8718 38.532 56.7152Z" fill="#F6F6F4"/>
<path d="M121.926 137H2.99792C1.49903 127 17.6158 103.121 27.9979 101.5C37.4979 100.016 46 94.5 45 89.5V72C57.5764 86.1085 74.4099 74.9987 78 72V92C81.8697 96.6537 91.1955 98.8245 97 102C120.387 114.794 122.61 130.17 121.926 137Z" fill="#F6F6F4"/>
<path d="M97.0438 101.317C97.0438 101.317 79.2009 97.2766 77.9473 91.4412V72.7191" stroke="#1A1A1A" stroke-width="1.524" stroke-miterlimit="10" stroke-linecap="round" stroke-linejoin="round"/>
<path d="M45.1623 72.7191V91.4412C45.1623 91.4412 41.3242 99.1675 27.8555 101.502" stroke="#1A1A1A" stroke-width="1.524" stroke-miterlimit="10" stroke-linecap="round" stroke-linejoin="round"/>
<path d="M0.712891 137.821C0.712891 114.506 27.6713 100.869 27.6713 100.869L61.6509 114.975L97.3857 100.869C97.3857 100.869 124.344 114.506 124.344 137.821H0.712891Z" fill="#1A1A1A"/>
<path d="M45.5234 73.2237C45.5234 73.2237 50.3628 82.8304 58.1923 87.2922C63.8774 90.5327 71.2313 89.2759 75.0903 83.9912C77.0145 81.3546 78.4809 77.4748 78.4809 71.7699C78.4809 71.7699 72.2107 80.0259 62.8626 80.4139C53.5156 80.8019 45.5234 73.2237 45.5234 73.2237Z" fill="#1A1A1A"/>
<path d="M85.5507 35.876C85.5507 35.876 88.5419 80.4145 61.6169 80.4145C34.6909 80.4145 36.8519 35.876 36.8519 35.876C36.8519 35.876 35.5524 9.389 62.5285 9.389C87.6367 9.389 85.5507 35.876 85.5507 35.876Z" stroke="#1A1A1A" stroke-width="1.524" stroke-miterlimit="10"/>
<path d="M85.5419 44.6641C85.5419 44.6641 88.0627 41.02 91.0529 42.7878C94.043 44.5556 93.0918 51.0804 91.0529 54.3427C89.0139 57.6051 85.7223 59.2175 83.9023 56.7123" stroke="#1A1A1A" stroke-width="1.524" stroke-miterlimit="10"/>
<path d="M90.7261 46.8666C90.7261 46.8666 87.3574 45.7423 84.9648 50.7047" stroke="#1A1A1A" stroke-width="0.762667" stroke-miterlimit="10" stroke-linecap="round" stroke-linejoin="round"/>
<path d="M86.6016 48.2767C86.6016 48.2767 90.2686 50.2375 87.8458 53.1859" stroke="#1A1A1A" stroke-width="0.762667" stroke-miterlimit="10" stroke-linecap="round" stroke-linejoin="round"/>
<path d="M37.0311 44.6641C37.0311 44.6641 34.5103 41.02 31.5201 42.7878C28.5289 44.5556 29.4811 51.0804 31.5201 54.3428C33.5591 57.6051 36.8507 59.2175 38.6706 56.7124" stroke="#1A1A1A" stroke-width="1.524" stroke-miterlimit="10"/>
<path d="M31.8516 46.8666C31.8516 46.8666 35.2214 45.7423 37.6129 50.7047" stroke="#1A1A1A" stroke-width="0.762667" stroke-miterlimit="10" stroke-linecap="round" stroke-linejoin="round"/>
<path d="M35.9728 48.2767C35.9728 48.2767 32.3058 50.2375 34.7275 53.1859" stroke="#1A1A1A" stroke-width="0.762667" stroke-miterlimit="10" stroke-linecap="round" stroke-linejoin="round"/>
<path d="M86.4924 21.8958C86.4924 17.6895 84.0227 13.8765 80.1836 12.1577L75.7353 9.80162C73.6515 4.57431 69.27 -0.145072 60.1734 0.0927223C59.3307 0.114624 58.4973 0.274195 57.6974 0.538064C55.1578 1.37452 49.993 3.70031 48.8114 8.93492L42.7268 12.1577C38.8876 13.8765 36.4169 17.6895 36.4169 21.8958V37.78C36.3762 38.9095 36.372 40.0224 36.4169 41.0883V41.2479C36.4169 41.2479 36.4169 41.1936 36.4179 41.1112C36.4617 42.1365 36.5483 43.12 36.6943 44.0284C36.6943 44.0284 42.1896 33.0012 41.1508 26.15C40.7879 23.7491 41.1394 21.2585 42.5109 19.2539C42.8665 18.7346 43.2472 18.2485 43.6539 17.8042C45.5125 15.7726 47.5118 14.4052 49.409 13.4697C50.6908 17.1816 54.2421 22.4652 64.0667 24.6669C64.0667 24.6669 57.6087 20.3584 53.9844 15.2365C57.1394 18.2402 63.8102 22.2034 77.4093 23.1421C77.4093 23.1421 77.8359 19.5272 77.1611 15.1635C78.1143 15.8549 79.054 16.6612 79.9468 17.6363C79.9593 17.6499 79.9718 17.6645 79.9854 17.6791C81.9837 19.8849 82.6585 22.9888 82.014 25.8945C80.1825 34.1359 85.5861 44.0284 85.5861 44.0284C85.8166 42.5933 85.9084 40.9631 85.9094 39.2568C85.9396 40.6137 85.9198 41.5274 85.9136 41.7453L86.4924 21.8958Z" fill="#1A1A1A"/>
<path d="M60.0273 43.8254V53.163C60.0273 53.4529 60.0837 53.7314 60.1848 53.9869C60.5864 54.9892 61.7399 55.469 62.7828 55.1915L65.0252 54.595" stroke="#1A1A1A" stroke-width="1.44267" stroke-miterlimit="10" stroke-linecap="round" stroke-linejoin="round"/>
<path d="M57.8804 29.0197C57.6853 29.3117 56.5151 33.0153 56.5151 33.0153H43.6523L48.0192 30.5403C49.1258 29.9865 50.3283 29.6496 51.5611 29.5464L57.8804 29.0197Z" fill="#1A1A1A"/>
<path d="M65.9902 29.0197C66.1853 29.3117 67.3544 33.0153 67.3544 33.0153H80.2183L75.8514 30.5403C74.7448 29.9865 73.5413 29.6496 72.3085 29.5464L65.9902 29.0197Z" fill="#1A1A1A"/>
<path d="M53.6505 41.7965C53.6505 43.0292 52.6513 44.0284 51.4175 44.0284C50.1847 44.0284 49.1855 43.0292 49.1855 41.7965C49.1855 40.5626 50.1847 39.5635 51.4175 39.5635C52.6513 39.5635 53.6505 40.5626 53.6505 41.7965Z" fill="#1A1A1A"/>
<path d="M74.459 41.7965C74.459 43.0292 73.4599 44.0284 72.2261 44.0284C70.9933 44.0284 69.9941 43.0292 69.9941 41.7965C69.9941 40.5626 70.9933 39.5635 72.2261 39.5635C73.4599 39.5635 74.459 40.5626 74.459 41.7965Z" fill="#1A1A1A"/>
<path d="M55.4677 44.0285L49.916 47.6924" stroke="#1A1A1A" stroke-width="0.762667" stroke-miterlimit="10" stroke-linecap="round" stroke-linejoin="round"/>
<path d="M68.7109 44.432L73.6233 48.1335" stroke="#1A1A1A" stroke-width="0.762667" stroke-miterlimit="10" stroke-linecap="round" stroke-linejoin="round"/>
<path d="M54.2617 58.7425C54.2617 58.7425 57.9288 61.303 62.3738 61.303C66.8189 61.303 69.8894 58.7425 69.8894 58.7425" stroke="#1A1A1A" stroke-width="1.44267" stroke-miterlimit="10" stroke-linecap="round" stroke-linejoin="round"/>
<path d="M63.1152 72.4237L62.2715 75.1886" stroke="#1A1A1A" stroke-width="0.762667" stroke-miterlimit="10" stroke-linecap="round" stroke-linejoin="round"/>
</svg>
