<svg width="416" height="359" viewBox="0 0 416 359" fill="none" xmlns="http://www.w3.org/2000/svg">
<path d="M319.029 127.312C310.679 154.282 300.009 180.532 287.199 205.682" stroke="#4D223D" stroke-miterlimit="10"/>
<path d="M299.439 180.282C318.419 170.822 335.949 158.462 351.239 143.772" stroke="#4D223D" stroke-miterlimit="10"/>
<path d="M319.199 169.512C332.729 172.382 346.899 172.142 360.329 168.832" stroke="#4D223D" stroke-miterlimit="10"/>
<path d="M319.03 133.452C322.421 133.452 325.17 130.703 325.17 127.312C325.17 123.921 322.421 121.172 319.03 121.172C315.639 121.172 312.89 123.921 312.89 127.312C312.89 130.703 315.639 133.452 319.03 133.452Z" fill="#E64363"/>
<path d="M351.99 148.762C355.381 148.762 358.13 146.013 358.13 142.622C358.13 139.231 355.381 136.482 351.99 136.482C348.599 136.482 345.85 139.231 345.85 142.622C345.85 146.013 348.599 148.762 351.99 148.762Z" fill="#E64363"/>
<path d="M360.329 174.972C363.72 174.972 366.469 172.223 366.469 168.832C366.469 165.441 363.72 162.692 360.329 162.692C356.938 162.692 354.189 165.441 354.189 168.832C354.189 172.223 356.938 174.972 360.329 174.972Z" fill="#E64363"/>
<path d="M279.949 140.592C279.499 161.862 281.119 183.182 284.769 204.142" stroke="#4D223D" stroke-miterlimit="10"/>
<path d="M296.949 152.822C292.959 159.572 287.459 165.422 280.979 169.812" stroke="#4D223D" stroke-miterlimit="10"/>
<path d="M280.38 165.782C274.16 163.062 268.34 158.882 263.3 153.512" stroke="#4D223D" stroke-miterlimit="10"/>
<path d="M297.39 158.352C300.781 158.352 303.53 155.603 303.53 152.212C303.53 148.821 300.781 146.072 297.39 146.072C293.999 146.072 291.25 148.821 291.25 152.212C291.25 155.603 293.999 158.352 297.39 158.352Z" fill="#E64363"/>
<path d="M280.16 146.722C283.551 146.722 286.3 143.973 286.3 140.582C286.3 137.191 283.551 134.442 280.16 134.442C276.768 134.442 274.02 137.191 274.02 140.582C274.02 143.973 276.768 146.722 280.16 146.722Z" fill="#E64363"/>
<path d="M262.45 159.002C265.841 159.002 268.59 156.253 268.59 152.862C268.59 149.471 265.841 146.722 262.45 146.722C259.059 146.722 256.31 149.471 256.31 152.862C256.31 156.253 259.059 159.002 262.45 159.002Z" fill="#E64363"/>
<path d="M84.0801 111.842C99.0001 147.672 121.65 180.252 150.03 206.732" stroke="#4D223D" stroke-miterlimit="10"/>
<path d="M132.4 123.352C138.22 149.472 142.87 175.862 146.31 202.402" stroke="#4D223D" stroke-miterlimit="10"/>
<path d="M121.65 160.462C127.38 167.532 134.96 173.092 143.43 176.442" stroke="#4D223D" stroke-miterlimit="10"/>
<path d="M106.77 103.572C109.08 119.912 108.77 136.622 105.83 152.862" stroke="#4D223D" stroke-miterlimit="10"/>
<path d="M97.4099 140.122C87.1099 138.762 77.2999 133.952 69.9199 126.632" stroke="#4D223D" stroke-miterlimit="10"/>
<path d="M82.7794 115.472C86.7393 115.472 89.9494 112.262 89.9494 108.302C89.9494 104.342 86.7393 101.132 82.7794 101.132C78.8195 101.132 75.6094 104.342 75.6094 108.302C75.6094 112.262 78.8195 115.472 82.7794 115.472Z" fill="#E64363"/>
<path d="M107.359 108.302C111.319 108.302 114.529 105.092 114.529 101.132C114.529 97.1724 111.319 93.9623 107.359 93.9623C103.4 93.9623 100.189 97.1724 100.189 101.132C100.189 105.092 103.4 108.302 107.359 108.302Z" fill="#E64363"/>
<path d="M67.0596 132.732C71.0195 132.732 74.2296 129.522 74.2296 125.562C74.2296 121.602 71.0195 118.392 67.0596 118.392C63.0998 118.392 59.8896 121.602 59.8896 125.562C59.8896 129.522 63.0998 132.732 67.0596 132.732Z" fill="#E64363"/>
<path d="M121.69 166.362C125.649 166.362 128.86 163.152 128.86 159.192C128.86 155.232 125.649 152.022 121.69 152.022C117.73 152.022 114.52 155.232 114.52 159.192C114.52 163.152 117.73 166.362 121.69 166.362Z" fill="#E64363"/>
<path d="M286.05 296.432L285.04 296.032C301.75 253.642 332.23 217.012 370.88 192.872L371.46 193.792C333.01 217.812 302.68 254.262 286.05 296.432Z" fill="#46B08D"/>
<path d="M351.91 206.402C349.99 198.112 354.11 189.262 360.56 183.722C367.02 178.182 375.45 175.482 383.83 174.012C394.29 172.162 405.04 172.012 415.55 173.552C410.63 185.802 401.09 196.132 389.28 202.022C377.47 207.912 363.48 209.302 351.91 206.402Z" fill="#46B08D"/>
<path d="M335.25 222.182C344.75 214.492 357.07 210.352 369.29 210.742C381.51 211.132 393.54 216.042 402.54 224.322C391.73 229.892 380.16 234.522 368.02 235.312C355.88 236.092 343.03 232.592 335.25 222.182Z" fill="#46B08D"/>
<path d="M310.41 251.012C320.01 243.132 332.29 238.592 344.71 238.332C357.13 238.072 369.59 242.102 379.5 249.582C370.11 258.392 357.5 263.682 344.64 264.222C331.78 264.762 318.77 260.542 310.41 251.012Z" fill="#46B08D"/>
<path d="M335.64 221.342C340.5 211.572 344.9 201.302 345.75 190.422C346.6 179.542 343.38 167.842 335.11 160.722C330.02 170.612 324.83 180.792 323.65 191.852C322.47 202.902 326.17 215.202 335.64 221.342Z" fill="#46B08D"/>
<path d="M312.46 246.332C324.85 226.342 323 198.552 308.07 180.382C295.78 198.862 295.21 224.462 312.46 246.332Z" fill="#46B08D"/>
<path d="M263.55 343.322C275.28 315.702 298.08 292.962 325.73 281.312C353.38 269.662 385.58 269.232 415.23 281.332C404.15 310.082 380.8 333.872 352.25 345.462C323.71 357.052 290.38 356.292 263.55 343.322Z" fill="#62BBBF"/>
<path d="M401.95 286.822C354.97 295.712 310.51 317.522 274.74 349.232" stroke="#33819E" stroke-miterlimit="10"/>
<path d="M369.19 275.222C362.22 282.842 356.57 291.662 352.55 301.172" stroke="#33819E" stroke-miterlimit="10"/>
<path d="M342.41 278.212C330.07 288.462 321.09 302.692 317.16 318.242" stroke="#33819E" stroke-miterlimit="10"/>
<path d="M394.581 305.282C386.071 300.992 376.941 297.932 367.561 296.232" stroke="#33819E" stroke-miterlimit="10"/>
<path d="M367.091 331.802C355.011 323.252 341.191 317.162 326.721 314.042" stroke="#33819E" stroke-miterlimit="10"/>
<path d="M317.211 348.942C310.331 343.202 303.451 337.462 296.561 331.722" stroke="#33819E" stroke-miterlimit="10"/>
<path d="M153.99 344.732C121.22 315.772 76.61 302.992 34.65 310.552L34.5 309.592C76.72 301.992 121.61 314.842 154.58 343.982L153.99 344.732Z" fill="#46B08D"/>
<path d="M65.9097 307.602C56.1397 299.792 43.2397 296.602 31.2397 299.032C19.2397 301.462 8.32969 309.482 1.92969 320.572C22.2797 326.232 44.9397 321.552 65.9097 307.602Z" fill="#46B08D"/>
<path d="M83.0997 309.422C73.2697 306.462 64.3697 300.052 58.1397 291.412C51.8997 282.782 48.3597 271.972 48.1797 261.072C59.4197 261.422 70.4297 267.152 77.5897 276.412C84.7597 285.662 87.9697 298.272 83.0997 309.422Z" fill="#46B08D"/>
<path d="M95.1593 313.082C83.2693 312.502 70.9793 313.262 60.2093 318.642C49.4393 324.032 40.4293 334.862 39.5693 347.522C60.9893 345.802 81.3893 332.902 95.1593 313.082Z" fill="#46B08D"/>
<path d="M116.35 319.982C106.34 314.772 98.3897 305.242 94.6897 294.032C90.9897 282.822 91.5996 270.082 96.3396 259.332C111.81 273.802 119.68 296.962 116.35 319.982Z" fill="#46B08D"/>
<path d="M126.329 325.402C115.849 322.522 104.379 324.012 94.8594 329.502C85.3394 334.992 77.8794 344.412 74.3994 355.342C94.7994 356.512 115.329 343.922 126.329 325.402Z" fill="#46B08D"/>
<path d="M152.66 343.092C145.76 337.792 136.72 335.802 128.42 337.762C120.12 339.722 112.71 345.602 108.55 353.512C123.81 357.062 140.25 354.572 152.66 343.092Z" fill="#46B08D"/>
<path d="M134.27 331.082C123.01 313.952 121.41 290.142 130.26 271.472C135.94 279.952 140.16 289.672 141.69 299.972C143.22 310.262 141.95 321.152 134.27 331.082Z" fill="#46B08D"/>
<path d="M144.049 286.612C141.759 256.462 124.759 227.772 99.4092 211.282C74.0592 194.792 40.9292 190.902 12.4492 201.052C16.6192 229.642 33.0292 256.232 56.6992 272.792C80.3692 289.352 110.979 295.632 144.049 286.612Z" fill="#62BBBF"/>
<path d="M137.129 282.982C120.119 266.982 103.059 250.942 84.2493 237.112C65.4393 223.282 44.7293 211.642 22.2393 205.382" stroke="#33829E" stroke-miterlimit="10"/>
<path d="M30.1191 227.882C40.1991 225.012 50.5091 222.912 60.9091 221.612" stroke="#33829E" stroke-miterlimit="10"/>
<path d="M56.0791 262.392C68.0591 256.082 80.0291 249.762 92.0091 243.452" stroke="#33829E" stroke-miterlimit="10"/>
<path d="M72.6592 203.612C74.5192 212.332 75.3992 221.262 75.2692 230.182" stroke="#33829E" stroke-miterlimit="10"/>
<path d="M183.09 358.492H245.21H255.08V335.072V327.152V325.752V320.292H244.14H233.4H208.22H190.52H190.45H181.09H180.07H170.62V358.492H183.09Z" fill="#6F4659"/>
<path d="M161.33 24.5023C150.98 20.4023 140.08 25.4623 133.9 34.7123C129.55 41.2123 128.56 49.3923 128.65 57.2123C128.74 65.0323 129.26 72.1523 126.99 79.6323C117.28 111.682 111.25 102.512 108.75 125.312C108.24 130.462 108.6 135.962 111.44 140.282C114.28 144.602 120.2 147.192 124.61 140.782C125.69 144.992 127.33 149.162 130.16 152.472C132.99 155.782 137.15 158.142 141.5 158.032C145.85 157.922 150.2 154.972 152.21 149.862C157.09 156.392 164.91 160.632 173.04 161.152C181.17 161.672 189.47 158.462 193.78 152.432C202.76 157.092 213.28 158.722 223.24 156.982C233.2 155.242 242.55 150.152 249.92 142.432C254.45 146.862 262.23 146.162 267.46 142.582C272.69 139.002 275.96 133.272 279.89 128.282C282.86 131.002 287.67 131.032 291.15 129.012C294.63 126.992 296.89 123.292 298.01 119.422C299.13 115.552 299.26 111.482 300.51 106.432C301.14 108.642 303.96 109.702 306.13 108.942C308.3 108.182 309.76 106.062 310.34 103.842C310.92 101.622 310.77 99.2823 309.77 96.8223C304.52 64.3023 282.84 58.5423 273 52.1123C261.44 44.5623 256.08 30.6123 247.16 20.0723C231.86 2.02228 204.75 -4.89772 182.68 3.62228C172.04 7.73228 161.88 16.5923 161.33 24.5023Z" fill="#A83246"/>
<mask id="mask0_157_1311" style="mask-type:luminance" maskUnits="userSpaceOnUse" x="108" y="0" width="203" height="162">
<path d="M161.33 24.5023C150.98 20.4023 140.08 25.4623 133.9 34.7123C129.55 41.2123 128.56 49.3923 128.65 57.2123C128.74 65.0323 132.69 74.5223 129.55 81.6823C120.85 101.502 109.58 104.132 108.75 125.322C108.24 130.472 108.6 135.972 111.44 140.292C114.28 144.612 120.2 147.202 124.61 140.792C125.69 145.002 127.33 149.172 130.16 152.482C132.99 155.792 137.15 158.152 141.5 158.042C145.85 157.932 150.2 154.982 152.21 149.872C157.09 156.402 164.91 160.642 173.04 161.162C181.17 161.682 189.47 158.472 193.78 152.442C202.76 157.102 213.28 158.732 223.24 156.992C233.2 155.252 242.55 150.162 249.92 142.442C254.45 146.872 262.23 146.172 267.46 142.592C272.69 139.012 275.96 133.282 279.89 128.292C282.86 131.012 287.67 131.042 291.15 129.022C294.63 127.002 296.89 123.302 298.01 119.432C299.13 115.562 299.26 111.492 300.51 106.442C301.14 108.652 303.96 109.712 306.13 108.952C308.3 108.192 309.76 106.072 310.34 103.852C310.92 101.632 310.77 99.2923 309.77 96.8323C307.38 84.4523 304.34 70.9723 294.39 63.2423C288.03 58.3023 279.74 56.5223 273 52.1223C261.44 44.5723 256.08 30.6223 247.16 20.0823C231.86 2.03229 204.75 -4.88771 182.68 3.63229C172.04 7.73229 161.88 16.5923 161.33 24.5023Z" fill="white"/>
</mask>
<g mask="url(#mask0_157_1311)">
<path d="M171.37 67.3923C171.37 67.3923 133.6 121.672 144.86 161.222C144.86 161.222 240.69 183.272 262.81 166.112C284.93 148.952 287.81 146.932 287.81 146.932C287.81 146.932 273.75 99.4723 245.1 80.6023C216.69 61.9023 171.37 67.3923 171.37 67.3923Z" fill="#701934"/>
<path d="M128.51 81.0623C130.41 74.3023 128.46 57.8623 130.14 51.0523C134.94 31.5623 155.69 25.5523 162.73 27.2223C184.21 -8.74772 236.8 14.9123 251.11 22.5223C241.09 11.4323 219.67 -3.90772 204.73 -4.04772C189.79 -4.18772 174.9 2.19228 164.69 13.0923C162.78 15.1323 160.97 17.3623 158.52 18.6923C154.95 20.6223 150.65 20.3323 146.68 21.1523C138.42 22.8623 131.81 29.5123 128.32 37.1823C124.83 44.8523 124.02 53.4723 123.95 61.9123C123.85 70.3423 124.44 78.8123 128.51 81.0623Z" fill="#C95559"/>
</g>
<path d="M259.641 38.1723C259.641 38.1723 269.911 55.4223 285.451 62.5323C300.991 69.6423 317.921 102.452 302.691 108.842C302.691 108.842 311.611 112.282 313.911 98.5223C315.751 87.5423 306.691 68.3823 286.871 58.7823C274.331 52.7023 262.231 43.2823 259.641 38.1723Z" fill="#C95559"/>
<path d="M125.79 82.9523C125.79 82.9523 121.05 98.0423 113.54 106.842C106.53 115.062 96.2904 136.862 116.79 144.292C116.79 144.292 104.07 133.312 111.44 120.192C118.8 107.062 125.79 95.0623 125.79 82.9523Z" fill="#C95559"/>
<path d="M193.56 141.342L186.5 168.262C186.5 168.262 207.56 198.282 239.51 163.932L230.97 134.942C230.97 134.952 204.35 144.312 193.56 141.342Z" fill="#F18361"/>
<path d="M161.17 97.1523C161.17 97.1523 148.59 79.7823 142.75 98.1423C138.87 110.342 147.95 131.332 167.09 117.032C167.09 117.032 163.13 115.252 161.6 106.582C160.3 99.2123 161.17 97.1523 161.17 97.1523Z" fill="#FBA07F"/>
<path d="M156.961 126.692C159.645 126.692 161.821 124.516 161.821 121.832C161.821 119.148 159.645 116.972 156.961 116.972C154.276 116.972 152.101 119.148 152.101 121.832C152.101 124.516 154.276 126.692 156.961 126.692Z" fill="#C0F0F0"/>
<path d="M251.03 87.1723C251.03 87.1723 267.72 69.9123 270.22 89.0223C271.7 100.352 264.25 121.352 245.11 107.052C245.11 107.052 249.07 105.272 250.6 96.6023C251.9 89.2323 251.03 87.1723 251.03 87.1723Z" fill="#FBA07F"/>
<path d="M259.59 116.722C262.275 116.722 264.45 114.546 264.45 111.862C264.45 109.178 262.275 107.002 259.59 107.002C256.906 107.002 254.73 109.178 254.73 111.862C254.73 114.546 256.906 116.722 259.59 116.722Z" fill="#C0F0F0"/>
<path d="M154.47 65.8623C151.03 91.7323 156.64 144.382 200.06 149.512C222.08 152.112 237.61 141.822 247.22 128.402C256.83 114.982 257.91 92.4723 255.78 76.1123C254.81 68.6823 255.83 69.9523 251.67 63.7223C246.04 55.2923 237.06 49.7523 228.13 44.9423C218.7 39.8623 208.87 35.2523 198.36 33.1923C187.85 31.1323 176.52 31.8023 167.07 36.8423C157.62 41.8823 156.46 50.8823 154.47 65.8623Z" fill="#F9AF88"/>
<path d="M152.74 82.1223C159.22 79.0023 165.74 73.9323 168.43 67.2623C170.39 62.4023 174.32 55.9923 171.6 50.5523C179.32 59.9123 193.3 63.5323 205.3 65.3523C217.3 67.1723 228.62 69.1223 240.71 70.1223C244.04 70.3923 247.41 70.8023 250.51 72.0523C253.61 73.3023 255.11 75.5023 256.5 78.5423C257.66 73.5623 256.4 68.2723 252.47 65.0123C248.54 61.7523 243.48 60.1823 238.48 59.1123C228.04 56.8723 217.3 56.4623 206.76 54.7723C196.23 53.0923 185.56 49.9323 177.38 43.0723C175.86 41.7923 174.42 40.3823 172.67 39.4523C170.92 38.5223 168.74 38.1223 166.95 38.9723C164.47 40.1623 163.59 43.2023 163.17 45.9123C162.17 52.3723 162.25 58.9723 160.98 65.3823C159.72 71.8023 154.79 77.5123 152.74 82.1223Z" fill="#F18361"/>
<path d="M238.58 94.9723C231.67 89.3523 225.62 91.3023 220.68 98.1423C224.55 95.6923 227.32 94.2523 232.03 94.4523C234 94.5623 234.79 94.7023 236.74 95.0423C237.56 95.0423 240.35 96.2523 238.58 94.9723Z" fill="#2F3961"/>
<path d="M179.729 100.282C177.559 101.112 175.979 102.982 174.869 104.962C174.549 105.542 174.269 106.142 174.069 106.772C174.679 106.202 175.349 105.712 176.029 105.222C178.149 103.682 179.379 103.042 181.649 102.402C184.219 101.602 184.619 101.502 186.999 101.512C188.389 101.622 189.339 101.642 190.809 102.372C188.239 99.1923 183.339 98.7023 179.729 100.282Z" fill="#2F3961"/>
<path d="M178.92 69.4123C174.4 69.1023 171.18 68.8923 167.92 71.4323C163.65 74.7623 163.24 75.8723 161.7 79.6323C160.66 77.3723 161.78 72.8723 163.15 70.8023C165.04 67.9523 166.1 66.5223 169.34 65.4123C172.58 64.3123 175.41 63.8023 178.65 64.9123C179.88 65.3323 181.78 65.9823 181.92 67.4723C182.03 68.7723 180.95 69.5523 178.92 69.4123Z" fill="#701934"/>
<path d="M218.679 65.2423C223.029 63.9823 226.129 63.0923 229.859 64.8823C234.739 67.2323 235.369 68.2223 237.679 71.5823C238.209 69.1523 236.169 64.9923 234.389 63.2623C231.939 60.8723 230.599 59.7023 227.199 59.3123C223.799 58.9223 220.919 59.0323 217.999 60.7923C216.879 61.4723 215.159 62.5023 215.349 63.9923C215.509 65.2823 216.729 65.8123 218.679 65.2423Z" fill="#701934"/>
<path d="M204.529 104.482C204.529 104.482 202.689 110.322 206.769 115.002C206.769 115.002 199.949 112.482 204.529 104.482Z" fill="#F18361"/>
<path d="M198.739 123.822C198.739 123.822 211.909 129.582 219.649 119.782C219.649 119.792 215.229 131.992 198.739 123.822Z" fill="#C9102C"/>
<path d="M179.95 121.392C190.306 121.392 198.7 113.087 198.7 102.842C198.7 92.5974 190.306 84.2923 179.95 84.2923C169.595 84.2923 161.2 92.5974 161.2 102.842C161.2 113.087 169.595 121.392 179.95 121.392Z" stroke="white" stroke-width="3" stroke-miterlimit="10"/>
<path d="M231.07 113.462C241.426 113.462 249.82 105.157 249.82 94.9123C249.82 84.6674 241.426 76.3623 231.07 76.3623C220.715 76.3623 212.32 84.6674 212.32 94.9123C212.32 105.157 220.715 113.462 231.07 113.462Z" stroke="white" stroke-width="3" stroke-miterlimit="10"/>
<path d="M193.7 89.7023C199.05 84.7723 207.47 83.4923 214.05 86.6223" stroke="white" stroke-width="3" stroke-miterlimit="10"/>
<path d="M247.93 85.2223C251 84.1223 254.06 83.0323 257.13 81.9323" stroke="white" stroke-width="3" stroke-miterlimit="10"/>
<path d="M163.38 95.0423C160.07 94.6823 156.84 93.6723 153.92 92.0823" stroke="white" stroke-width="3" stroke-miterlimit="10"/>
<path d="M154.461 91.0123C154.461 87.4523 154.271 82.8523 156.261 79.3723C158.251 75.8923 161.071 72.9623 163.331 69.6523C168.791 61.6823 170.871 51.4723 168.631 42.1523C169.691 46.1823 173.271 49.0123 176.881 51.0923C192.461 60.0723 211.331 60.2923 229.131 62.8623C235.201 63.7423 241.351 64.9623 246.661 68.0223C251.971 71.0823 255.851 75.8323 256.501 81.9323C262.281 66.5523 250.681 50.5523 237.201 42.5623C228.931 37.6623 219.261 35.8323 209.951 33.4223C200.921 31.0923 191.971 28.1223 182.681 27.3723C173.391 26.6223 163.441 28.3523 156.351 34.4123C151.701 38.3823 148.601 43.9623 146.891 49.8323C145.181 55.7023 144.781 61.8823 144.901 67.9923C144.981 72.1323 145.301 76.3223 146.601 80.2423C147.931 84.1923 150.051 88.0023 154.461 91.0123Z" fill="#A83246"/>
<path d="M183.09 358.492C183.14 350.602 183.09 342.632 182.23 333.912C182.22 333.902 182.22 333.902 182.23 333.892C182.19 333.382 182.14 332.862 182.08 332.352C200.75 337.132 220.57 335.292 238.11 328.532L238.12 328.522C239.56 327.972 240.96 327.382 242.37 326.762L242.4 326.752C242.61 326.662 242.82 326.572 243.02 326.482C243.03 326.472 243.03 326.472 243.04 326.482C243.05 326.472 243.05 326.472 243.06 326.482C243.74 326.172 244.38 325.862 245.05 325.542H245.06C245.14 325.502 245.22 325.462 245.3 325.422C245.29 325.732 245.29 326.052 245.29 326.372C245.28 326.422 245.28 326.472 245.28 326.522C245.28 326.702 245.27 326.892 245.28 327.082C245.28 327.102 245.28 327.112 245.28 327.122C245.27 327.422 245.26 327.712 245.26 328.022C245.23 330.002 245.21 332.042 245.2 334.122C245.15 341.982 245.19 350.342 245.21 358.492H255.08H309.52C309.7 353.872 309.05 345.562 308.19 336.002C307.47 328.032 306.6 319.192 305.92 310.912C293.49 159.972 313.46 200.932 310.7 195.332C308.01 189.882 303.22 185.062 297.29 180.882L297.28 180.872C280.27 168.862 253.85 161.972 240.38 159.762H240.37C239.59 159.632 238.86 159.522 238.18 159.432C235.28 159.012 233.23 158.882 232.35 159.022C226.99 159.862 229.26 163.102 228.44 166.352C228.23 167.172 227.83 167.992 227.06 168.782C226.7 169.142 226.27 169.502 225.74 169.842C213.95 177.482 197.53 177.142 186.72 167.432C186.55 167.292 186.39 167.142 186.22 166.982C184.9 167.082 183.57 167.192 182.25 167.312C172.88 168.152 163.5 169.662 155.1 173.792C150.9 175.852 146.96 178.692 143.74 182.122C134.86 188.402 124.6 201.732 119.83 211.742C119.41 212.602 119.04 213.442 118.72 214.242C124.51 224.452 130.56 245.142 136.5 261.292C136.49 261.312 136.49 261.322 136.5 261.332C137.35 263.642 138.2 265.862 139.04 267.942C138.76 272.012 138.44 276.092 138.12 280.152C137.83 283.882 137.54 287.732 137.27 291.662C136.48 302.982 135.78 314.982 135.16 326.872C134.58 337.712 134.07 348.452 133.63 358.492H170.62H183.09Z" fill="#0A7AC4"/>
<path d="M139.97 292.912C141.27 257.672 143.42 222.472 148.18 185.452C139.91 220.162 135.58 255.802 135.28 291.482C138.13 291.722 140.98 291.972 139.97 292.912Z" fill="#0464AC"/>
<path d="M133.96 202.752C135.67 221.542 137.38 240.332 139.09 259.122C132.81 240.862 131.15 221.042 133.96 202.752Z" fill="#0464AC"/>
<path d="M190.41 154.332C188.23 154.512 187.85 158.492 187.31 160.612C186.62 163.342 186.77 164.172 185.85 164.732C184.02 165.832 182.96 165.212 182.03 167.872C176.94 182.482 182.56 195.142 184.09 211.382C184.41 215.922 184.72 220.462 183.6 224.172C182.77 254.992 181.95 285.822 181.12 316.642C180.97 322.072 181.3 326.162 181.67 329.692C181.93 332.242 181.49 334.742 184.41 336.072C192.26 339.642 245.29 337.822 245.57 333.542C245.93 328.192 244.38 321.842 242.89 313.732C234 265.472 234.09 210.882 240.57 161.972C240.85 159.432 240.42 160.652 239 156.632C238.64 155.632 237.42 150.532 236.56 149.902C234.68 148.532 233.28 150.332 231.4 151.702C220.55 159.612 204.66 160.502 190.41 154.332Z" fill="#FE80AB"/>
<path d="M228.41 166.362C224.08 167.342 220.76 167.472 215.31 167.772C210.05 168.182 204.78 168.072 199.55 167.432C196.88 167.072 193.08 166.702 189.99 165.412C193.81 167.852 198.28 169.082 202.64 170.182C212.59 172.562 223.48 171.392 232.4 166.272C233.09 165.882 234.35 165.212 234.67 164.922C232.6 165.502 230.5 165.912 228.41 166.362Z" fill="#D12863"/>
<path d="M86.7095 145.242C84.6895 144.522 82.3995 145.962 81.4695 147.892C80.5395 149.822 80.6295 152.072 80.8395 154.212C81.0495 156.342 81.3595 158.532 80.7895 160.602C79.3895 165.762 73.4995 168.002 69.5895 171.652C63.3795 177.452 62.4195 187.612 66.2895 195.172C70.1595 202.732 78.0795 207.722 86.3995 209.402C86.4895 212.762 86.5895 216.122 86.6795 219.482C86.7795 222.962 87.0295 226.802 89.4995 229.242C92.6595 232.362 97.8195 231.722 102.14 230.682C106.12 229.732 110.32 228.462 112.93 225.302C116.15 221.412 116.01 215.762 115.05 210.812C114.09 205.852 112.45 200.852 113.45 195.802C117.97 185.812 115.22 173.032 107.01 165.772C103.49 162.662 99.1895 160.572 95.4295 157.752C91.6695 154.932 90.5395 148.812 86.7095 145.242Z" fill="#F9AF88"/>
<path d="M84.38 185.692L0 76.3223L14.81 64.6723L99.18 174.042L84.38 185.692Z" fill="#FED401"/>
<g opacity="0.6706">
<mask id="mask1_157_1311" style="mask-type:luminance" maskUnits="userSpaceOnUse" x="0" y="64" width="100" height="122">
<path d="M84.9795 185.692L0.0195312 76.3323L14.8195 64.6723L99.1795 174.042L84.9795 185.692Z" fill="white"/>
</mask>
<g mask="url(#mask1_157_1311)">
<path d="M0.349493 76.3923C0.349493 76.3923 58.5795 158.452 68.3495 153.832C78.1195 149.222 14.6995 64.7223 14.6995 64.7223C14.6995 64.7223 108.319 171.772 105.879 181.662C103.439 191.552 81.7295 196.372 81.7295 196.372C81.7295 196.372 -3.61051 89.7623 0.349493 76.3923Z" fill="#EB9307"/>
</g>
</g>
<path d="M10.8896 75.1623L16.6796 70.8023" stroke="#014B73" stroke-miterlimit="10"/>
<path d="M24.7998 95.0823L30.5898 90.7223" stroke="#014B73" stroke-miterlimit="10"/>
<path d="M16.1992 76.7023L19.1192 74.3223" stroke="#014B73" stroke-miterlimit="10"/>
<path d="M19.0498 80.6823L21.9698 78.2923" stroke="#014B73" stroke-miterlimit="10"/>
<path d="M21.6592 84.4223L24.5792 82.0323" stroke="#014B73" stroke-miterlimit="10"/>
<path d="M24.46 88.6123L27.38 86.2323" stroke="#014B73" stroke-miterlimit="10"/>
<path d="M39.79 114.532L45.44 109.992" stroke="#014B73" stroke-miterlimit="10"/>
<path d="M30.4404 96.5823L33.2804 94.1023" stroke="#014B73" stroke-miterlimit="10"/>
<path d="M33.46 100.432L36.3 97.9523" stroke="#014B73" stroke-miterlimit="10"/>
<path d="M36.2207 104.052L39.0607 101.572" stroke="#014B73" stroke-miterlimit="10"/>
<path d="M39.2002 108.112L42.0402 105.632" stroke="#014B73" stroke-miterlimit="10"/>
<path d="M56.6699 135.402L62.3099 130.852" stroke="#014B73" stroke-miterlimit="10"/>
<path d="M47.3096 117.442L50.1596 114.962" stroke="#014B73" stroke-miterlimit="10"/>
<path d="M50.3291 121.292L53.1691 118.812" stroke="#014B73" stroke-miterlimit="10"/>
<path d="M53.0996 124.922L55.9396 122.432" stroke="#014B73" stroke-miterlimit="10"/>
<path d="M56.0693 128.982L58.9093 126.502" stroke="#014B73" stroke-miterlimit="10"/>
<path d="M72 156.202L77.65 151.662" stroke="#014B73" stroke-miterlimit="10"/>
<path d="M62.6504 138.252L65.4904 135.772" stroke="#014B73" stroke-miterlimit="10"/>
<path d="M65.6699 142.102L68.5099 139.622" stroke="#014B73" stroke-miterlimit="10"/>
<path d="M68.4307 145.722L71.2707 143.242" stroke="#014B73" stroke-miterlimit="10"/>
<path d="M71.4102 149.782L74.2502 147.302" stroke="#014B73" stroke-miterlimit="10"/>
<path d="M88.6406 176.272L94.2806 171.722" stroke="#014B73" stroke-miterlimit="10"/>
<path d="M79.2803 158.312L82.1303 155.832" stroke="#014B73" stroke-miterlimit="10"/>
<path d="M82.2998 162.162L85.1398 159.682" stroke="#014B73" stroke-miterlimit="10"/>
<path d="M85.0703 165.782L87.9103 163.302" stroke="#014B73" stroke-miterlimit="10"/>
<path d="M88.04 169.852L90.88 167.372" stroke="#014B73" stroke-miterlimit="10"/>
<path d="M41.4999 155.842C50.0099 153.532 58.7799 152.202 67.5999 151.902C70.1099 151.812 72.8699 151.902 74.7699 153.552C76.2099 154.812 76.8699 156.892 76.4099 158.752C75.9599 160.612 74.4099 162.152 72.3899 162.882C75.4099 161.892 78.8199 162.162 81.6499 163.602C82.4299 164.002 83.1899 164.502 83.7499 165.172C84.5499 166.142 84.9099 167.452 84.7799 168.712C84.5499 170.932 82.7499 172.892 80.3799 173.092C82.3599 172.312 84.7899 172.912 86.1799 174.512C87.5699 176.112 87.8199 178.612 86.7799 180.462C85.8899 182.042 84.2499 183.032 82.6499 183.902C76.9699 186.982 70.9299 189.402 64.8299 191.302C67.7699 192.732 71.1299 193.272 74.3699 192.832C76.0999 192.592 77.8299 192.082 79.5699 192.222C81.3099 192.362 83.1599 193.402 83.5199 195.112C83.9599 197.232 82.0199 199.042 80.2199 200.252C75.9199 203.122 71.1999 205.352 66.2499 206.852C62.6699 207.942 58.3499 208.492 55.5699 205.982C52.8799 203.562 52.9099 199.102 54.7999 196.022C56.6899 192.942 59.9699 191.002 63.2499 189.322C61.8499 189.942 60.1599 189.532 58.9399 188.612C57.4499 187.482 56.5499 185.602 56.6799 183.742C56.8099 181.882 58.0099 180.122 60.2299 178.612C58.3899 179.542 56.4299 180.382 54.3699 180.492C52.3099 180.602 50.0899 179.832 48.9299 178.122C47.7399 176.362 47.8899 173.952 48.8399 172.052C49.7899 170.152 51.4299 168.702 53.6499 166.792C51.3199 167.512 48.7999 167.782 46.4499 167.162C44.0899 166.542 41.9299 164.942 40.9899 162.702C40.0499 160.432 40.5299 157.562 41.4999 155.842Z" fill="#FABE93"/>
<path d="M86.7998 219.342C82.7198 218.242 79.5398 222.422 78.2198 226.442C76.8998 230.462 77.6898 234.832 78.4998 238.922C75.8998 239.452 73.8898 241.662 72.9198 244.122C71.9498 246.582 71.8598 249.302 71.8698 251.952C71.9398 269.872 76.2898 287.772 84.4498 303.732C89.4898 313.592 96.3398 323.052 106.16 328.192C115.98 333.332 129.24 333.042 137.06 325.192C144.03 318.192 145.14 307.362 145.07 297.482C144.88 270.732 138.9 244.032 127.66 219.752C126.56 217.372 125.35 214.942 123.33 213.292C121.31 211.642 117.77 211.072 115.32 212.032C115.24 216.482 112.36 220.242 108.39 222.262C104.42 224.282 99.8898 224.802 95.4698 225.292C93.1298 225.562 85.3398 225.052 86.7998 219.342Z" fill="#138ACF"/>
<path d="M119.85 233.742C112.28 235.522 104.65 237.122 96.99 238.452C93.48 239.102 87.28 239.232 82.5 239.212C87.15 240.212 91.8 241.422 96.59 241.512C106.01 241.712 115.48 238.912 123.22 233.512C123.81 233.112 124.39 232.692 124.97 232.272C123.28 232.802 121.57 233.292 119.85 233.742Z" fill="#0464AC"/>
<path d="M255.57 215.632L262.99 224.482L195.42 234.812C195.42 234.812 181.68 236.292 179.52 231.592C177.35 226.892 174.51 223.362 181.69 220.452C188.87 217.552 255.57 215.632 255.57 215.632Z" fill="white"/>
<path d="M184.931 230.912L191.101 330.822L261.231 325.262C265.511 324.922 268.761 321.272 268.601 316.982L265.361 229.022C265.211 225.012 261.681 221.982 257.691 222.442L184.931 230.912Z" fill="#FED401"/>
<path opacity="0.3686" d="M265.69 238.822C265.69 238.822 228.87 316.962 190.91 330.672C190.91 330.672 255.17 328.962 270.77 324.802L265.69 238.822Z" fill="#F2A905"/>
<path d="M201.24 256.832L200.63 250.502C200.47 248.802 201.71 247.292 203.41 247.132L246.17 243.012C247.87 242.852 249.38 244.092 249.54 245.792L250.15 252.122C250.31 253.822 249.07 255.332 247.37 255.492L204.61 259.612C202.91 259.782 201.4 258.532 201.24 256.832Z" fill="#FFF582"/>
<path d="M179.371 223.862C178.571 224.462 177.681 230.242 185.711 230.822L191.081 330.812C191.081 330.812 181.861 333.422 180.451 326.692L174.691 228.922C174.691 228.922 172.661 221.672 184.021 218.902C200.161 214.962 258.201 213.472 258.201 213.472C258.201 213.472 261.231 214.982 258.511 216.662C258.521 216.652 185.341 219.372 179.371 223.862Z" fill="#F2A905"/>
<path d="M239.41 315.932C233.05 311.932 223.63 311.202 217.78 307.522C207.33 311.732 195.48 312.382 184.63 309.342C182.81 308.832 180.85 308.092 179.93 306.432C179.01 304.772 180.09 302.102 181.82 301.942C179.99 300.992 177.99 300.372 176.21 299.322C174.43 298.282 172.81 296.682 172.44 294.652C172.07 292.622 173.43 290.232 176.1 290.312C172.96 289.512 170.11 287.602 168.18 284.992C167.46 284.022 166.84 282.842 167.07 281.652C167.27 280.622 168.08 279.792 169.01 279.312C169.94 278.832 171 278.642 172.09 278.152C169.58 277.282 167.5 275.272 166.55 272.792C166.1 271.622 165.91 270.262 166.47 269.132C167.31 267.462 169.42 266.952 171.27 266.782C175.19 266.412 179.17 266.712 182.92 267.462C185.01 267.912 187.1 268.372 189.18 268.822C185.29 266.862 182.02 263.692 179.95 259.852C179.41 258.852 178.95 257.612 179.48 256.602C180.32 255.022 182.64 255.372 184.33 255.952C189.59 257.742 194.84 259.542 200.09 261.332C204.91 262.982 209.87 264.702 213.71 268.052C217.21 271.102 219.53 275.292 222.79 278.612C228.19 284.122 235.73 286.872 243 289.462C240.65 297.412 241.86 307.672 239.41 315.932Z" fill="#F9AF88"/>
<path d="M220.181 308.662C220.181 308.662 235.741 296.822 235.741 286.742L239.141 287.482L235.511 317.332L220.181 308.662Z" fill="#F18361"/>
<path d="M294.97 180.412C268.23 176.852 258.87 204.062 263.89 236.902C265.89 250.002 266.54 267.752 268.42 280.062C263.14 280.062 252.08 279.772 251.54 284.182C249.55 283.392 247.53 282.582 245.4 282.372C243.27 282.162 240.98 282.612 239.4 284.052C237.73 285.572 237.12 287.912 236.62 290.112C234.88 297.902 233.7 305.812 233.09 313.762C232.83 317.112 232.79 320.832 234.95 323.412C237.71 326.692 242.69 326.622 245.34 326.372C246.48 332.462 253.62 335.102 259.72 336.212C273.49 338.712 287.66 339.042 301.53 337.182C309.1 336.172 317.02 334.292 322.47 328.942C328.41 323.112 330.26 314.342 331.1 306.062C334.54 272.362 327.26 184.712 294.97 180.412Z" fill="#138ACF"/>
<path d="M246.76 303.752C245.99 308.512 245.77 314.902 246.04 318.942C249.06 308.462 250.53 297.582 250.37 286.672C249.33 292.402 247.71 298.012 246.76 303.752Z" fill="#0464AC"/>
</svg>
