<svg width="481" height="466" viewBox="0 0 481 466" fill="none" xmlns="http://www.w3.org/2000/svg">
<path d="M472 0H54C49.0294 0 45 4.02944 45 9V426C45 430.971 49.0294 435 54 435H472C476.971 435 481 430.971 481 426V9C481 4.02944 476.971 0 472 0Z" fill="#BE5949"/>
<path d="M470 13H56V424H470V13Z" fill="#3B3945"/>
<mask id="mask0_160_6336" style="mask-type:luminance" maskUnits="userSpaceOnUse" x="56" y="12" width="414" height="412">
<path d="M470 12.83H56V424H470V12.83Z" fill="white"/>
</mask>
<g mask="url(#mask0_160_6336)">
<path d="M66.5098 12.8298C66.5098 12.8298 75.4398 336.035 175.27 382.385C428.21 499.822 478.48 140.889 478.48 140.889L481.09 443.829L45.5098 445.646L51.7798 -6.92944L66.5098 12.8298Z" fill="#33313D"/>
</g>
<path d="M108.485 446.805C131.457 441.433 147.413 419.714 144.941 395.624C142.469 371.535 122.436 353.508 98.8508 352.913L97.9739 344.368L79.3394 346.28L90.7263 457.261L109.361 455.35L108.485 446.805ZM127.272 397.438C128.738 411.722 119.821 424.719 106.648 428.911L100.687 370.809C114.437 372.239 125.807 383.154 127.272 397.438Z" fill="#DBDBDB"/>
<path d="M104.979 441.751C104.962 441.58 105.077 441.422 105.249 441.39C105.43 441.356 105.603 441.476 105.637 441.657L106.309 445.263C106.346 445.445 106.223 445.616 106.042 445.65C105.861 445.685 105.688 445.565 105.654 445.384L104.983 441.778C104.981 441.769 104.98 441.76 104.979 441.751Z" fill="#184656"/>
<path d="M108.661 440.883C108.645 440.724 108.744 440.573 108.903 440.529C109.08 440.479 109.263 440.582 109.314 440.76L110.306 444.29C110.351 444.47 110.252 444.652 110.075 444.701C109.898 444.751 109.714 444.648 109.664 444.47L108.671 440.94C108.666 440.921 108.663 440.901 108.661 440.883Z" fill="#184656"/>
<path d="M112.248 439.691C112.234 439.544 112.317 439.4 112.46 439.345C112.632 439.28 112.825 439.366 112.89 439.538L114.199 442.963C114.262 443.141 114.177 443.329 114.006 443.394C113.834 443.459 113.641 443.373 113.576 443.202L112.267 439.776C112.258 439.748 112.252 439.72 112.248 439.691Z" fill="#184656"/>
<path d="M115.714 438.183C115.699 438.048 115.77 437.913 115.899 437.85C116.064 437.769 116.262 437.837 116.344 438.003L117.958 441.295C118.039 441.46 117.97 441.658 117.805 441.74C117.64 441.821 117.442 441.753 117.36 441.587L115.746 438.295C115.728 438.26 115.718 438.222 115.714 438.183Z" fill="#184656"/>
<path d="M119.031 436.369C119.018 436.245 119.074 436.12 119.188 436.051C119.345 435.955 119.551 436.005 119.645 436.162L121.551 439.295C121.648 439.457 121.597 439.658 121.44 439.753C121.282 439.848 121.077 439.799 120.982 439.641L119.077 436.508C119.05 436.464 119.035 436.416 119.031 436.369Z" fill="#184656"/>
<path d="M122.169 434.263C122.158 434.15 122.205 434.033 122.302 433.961C122.449 433.851 122.659 433.882 122.767 434.03L124.948 436.978C125.057 437.126 125.027 437.334 124.879 437.444C124.732 437.554 124.523 437.523 124.414 437.375L122.233 434.427C122.197 434.377 122.175 434.322 122.169 434.263Z" fill="#184656"/>
<path d="M125.108 431.883C125.098 431.78 125.134 431.675 125.217 431.601C125.355 431.478 125.566 431.491 125.687 431.628L128.125 434.368C128.248 434.507 128.234 434.717 128.097 434.839C127.96 434.961 127.749 434.948 127.627 434.811L125.19 432.071C125.142 432.016 125.115 431.951 125.108 431.883Z" fill="#184656"/>
<path d="M127.823 429.25C127.814 429.157 127.843 429.061 127.912 428.988C128.038 428.855 128.248 428.848 128.383 428.974L131.056 431.484C131.19 431.611 131.197 431.82 131.071 431.954C130.945 432.088 130.735 432.095 130.6 431.969L127.926 429.459C127.865 429.401 127.831 429.327 127.823 429.25Z" fill="#184656"/>
<path d="M130.293 426.383C130.285 426.3 130.306 426.214 130.362 426.143C130.474 425.999 130.685 425.973 130.829 426.087L133.715 428.349C133.862 428.461 133.886 428.673 133.772 428.816C133.659 428.961 133.449 428.987 133.304 428.872L130.418 426.611C130.344 426.552 130.301 426.469 130.293 426.383Z" fill="#184656"/>
<path d="M132.496 423.307C132.489 423.234 132.504 423.158 132.548 423.093C132.648 422.937 132.854 422.893 133.008 422.994L136.086 424.988C136.243 425.087 136.286 425.295 136.184 425.447C136.085 425.602 135.879 425.646 135.725 425.545L132.646 423.552C132.558 423.496 132.506 423.404 132.496 423.307Z" fill="#184656"/>
<path d="M134.418 420.045C134.411 419.982 134.422 419.917 134.454 419.856C134.54 419.693 134.741 419.63 134.904 419.716L138.149 421.425C138.313 421.51 138.374 421.716 138.29 421.875C138.204 422.038 138.002 422.1 137.84 422.015L134.594 420.306C134.491 420.252 134.429 420.152 134.418 420.045Z" fill="#184656"/>
<path d="M136.04 416.626C136.035 416.572 136.042 416.517 136.064 416.464C136.135 416.293 136.329 416.214 136.499 416.285L139.885 417.695C140.055 417.767 140.133 417.964 140.064 418.13C139.993 418.301 139.799 418.381 139.629 418.31L136.243 416.899C136.127 416.85 136.053 416.743 136.04 416.626Z" fill="#184656"/>
<path d="M137.326 413.067C137.322 413.023 137.326 412.977 137.34 412.933C137.395 412.758 137.582 412.66 137.757 412.716L141.256 413.813C141.433 413.868 141.529 414.06 141.475 414.23C141.42 414.405 141.232 414.503 141.058 414.448L137.559 413.35C137.427 413.31 137.34 413.195 137.326 413.067Z" fill="#184656"/>
<path d="M138.281 409.406C138.278 409.372 138.279 409.337 138.287 409.302C138.326 409.121 138.503 409.007 138.683 409.046L142.267 409.822C142.449 409.86 142.56 410.042 142.522 410.217C142.484 410.398 142.307 410.512 142.127 410.472L138.542 409.697C138.397 409.667 138.296 409.546 138.281 409.406Z" fill="#184656"/>
<path d="M138.9 405.674C138.897 405.651 138.898 405.626 138.902 405.6C138.923 405.417 139.09 405.288 139.272 405.31L142.912 405.759C143.095 405.78 143.23 405.94 143.201 406.129C143.18 406.313 143.013 406.442 142.831 406.418L139.19 405.97C139.033 405.952 138.915 405.826 138.9 405.674Z" fill="#184656"/>
<path d="M139.181 401.905C139.18 401.891 139.179 401.875 139.18 401.861C139.186 401.677 139.34 401.532 139.523 401.539L143.187 401.656C143.37 401.661 143.516 401.81 143.509 401.998C143.504 402.181 143.35 402.326 143.167 402.32L139.502 402.203C139.333 402.199 139.199 402.069 139.181 401.905Z" fill="#184656"/>
<path d="M139.123 398.122C139.123 398.118 139.122 398.112 139.122 398.107C139.112 397.925 139.251 397.768 139.435 397.756L143.097 397.545C143.276 397.534 143.429 397.667 143.447 397.844C143.446 397.848 143.448 397.853 143.448 397.858C143.458 398.041 143.319 398.198 143.135 398.21L139.473 398.421C139.295 398.432 139.142 398.3 139.123 398.122Z" fill="#184656"/>
<path d="M138.737 394.36C138.72 394.183 138.843 394.022 139.019 393.997L142.647 393.46C142.83 393.434 142.998 393.56 143.026 393.741C143.027 393.746 143.027 393.752 143.028 393.756C143.046 393.932 142.922 394.093 142.746 394.119L139.118 394.656C138.936 394.682 138.767 394.556 138.739 394.375C138.738 394.369 138.737 394.364 138.737 394.36Z" fill="#184656"/>
<path d="M138.026 390.646C138.009 390.482 138.115 390.328 138.279 390.289L141.843 389.429C142.022 389.386 142.202 389.495 142.244 389.675C142.29 389.858 142.178 390.034 141.998 390.076L138.434 390.936C138.255 390.979 138.075 390.87 138.033 390.69C138.03 390.675 138.027 390.661 138.026 390.646Z" fill="#184656"/>
<path d="M136.985 387.012C136.969 386.86 137.058 386.713 137.21 386.663L140.683 385.484C140.857 385.425 141.046 385.518 141.105 385.693C141.171 385.87 141.071 386.055 140.896 386.114L137.423 387.291C137.25 387.35 137.06 387.258 137.002 387.083C136.992 387.06 136.987 387.034 136.985 387.012Z" fill="#184656"/>
<path d="M135.622 383.484C135.608 383.345 135.683 383.206 135.818 383.145L139.17 381.657C139.338 381.581 139.534 381.657 139.609 381.826C139.681 381.989 139.609 382.191 139.44 382.265L136.088 383.754C135.92 383.829 135.724 383.753 135.649 383.584C135.634 383.552 135.625 383.518 135.622 383.484Z" fill="#184656"/>
<path d="M133.943 380.093C133.93 379.966 133.992 379.836 134.112 379.768L137.315 377.983C137.475 377.893 137.678 377.951 137.768 378.112C137.855 378.27 137.8 378.475 137.638 378.564L134.435 380.35C134.275 380.44 134.072 380.382 133.983 380.221C133.96 380.181 133.947 380.137 133.943 380.093Z" fill="#184656"/>
<path d="M131.962 376.868C131.95 376.751 132.001 376.631 132.105 376.559L135.134 374.492C135.286 374.388 135.493 374.427 135.597 374.58C135.698 374.729 135.662 374.937 135.509 375.043L132.48 377.11C132.328 377.214 132.122 377.175 132.017 377.022C131.986 376.975 131.967 376.922 131.962 376.868Z" fill="#184656"/>
<path d="M129.677 373.849C129.667 373.743 129.708 373.631 129.797 373.559L132.627 371.226C132.769 371.109 132.979 371.13 133.096 371.272C133.212 371.412 133.193 371.623 133.05 371.74L130.22 374.073C130.078 374.189 129.868 374.168 129.751 374.027C129.708 373.975 129.684 373.913 129.677 373.849Z" fill="#184656"/>
<path d="M127.134 371.047C127.124 370.95 127.156 370.849 127.232 370.777L129.841 368.199C129.972 368.069 130.182 368.071 130.311 368.202C130.44 368.331 130.44 368.543 130.308 368.672L127.698 371.25C127.567 371.379 127.357 371.378 127.228 371.246C127.173 371.192 127.142 371.121 127.134 371.047Z" fill="#184656"/>
<path d="M124.351 368.482C124.342 368.395 124.367 368.305 124.428 368.233L126.795 365.434C126.914 365.293 127.124 365.276 127.265 365.395C127.407 365.512 127.424 365.724 127.305 365.864L124.937 368.663C124.818 368.803 124.608 368.821 124.468 368.703C124.399 368.645 124.361 368.565 124.351 368.482Z" fill="#184656"/>
<path d="M121.351 366.177C121.343 366.1 121.363 366.02 121.41 365.952L123.518 362.952C123.624 362.801 123.831 362.765 123.981 362.87C124.132 362.978 124.167 363.185 124.063 363.333L121.954 366.334C121.848 366.484 121.641 366.521 121.491 366.415C121.41 366.357 121.361 366.269 121.351 366.177Z" fill="#184656"/>
<path d="M118.158 364.15C118.152 364.083 118.165 364.013 118.201 363.949L120.03 360.771C120.121 360.612 120.325 360.558 120.485 360.649C120.644 360.741 120.697 360.945 120.607 361.104L118.778 364.283C118.686 364.442 118.482 364.496 118.322 364.404C118.227 364.348 118.169 364.252 118.158 364.15Z" fill="#184656"/>
<path d="M114.798 362.416C114.792 362.358 114.801 362.299 114.827 362.242L116.364 358.912C116.44 358.745 116.639 358.672 116.806 358.75C116.972 358.827 117.043 359.025 116.968 359.192L115.431 362.522C115.354 362.689 115.155 362.762 114.988 362.684C114.879 362.633 114.809 362.529 114.798 362.416Z" fill="#184656"/>
<path d="M111.295 360.991C111.29 360.943 111.295 360.894 111.313 360.845L112.542 357.391C112.603 357.218 112.794 357.128 112.967 357.189C113.141 357.249 113.232 357.439 113.169 357.614L111.94 361.068C111.879 361.241 111.688 361.331 111.515 361.27C111.389 361.227 111.308 361.115 111.295 360.991Z" fill="#184656"/>
<path d="M107.681 359.889C107.677 359.851 107.68 359.812 107.69 359.772L108.601 356.22C108.647 356.041 108.828 355.934 109.006 355.981C109.183 356.027 109.292 356.206 109.246 356.385L108.335 359.937C108.289 360.116 108.108 360.223 107.93 360.177C107.791 360.141 107.694 360.024 107.681 359.889Z" fill="#184656"/>
<path d="M103.98 359.115C103.978 359.087 103.978 359.057 103.982 359.028L104.568 355.408C104.597 355.226 104.768 355.103 104.95 355.132C105.131 355.163 105.251 355.332 105.226 355.515L104.641 359.135C104.611 359.317 104.44 359.441 104.258 359.412C104.106 359.386 103.996 359.263 103.98 359.115Z" fill="#184656"/>
<path d="M100.227 358.676C100.224 358.658 100.224 358.639 100.225 358.619L100.479 354.962C100.492 354.779 100.651 354.641 100.836 354.654C101.018 354.666 101.154 354.821 101.144 355.01L100.89 358.667C100.877 358.85 100.718 358.989 100.534 358.975C100.371 358.964 100.243 358.835 100.227 358.676Z" fill="#184656"/>
<path d="M96.4458 358.574C96.4446 358.566 96.4435 358.556 96.4438 358.547L96.3697 354.881C96.3661 354.698 96.5123 354.545 96.6957 354.542C96.879 354.538 97.0317 354.68 97.0351 354.868L97.1092 358.534C97.1127 358.717 96.9672 358.871 96.7832 358.873C96.6083 358.877 96.4631 358.746 96.4458 358.574Z" fill="#184656"/>
<path d="M81.4612 352.84C81.4428 352.657 81.5752 352.494 81.7576 352.475L85.4047 352.1C85.5878 352.082 85.7507 352.214 85.7698 352.397C85.7889 352.58 85.6558 352.742 85.4734 352.762L81.8263 353.136C81.6432 353.156 81.481 353.023 81.4612 352.84Z" fill="#184656"/>
<path d="M81.8618 356.742C81.8434 356.559 81.9757 356.396 82.1581 356.377L85.8053 356.003C85.9884 355.984 86.1512 356.117 86.1696 356.3C86.1887 356.484 86.0557 356.646 85.8732 356.665L82.2261 357.04C82.0437 357.059 81.8808 356.926 81.8618 356.742Z" fill="#184656"/>
<path d="M82.2622 360.645C82.2431 360.461 82.3762 360.299 82.5586 360.28L86.2057 359.905C86.3888 359.887 86.5517 360.019 86.5708 360.202C86.5892 360.385 86.4568 360.548 86.2737 360.566L82.6266 360.941C82.4442 360.961 82.2813 360.829 82.2622 360.645Z" fill="#184656"/>
<path d="M82.6636 364.548C82.6452 364.365 82.7776 364.202 82.9607 364.182L86.6079 363.807C86.791 363.789 86.9538 363.921 86.9729 364.104C86.9913 364.287 86.859 364.45 86.6766 364.469L83.0294 364.843C82.8456 364.864 82.6827 364.732 82.6636 364.548Z" fill="#184656"/>
<path d="M83.0638 368.451C83.0447 368.267 83.1777 368.105 83.3601 368.086L87.0073 367.711C87.1911 367.692 87.3532 367.825 87.373 368.009C87.3914 368.192 87.2591 368.354 87.0767 368.374L83.4295 368.748C83.2457 368.767 83.0821 368.634 83.0638 368.451Z" fill="#184656"/>
<path d="M83.4639 372.354C83.4455 372.171 83.5779 372.008 83.7603 371.989L87.4075 371.614C87.5913 371.595 87.7534 371.728 87.7725 371.91C87.7916 372.094 87.6586 372.256 87.4761 372.275L83.829 372.65C83.6459 372.67 83.4823 372.537 83.4639 372.354Z" fill="#184656"/>
<path d="M83.8645 376.256C83.8461 376.073 83.9785 375.91 84.1609 375.891L87.8081 375.517C87.9912 375.498 88.154 375.631 88.1731 375.813C88.1922 375.997 88.0592 376.159 87.876 376.179L84.2289 376.553C84.0458 376.572 83.8829 376.439 83.8645 376.256Z" fill="#184656"/>
<path d="M84.2647 380.16C84.2463 379.977 84.3787 379.814 84.5611 379.795L88.2082 379.42C88.3921 379.401 88.5542 379.534 88.5733 379.716C88.5917 379.899 88.4593 380.062 88.2769 380.081L84.6298 380.456C84.4466 380.476 84.2838 380.342 84.2647 380.16Z" fill="#184656"/>
<path d="M84.6657 384.062C84.6473 383.879 84.7797 383.716 84.9628 383.696L88.61 383.322C88.7931 383.303 88.9559 383.436 88.9743 383.619C88.9927 383.802 88.8603 383.965 88.6772 383.985L85.0301 384.359C84.847 384.378 84.6841 384.245 84.6657 384.062Z" fill="#184656"/>
<path d="M85.0659 387.965C85.0468 387.781 85.1799 387.619 85.3623 387.6L89.0094 387.225C89.1925 387.207 89.3554 387.339 89.3752 387.522C89.3936 387.705 89.2612 387.868 89.0781 387.888L85.4309 388.263C85.2472 388.28 85.0843 388.148 85.0659 387.965Z" fill="#184656"/>
<path d="M85.4671 391.868C85.4487 391.684 85.5811 391.522 85.7635 391.502L89.4106 391.128C89.5937 391.109 89.7566 391.242 89.7757 391.424C89.7948 391.608 89.6617 391.77 89.4793 391.789L85.8321 392.164C85.6483 392.183 85.4855 392.051 85.4671 391.868Z" fill="#184656"/>
<path d="M85.8656 395.77C85.8472 395.587 85.9796 395.424 86.1634 395.405L89.8106 395.03C89.9937 395.012 90.1565 395.144 90.1756 395.327C90.1947 395.511 90.0617 395.673 89.8785 395.693L86.2314 396.067C86.0476 396.086 85.8847 395.954 85.8656 395.77Z" fill="#184656"/>
<path d="M86.2667 399.673C86.2483 399.49 86.3807 399.327 86.5631 399.308L90.2102 398.933C90.394 398.914 90.5561 399.047 90.5753 399.229C90.5936 399.412 90.4613 399.575 90.2789 399.594L86.6317 399.969C86.4486 399.989 86.2857 399.857 86.2667 399.673Z" fill="#184656"/>
<path d="M86.6675 403.575C86.6491 403.392 86.7815 403.229 86.9646 403.21L90.6118 402.835C90.7949 402.817 90.9577 402.949 90.9769 403.131C90.9959 403.315 90.8629 403.477 90.6797 403.497L87.0326 403.872C86.8495 403.892 86.6866 403.759 86.6675 403.575Z" fill="#184656"/>
<path d="M87.0676 407.479C87.0486 407.295 87.1816 407.133 87.364 407.114L91.0112 406.739C91.195 406.72 91.3571 406.853 91.3769 407.036C91.3953 407.219 91.263 407.382 91.0806 407.401L87.4334 407.776C87.2496 407.795 87.0867 407.663 87.0676 407.479Z" fill="#184656"/>
<path d="M87.4685 411.381C87.4501 411.198 87.5824 411.035 87.7656 411.016L91.4127 410.641C91.5958 410.622 91.7587 410.755 91.7771 410.938C91.7961 411.122 91.6631 411.284 91.4807 411.303L87.8335 411.678C87.6504 411.697 87.4875 411.565 87.4685 411.381Z" fill="#184656"/>
<path d="M87.8684 415.284C87.8501 415.101 87.9824 414.938 88.1648 414.919L91.812 414.544C91.9951 414.526 92.1579 414.658 92.1771 414.841C92.1955 415.024 92.0631 415.187 91.8792 415.206L88.2321 415.58C88.0504 415.6 87.8875 415.468 87.8684 415.284Z" fill="#184656"/>
<path d="M88.2698 419.187C88.2514 419.003 88.3838 418.841 88.5662 418.821L92.2133 418.447C92.3964 418.428 92.5593 418.561 92.5784 418.743C92.5968 418.926 92.4644 419.089 92.282 419.108L88.6349 419.483C88.4517 419.503 88.2882 419.37 88.2698 419.187Z" fill="#184656"/>
<path d="M88.6693 423.09C88.651 422.907 88.7833 422.744 88.9671 422.725L92.6143 422.35C92.7974 422.332 92.9602 422.464 92.9794 422.647C92.9984 422.83 92.8654 422.993 92.683 423.012L89.0358 423.386C88.8513 423.406 88.6877 423.273 88.6693 423.09Z" fill="#184656"/>
<path d="M89.0706 426.992C89.0515 426.809 89.1846 426.647 89.367 426.627L93.0141 426.253C93.1979 426.234 93.3601 426.367 93.3799 426.55C93.3983 426.733 93.2659 426.896 93.0835 426.915L89.4363 427.29C89.2518 427.308 89.089 427.176 89.0706 426.992Z" fill="#184656"/>
<path d="M89.471 430.895C89.4526 430.712 89.585 430.549 89.7674 430.53L93.4145 430.155C93.5976 430.137 93.7605 430.269 93.7796 430.452C93.7987 430.636 93.6656 430.798 93.4832 430.817L89.8361 431.192C89.6522 431.211 89.4894 431.078 89.471 430.895Z" fill="#184656"/>
<path d="M89.8714 434.798C89.853 434.615 89.9854 434.453 90.1678 434.433L93.8149 434.059C93.998 434.04 94.1609 434.173 94.1807 434.356C94.1991 434.539 94.0667 434.702 93.8829 434.721L90.2357 435.096C90.0526 435.114 89.8898 434.982 89.8714 434.798Z" fill="#184656"/>
<path d="M90.2719 438.701C90.2535 438.518 90.3859 438.355 90.5683 438.336L94.2154 437.961C94.3985 437.943 94.5614 438.075 94.5798 438.258C94.5982 438.441 94.4658 438.604 94.2834 438.623L90.6363 438.998C90.4532 439.017 90.2903 438.884 90.2719 438.701Z" fill="#184656"/>
<path d="M90.6713 442.603C90.6529 442.42 90.7853 442.257 90.9691 442.238L94.6162 441.863C94.7993 441.845 94.9622 441.977 94.9813 442.16C95.0004 442.343 94.8673 442.506 94.6849 442.525L91.0378 442.899C90.8532 442.919 90.6904 442.787 90.6713 442.603Z" fill="#184656"/>
<path d="M91.0726 446.506C91.0542 446.323 91.1865 446.16 91.3689 446.141L95.0161 445.766C95.1992 445.748 95.362 445.88 95.3818 446.063C95.4002 446.246 95.2679 446.409 95.0855 446.428L91.4383 446.803C91.2545 446.822 91.0916 446.689 91.0726 446.506Z" fill="#184656"/>
<path d="M91.4727 450.409C91.4543 450.226 91.5867 450.063 91.7691 450.044L95.4163 449.669C95.6001 449.65 95.7622 449.783 95.7813 449.966C95.8004 450.149 95.6673 450.312 95.4849 450.331L91.8378 450.705C91.6546 450.725 91.4918 450.593 91.4727 450.409Z" fill="#184656"/>
<path d="M152.128 370.271L137.744 366.059L122.792 417.12L137.176 421.332L152.128 370.271Z" fill="#FC9E4B"/>
<path d="M148.704 369.269L141.169 367.062L126.217 418.124L133.752 420.33L148.704 369.269Z" fill="#FCC14B"/>
<path d="M152.122 370.254L137.738 366.043L145.006 359.277L148.471 356.052L149.65 360.637L152.122 370.254Z" fill="#ED906F"/>
<path d="M149.651 360.637C148.849 360.782 148.005 360.743 147.17 360.498C146.335 360.253 145.605 359.824 145.006 359.277L148.472 356.053L149.651 360.637Z" fill="#184656"/>
<path d="M137.174 421.335L122.79 417.123L121.645 421.033L136.03 425.245L137.174 421.335Z" fill="#184656"/>
<path d="M136.029 425.224L135.103 428.388C133.94 432.36 129.777 434.637 125.805 433.474C124.271 433.025 122.993 432.13 122.063 430.965C120.586 429.127 120.005 426.615 120.72 424.176L121.646 421.012L136.029 425.224Z" fill="#C8505A"/>
<path d="M132.262 424.12L131.714 425.99C130.551 429.962 126.389 432.239 122.416 431.076C122.3 431.042 122.177 431.006 122.062 430.966C120.586 429.127 120.005 426.616 120.719 424.176L121.645 421.012L132.262 424.12Z" fill="#E95F5C"/>
<path d="M108.651 403.204L94.1987 419.137L64.9527 451.383C64.7807 451.573 64.6007 451.756 64.3967 451.921C61.8347 454.212 57.9647 454.388 55.1907 452.253L40.8127 441.188C37.8367 438.898 37.1157 434.698 39.1627 431.535L45.9487 421.061L70.8317 382.688L74.5467 376.958L108.651 403.204Z" fill="#FC9E4B"/>
<path d="M102.99 398.847L88.5377 414.78L59.2907 447.026C59.1187 447.216 58.9397 447.399 58.7347 447.564C56.1727 449.855 52.3027 450.031 49.5287 447.896L40.8127 441.188C37.8367 438.898 37.1157 434.698 39.1627 431.535L45.9487 421.061L70.8317 382.688L74.5467 376.958L102.99 398.847Z" fill="#FCC14B"/>
<path d="M111.958 385.792L105.084 380.502L108.417 376.171L100.735 370.258L97.4009 374.589L90.5269 369.299L74.5449 376.958L108.646 403.203L111.958 385.792Z" fill="#174555"/>
<path d="M112.073 371.42L102.472 368L100.734 370.258L108.416 376.171L112.073 371.42Z" fill="#FCC14B"/>
<path d="M94.1992 419.137L64.9522 451.383C64.7802 451.573 64.6002 451.756 64.3962 451.921C62.4762 450.701 60.6172 449.167 58.8542 447.359C53.4142 441.795 48.9332 433.646 46.5932 424.054C46.3462 423.053 46.1362 422.054 45.9482 421.06L70.8312 382.687C79.0522 385.743 86.7592 394.585 91.1062 406.455C91.1202 406.453 91.1142 406.461 91.1162 406.476C91.8442 408.492 92.4802 410.577 93.0102 412.75C93.5312 414.902 93.9252 417.034 94.1992 419.137Z" fill="#C8505A"/>
<path d="M91.8672 411.007L59.3052 446.908C59.1662 447.072 59.0262 447.221 58.8542 447.36C53.4142 441.796 48.9332 433.647 46.5932 424.055C46.3462 423.054 46.1362 422.055 45.9482 421.061L70.8312 382.688C79.0522 385.744 86.7592 394.586 91.1062 406.456C91.1202 406.454 91.1142 406.462 91.1162 406.477C91.4252 408.001 91.6712 409.504 91.8672 411.007Z" fill="#E95F5C"/>
<path d="M53.6691 341.084L56.1871 331.236L42.3831 327.707L39.8651 337.554C37.2531 347.772 30.0751 356.253 20.3691 360.378C11.0701 364.33 3.65506 372.416 0.959061 382.962C-3.63394 400.924 8.80906 412.934 26.7711 417.527C44.7331 422.12 61.4131 417.556 66.0061 399.594C68.7021 389.049 66.0781 378.395 59.8171 370.465C53.2821 362.187 51.0571 351.301 53.6691 341.084Z" fill="white"/>
<path d="M63.5005 398.95C57.8685 420.978 34.4565 416.82 27.4115 415.018C21.6305 413.54 5.40249 408.161 2.90549 394.081C2.36049 391.018 2.46449 387.542 3.47249 383.601C4.36849 380.096 5.83549 376.834 7.78849 373.937C10.7555 373.243 14.0385 373.164 17.1395 373.654C24.0685 374.757 30.3905 378.094 36.6105 381.235C42.8335 384.368 49.4015 387.438 56.3735 387.883C56.6455 387.899 56.9095 387.913 57.1755 387.919C59.5735 387.988 61.9415 387.72 64.2005 387.148C64.7155 391.025 64.5055 395.018 63.5005 398.95Z" fill="#CA8FBD"/>
<path d="M57.1755 387.921C51.3825 409.534 28.1915 405.414 21.1895 403.623C17.3495 402.641 8.87949 399.932 2.90549 394.082C2.36049 391.019 2.46449 387.543 3.47249 383.602C4.36849 380.097 5.83549 376.835 7.78849 373.938C10.7555 373.244 14.0385 373.165 17.1395 373.655C24.0685 374.758 30.3905 378.095 36.6105 381.236C42.8335 384.369 49.4015 387.439 56.3735 387.884C56.6455 387.901 56.9095 387.915 57.1755 387.921Z" fill="#EAA9C1"/>
<path d="M64.1981 387.145C61.9201 387.721 59.5251 387.991 57.1041 387.907C56.8551 387.906 56.6161 387.898 56.3711 387.88C49.4071 387.436 42.8281 384.373 36.6081 381.232C30.3941 378.101 24.0651 374.754 17.1451 373.653C14.0351 373.161 10.7531 373.24 7.78613 373.934C11.0771 369.044 15.7521 365.159 21.3821 362.766C31.7221 358.369 39.5691 349.189 42.3801 338.195L44.2561 330.858L53.0411 333.104L51.1651 340.441C48.3541 351.434 50.8231 363.252 57.7841 372.073C61.3051 376.53 63.4711 381.727 64.1981 387.145Z" fill="#A1CBD4"/>
<path d="M57.1041 387.908C56.8551 387.907 56.6161 387.899 56.3711 387.881C49.4071 387.437 42.8281 384.374 36.6081 381.233C30.3941 378.102 24.0651 374.755 17.1451 373.654C14.0351 373.162 10.7531 373.241 7.78613 373.935C11.0771 369.045 15.7521 365.16 21.3821 362.767C31.7221 358.37 39.5691 349.19 42.3801 338.196L44.2561 330.859L47.4691 331.68L44.4591 343.451C41.6481 354.444 44.1261 366.264 51.0801 375.074C54.1171 378.917 56.1421 383.303 57.1041 387.908Z" fill="#BCE1E9"/>
<path d="M56.6909 334.93L40.1679 330.705C38.8399 330.365 38.0379 329.013 38.3779 327.685C38.7179 326.357 40.0699 325.555 41.3979 325.895L57.9209 330.12C59.2489 330.46 60.0509 331.812 59.7109 333.14C59.3719 334.468 58.0199 335.27 56.6909 334.93Z" fill="white"/>
<path d="M52.1328 379.779C51.7788 381.165 50.3668 382.002 48.9808 381.647C47.5948 381.293 46.7578 379.881 47.1128 378.495C47.4668 377.109 48.8788 376.272 50.2648 376.627C51.6508 376.982 52.4868 378.393 52.1328 379.779Z" fill="#EAA9C1"/>
<path d="M42.5524 374.544C42.3454 375.353 41.5224 375.841 40.7134 375.634C39.9044 375.427 39.4174 374.604 39.6234 373.796C39.8304 372.987 40.6534 372.499 41.4614 372.706C42.2714 372.912 42.7594 373.735 42.5524 374.544Z" fill="#EAA9C1"/>
<path d="M47.4726 364.883C47.2066 365.923 46.1486 366.55 45.1086 366.284C44.0686 366.018 43.4416 364.96 43.7076 363.92C43.9736 362.88 45.0316 362.253 46.0716 362.519C47.1116 362.786 47.7386 363.844 47.4726 364.883Z" fill="#EAA9C1"/>
<path d="M53.1006 323.261C52.7466 324.647 51.3356 325.484 49.9486 325.129C48.5626 324.775 47.7256 323.364 48.0806 321.977C48.4346 320.591 49.8456 319.754 51.2326 320.109C52.6196 320.464 53.4556 321.875 53.1006 323.261Z" fill="#EAA9C1"/>
<path d="M52.7306 314.253C52.1546 316.506 49.8616 317.865 47.6096 317.289C45.3576 316.713 43.9976 314.42 44.5736 312.168C45.1496 309.915 47.4426 308.556 49.6946 309.132C51.9466 309.707 53.3066 312 52.7306 314.253Z" fill="#EAA9C1"/>
</svg>
